<mxfile host="app.diagrams.net" agent="Mozilla/5.0 (Windows NT 10.0; Win64; x64) AppleWebKit/537.36 (KHTML, like Gecko) Chrome/138.0.0.0 Safari/537.36" version="28.0.6">
  <diagram name="Page-1" id="XMs5LwVP9g4iwAkcKOVo">
    <mxGraphModel dx="946" dy="563" grid="1" gridSize="10" guides="1" tooltips="1" connect="1" arrows="1" fold="1" page="1" pageScale="1" pageWidth="850" pageHeight="1100" math="0" shadow="0">
      <root>
        <mxCell id="0" />
        <mxCell id="1" parent="0" />
        <mxCell id="gEV-0_07iIvLEzTvhgMC-7" value="" style="rounded=1;whiteSpace=wrap;html=1;" vertex="1" parent="1">
          <mxGeometry x="715" y="100" width="164" height="90" as="geometry" />
        </mxCell>
        <mxCell id="gEV-0_07iIvLEzTvhgMC-2" value="" style="rounded=1;whiteSpace=wrap;html=1;" vertex="1" parent="1">
          <mxGeometry x="103" y="204.08" width="116.7" height="125.92" as="geometry" />
        </mxCell>
        <mxCell id="NjmknjeXAfmQ-sKLG7hu-35" value="" style="rounded=1;whiteSpace=wrap;html=1;" parent="1" vertex="1">
          <mxGeometry x="715" y="209" width="155" height="100" as="geometry" />
        </mxCell>
        <mxCell id="NjmknjeXAfmQ-sKLG7hu-22" value="" style="rounded=1;whiteSpace=wrap;html=1;" parent="1" vertex="1">
          <mxGeometry x="242.5" y="127.19" width="435" height="258.5" as="geometry" />
        </mxCell>
        <mxCell id="NjmknjeXAfmQ-sKLG7hu-20" value="" style="rounded=1;whiteSpace=wrap;html=1;" parent="1" vertex="1">
          <mxGeometry x="413" y="190" width="253" height="150" as="geometry" />
        </mxCell>
        <mxCell id="NjmknjeXAfmQ-sKLG7hu-3" value="" style="outlineConnect=0;dashed=0;verticalLabelPosition=bottom;verticalAlign=top;align=center;html=1;shape=mxgraph.aws3.mysql_db_instance;fillColor=#2E73B8;gradientColor=none;" parent="1" vertex="1">
          <mxGeometry x="723" y="231.60000000000002" width="60" height="58.5" as="geometry" />
        </mxCell>
        <mxCell id="NjmknjeXAfmQ-sKLG7hu-6" value="" style="image;sketch=0;aspect=fixed;html=1;points=[];align=center;fontSize=12;image=img/lib/mscae/Docker.svg;" parent="1" vertex="1">
          <mxGeometry x="512.15" y="142.15" width="54.7" height="44.85" as="geometry" />
        </mxCell>
        <mxCell id="NjmknjeXAfmQ-sKLG7hu-13" value="Amazon EC2" style="sketch=0;outlineConnect=0;fontColor=#232F3E;gradientColor=none;strokeColor=#ffffff;fillColor=#232F3E;dashed=0;verticalLabelPosition=middle;verticalAlign=bottom;align=center;html=1;whiteSpace=wrap;fontSize=10;fontStyle=1;spacing=3;shape=mxgraph.aws4.productIcon;prIcon=mxgraph.aws4.ec2;" parent="1" vertex="1">
          <mxGeometry x="306" y="75" width="50" height="81.5" as="geometry" />
        </mxCell>
        <mxCell id="NjmknjeXAfmQ-sKLG7hu-14" value="Amazon S3" style="sketch=0;outlineConnect=0;fontColor=#232F3E;gradientColor=none;strokeColor=#ffffff;fillColor=#232F3E;dashed=0;verticalLabelPosition=middle;verticalAlign=bottom;align=center;html=1;whiteSpace=wrap;fontSize=10;fontStyle=1;spacing=3;shape=mxgraph.aws4.productIcon;prIcon=mxgraph.aws4.s3;" parent="1" vertex="1">
          <mxGeometry x="757.5" y="325.78" width="70" height="88.5" as="geometry" />
        </mxCell>
        <mxCell id="NjmknjeXAfmQ-sKLG7hu-15" value="Amazon RDS" style="sketch=0;outlineConnect=0;fontColor=#232F3E;gradientColor=none;strokeColor=#ffffff;fillColor=#232F3E;dashed=0;verticalLabelPosition=middle;verticalAlign=bottom;align=center;html=1;whiteSpace=wrap;fontSize=10;fontStyle=1;spacing=3;shape=mxgraph.aws4.productIcon;prIcon=mxgraph.aws4.rds;" parent="1" vertex="1">
          <mxGeometry x="793" y="216.35000000000002" width="70" height="89" as="geometry" />
        </mxCell>
        <mxCell id="NjmknjeXAfmQ-sKLG7hu-16" value="" style="shape=image;imageAspect=0;aspect=fixed;verticalLabelPosition=bottom;verticalAlign=top;image=data:image/png,iVBORw0KGgoAAAANSUhEUgAAAT4AAACfCAMAAABX0UX9AAAAhFBMVEUa29sQEBAPAAA5398QExMa4eEa3t4a4uIQDg4QCAgQCQkZ0dEYubka1NQQBQURMTETaGgZyMgYwMAVj48Ud3cWlpYUbW0XqqoRPT0SSUkUdnYYtrYXpKQRJycXrq4VhYUViYkRLS0SU1MWnJwQGBgTWVkTXl4QIyMQHR0SRUURNzcSUFCgU8ngAAAOq0lEQVR4nO2ch3arSBKGoYcOAoEkFK2EgiXb8vu/31ZoECh4we3ZnTvu/5yd2eGK9FFd9Vch3eCvwMtBHp+TPD4neXxO8vic5PE5yeNzksfnJI/PSR6fkzw+J3l8TvL4nOTxOcnjc5LH5ySPz0ken5M8Pid5fE7y+Jzk8TnJ43OSx+ckj89JHp+TPD4neXxO8vic5PE5yeNzksfnJI/PSR6fkzw+J3l8TvL4nOTxOcnjc5LH5ySPz0ken5M8Pid5fE7y+Jzk8TnJ43OSx+ckj89JHp+TPD4neXxO8vic1BWfkhoklXq8Xd5u/5erEz6lk3VxPpzOxTFX+kpK6nQ7np0Op+V4FejfRLADPqWOL6LS62yrJG3WybixPZd/18X+89Qen94OhDBhqViIyzSQSuczcbN9mP6aAGyNT05ERnwi/B/+I8zEfp5MgF0URrXNRrz39d95zf8gtcUnzxhhURTbNUrIwl4VeNV23jz/Jfxa4pNDgbElxGY2nc+PxUtGBEODTCHexGY4Xs/Xu0NGOI1Y/Y4E2A6fHguC8rGVaFoklNr1C0YaEIyMCJd9MjPgXtKdwI/GcfIr8l8rfGpEi1IUNbun9FTQshWiSGpmRY8uAj97+hXLtxU+eRK4Qsd1IrLfMxR6p6S5TlW6QK5i+xvCrw0+lWNCEzPd3BZDkGXieGeTVRLjx1+ehx8s838J2zb45AyWo3lPa5vUKOqhdXnPH0CSRwjWUOQPESkdJPmqP0pUiwZPNSTve8UW4n3bbu6oVosX66sYN9bohRboZvQY0R7YismD4qvT43nDFmdzPib/JT+q7WVx1cd5sh51b6pPsOuluL0WNcVDfyRdj3ajFvjUVmDVrQcf+hik96S8yjGEX29wh0+mBVSamKyNAaeYLZMv/Q1a9ZoQ+sexW8hA1cM997cPSn/S9r5j/LXAJ3fippLKNZq+XvQ49rhSQ1G5havnEdtq8DvUoBiRfemv5VJUzWBoOxoxWHWp6WQa4FHe4TtQAPwP8NGZ6mtXJeSNRf9p6Mi3GO70pvbKgqpNA0gsdl/AgOiLImpvam1hT9ytxC8E+GDPR/gytFeP8Sn0tq0O3wbfvgcnWtWs3ZCc3fT5jesz3LeYNi4BWEDoGeqVBS7hiNqWph1qykafiUnGEHsI61n7+OPoix9HX/QYnzou59siffAnd2pTOsDgReK6UFUfl6443Ng9WVurgAqisxElckoLFxu/j2VRDC/UnaCdfFyh7WGAsXkf7PeDwf4VkiUv+g7xR3nkGT7zJPqSYv5yaVVVWuBLyTPXruiFNjQzm0zOYl1todohlrWb5NvA1ToZQeMHHiQ/CQpAcXkaS/gUINiG9gMJNYoUf61z1pe570n0Bem6n89/KvpSCrbrBW3FnY9R+gjr8VpqMdSixhqTnxRsvbBf2mwF9hD5mRp22ChrA38K4qjCBy31mgc84qO5yyNfx0fifvMafUrxCQBf9Lx0tLaE7fDVow+fG+Ti+uF1/kFIq1oB+ID4rFZtaMEDqvooWk/pyJVBVDKdF8vJbpVagoQvrPDhLiuMx6gqS7jLblkcR1qpFGWvQAb98WQyzpWkqC+jD/7zWCx361SW0Sdpr6C88MZBWqhN7svwJstUAN0a3lI9YoJCYC2BPq1kA0W26Zv1TFCdODYWkT7BjsOyKMn8XA4NZyPa9R4fzX6g/ogzf2A0s7uc0y39m7CqYPzGmwdbcAmmrLxy9Wk/PtHcxuewF9i/jV2p4GfRXj7Pxt/AJyMsHeUhKR/Fmys8vd2wm4OrKeuLhpIZiV0t0l5jLLmX5nWp5DStpjVqUs38ISKprEPljW7wBeoN3Y8J6TTrchcj9kvgZKjaq9EFCzsPxIse4GZ8sjwDDjoOGc4v8znuVeWPBPYzRjzzs9/CpxcZnG9e3uVbDKetyMhkKHoIDy+32gyevpHTeOhw2/hRgqr+74HG2SE7ajYn6HWiG3wU2Pw4afHzDlBce5QUAZ8aGRGW7txwykV8+lyeAT9o2LqmfGGcpqm/CuNNe1/UBt+sFkqQxOphBunfjpcxArNFSeM9bpQ1tcYwir5YFXpofQzPr+GAhaboM7fR1xfkXeYKaxgCwn0MBiSGE0bf3vYqeCyy3JT7dMFQQ8MGErGLPixiJPZOF2aTxbK9LW+zeHEuKj75HvDhR9UwSh/YSUAyyakMMFYod2h2r6Vf2mn1UzMAbaCd+vcyfmFiwKhTorjFl/DoFjht6N0VnDzOhCUGmzk8cd1G73Qo9n125Ivj3fdY9OyS72ucDkXWfKoFtSIdJpVtRgYUcIZvXaPpqxahfOGa8ZFrNcAMyesVYhIuf3G9a7gljKiwcdirAg5XuJ1zP0227HHAnDwoHZCfcOQQQbNyxHNjD5LDPi8cvICP8YZisU2DUcH/AfjobQ11OaMgnV8E9TywQMgX8uKy3tS0cnyt8QUBuRJOfuxiykWIYYZ5HghgtSiLLZqqqF545Q6Dy8Q1eEk+yq1GSs05OsdYRxQdCs+im77P7ig4zDAlczHHfdSQ08OUqILp/FR0KMpmuHhTOxzP8eMyWBA/wMeHofWk1vS0Th1a6jb4sIO1MQA1AB9mFd2QUOy0Xh1pVcuSccOS4uJtdiqpqOlImS+qpjrQZdOrFf0g+tg4QZynHDb2D1XwFjPVMz2p8lR8CMC3FdQx2glFWcv6ivJKRMZM8lUcfxgfPRVOXBQmjTn8ZM7OA8Eas7GwsAbUjzDn2JhX+BIyDCwIun0c1Ww3LX5Mt8v73Cet8cv7nLRWdUOF+C4UTeeyU8ltz8svtir7SkkIqxvlaTayahNHYRfb0nLxphTomPDoWdXbiaBqsWhZU7lQAxw2L2s3XT7sCoSdeVX5HuvmtbJQhEEdfxh9aKPwszTEDauApmeMi5ej8Oo5Dfe8O6Qbv1WGa1LO+zDUKYr5IrNFlxFgK3zYM0TxW2BrwJOBB8344NHJuahqWSkJpQE3Vk82EVmcMUEoAwptYwMf3Qjgi25yHx4cD3TArBbVZrKcPhEfV5bqEl9NhD3vDpNdvKnhsz0vlzVoBMhhdJnmBG3f83KjBl6BJ1G37pc/tI/tXOsChiL7aA77eHJX2h/Q+bL42Bt+zT7Wm7g+/5BkE7PP++hTScZO6aj7XF+qfQobfZdefZ9q4nJjnfRnOXHBdpxryok2rX48+rA5xdYnpZduz/ANsB0ZKXyI0e2omcf3NEYob1frnIanBu/51OCk2X9NbvEpnb9nZIM30NxzCSnHOvh6Ck5LpQOiMrZ9v6aaD/hWbLHsjJczHsNXb5RYdpqy5GsHeG3xqZXg1oZivtHMXrXhxZtgsrkJPvslGTzGS05f51BSjUXMPQF7OLx5NiHYH0Tkadm4zHA+iEPC0YQbRKi7sBAWPIXY8j6TmnEJqXYgP52zlQPjwq2JoGGEUgeGj/ioQIFpyO8b7B/CR+FHl7q7GaVclWIsicSOcW+XgErCmFmJz/E2z+eTTVk8MFGlhlu/5SgI8jMBiAeKoy++LGeo06Ls+GnewqkKmBeQ/nAf8sFkm8miHHKl0qmJbc8Lzw8vMHtdg8nJX0R4jT7yhsbws1p3Wbtt8XGrFL8H5O4eGUt6J2MiRXFU+YarJHWo3JiRYvKzdM9jSV6H/uz1lTotGlJweay+/JYZ/gqhWPAhNz2e84i3N2GHBLWmDTYPjH1EPdu00cGiwZvt8cps+2pstx1dB3M/io9zCD5SeIbx+yN8c8CTfdBiuX9HiUc4cn9c+RUsqi/U6kEu5Wk09fPUHdAQBEcGtVdzkW1UX3i6SWekRizGPs5YD4QjA57CxL1yIGMaIwP8OKddxifP3HDDxnqn+ZP4wG/R8Oj8aqKHzpIWWnbY9J4ad7AaV4A8lfpUm2rwv6D4i5gIt04cfVGdHsRalXmhmvJ4hqHgQa8DK9rD8MAqLAdWoYnKhEFLgfGhZeSFET1J6z+Aj4Of//HoJNQ49LDzf7B0SXJ04i9VErtYZDsl32LDJk0FQ373ZtAMi4LCgptfnkZBWOIbztmoNro/2q+zAoh38ATYwNhxqbWUmSgwmuN9fVyKy+N0oua9XzXyITv39oPmbvjoqwW85MC8352EXSs9QzF4dgglV8Ne2ehuioTWLIh7ObmqvqB/5lcikBHrihbDddL4QpcclfP9z2QuqkOpYPxqT7INIvw3v1W9nmGCs20QLyMoK/xcH9zY1+rwwwS252HdPtX+cJDZNNUzXzSNSqar8WQ4K465bfeSJClfzdCLHPizdVKaQ5XUlKbq/stwMjlOhstxDmaIPlS9KloVs1mxBYuS4ubq46PpZDiZ4pAjqZ05SFLu+Wbd1m6nn8VA72bHt6Z3g0hzuYvIrn19CfQG8clXzVTzRWUbPdvlq82N7XwlNFIPazONdur0qyI8B0sMGm/zdFkEw96f9qVwla/BwktoBqOwq23p+ps2WL9s3iIxGFUrSdEXMGhZi+gP+00RGFqxWPfXlwdz7Rbq+JNAPcXXBPzKoEjoW/Zarz6vrwtHfxa9QEKThAW9RzHRaVyA6vqLSt1/F5Et/uKwO86Py0v5IxkjhkHX8/+fxfP5siB2LRzf+D0v+rMssi8TSb3yJXm2/uN+jAA9Zq/03WDiO+//jZ9D6+1FZJV/t08OUM6+/qbtP1NyvReVF+y++3d+Ta4CyLTU8kdcRzAMh/mf+VNoGWwnp5fP4fS/fU/9ob73Y3ypVsvXWj/wMU7+THgotoLfu/7v/l0G4JXy4+R8+DyAt09+3Y/wSzn8VRCK//4C/VvRofzfpOEkj89JHp+TPD4neXxO8vic5PE5yeNzksfnJI/PSR6fkzw+J3l8TvL4nOTxOcnjc5LH5ySPz0ken5M8Pid5fE7y+Jzk8TnJ43OSx+ckj89JHp+TPD4neXxO8vic5PE5yeNzksfnJI/PSR6fkzw+J3l8TvL4nOTxOcnjc5LH5ySPz0ken5M8Pid5fE7y+Jzk8TnJ43OSx+ckj89JHp+TPD4n/eXloP8Av1W4dCvEpP8AAAAASUVORK5CYII=;" parent="1" vertex="1">
          <mxGeometry x="113" y="208.75" width="97" height="48.5" as="geometry" />
        </mxCell>
        <mxCell id="NjmknjeXAfmQ-sKLG7hu-18" value="User" style="sketch=0;outlineConnect=0;fontColor=#232F3E;gradientColor=none;strokeColor=#232F3E;fillColor=#ffffff;dashed=0;verticalLabelPosition=bottom;verticalAlign=top;align=center;html=1;fontSize=12;fontStyle=0;aspect=fixed;shape=mxgraph.aws4.resourceIcon;resIcon=mxgraph.aws4.user;" parent="1" vertex="1">
          <mxGeometry x="10" y="225.75" width="60" height="60" as="geometry" />
        </mxCell>
        <mxCell id="NjmknjeXAfmQ-sKLG7hu-23" value="" style="rounded=1;whiteSpace=wrap;html=1;" parent="1" vertex="1">
          <mxGeometry x="430" y="214.79" width="210" height="104.5" as="geometry" />
        </mxCell>
        <mxCell id="NjmknjeXAfmQ-sKLG7hu-25" value="" style="rounded=1;whiteSpace=wrap;html=1;" parent="1" vertex="1">
          <mxGeometry x="261" y="200" width="120" height="130" as="geometry" />
        </mxCell>
        <mxCell id="NjmknjeXAfmQ-sKLG7hu-10" value="" style="shape=image;imageAspect=0;aspect=fixed;verticalLabelPosition=bottom;verticalAlign=top;image=data:image/png,iVBORw0KGgoAAAANSUhEUgAAASgAAACqCAMAAAAp1iJMAAAAwFBMVEX///8Ol0ghIiEAAAAAkjwAlEEPEQ8AlUQdHh10uYur07cbHBsAjjAYGRiMjIxGpmhKS0rp6el8fHxSU1JfX19XrXUrLCuczKzg4ODCwsILDQuam5oAjS8ABQAAkDfw8PD29vbLy8vV1dXm9Ou4uLiqqqo2NzZzc3OEhIQ+Pz7b29u74MjY7+DK5NM7o2FkZGT0//khn1RSsHR9w5cso1vN5dWKxJ9kuIKjzrCHwZovMC+6urqXl5d1dnW02MCt271valx2AAAKNElEQVR4nO2da0PaPBTHe2+RmwxRQCgFZFO8odOJc4/7/t/qaZu0zWmTUiBaV87/xYYhhPRHcnJy0qSKgkKhUCgUCoVCoVAoFAqFQqFQKBQKhUKhUCgUCvXZWt2UXYN/QtcPDXf0iKw26ObOtVVVtUe1VdlV+cpa1RoBpkBm46zs2nxdnbmmmshQr8uu0NfU9YOhAtnu3bzsSn09zduuraZlu7Wy6/XFtKpxMIWmykVTxQgaJyj3AU0VVcY4pfvfI5oqX/NHQa9j+l/jZ9m1LF8/c3odg8o8Krui5erILIIpNFVPz2VXtjw9P7kFMfmyGy8HaqrmL41NxinV/9xfZde5DP1qFO11iQzzvexqf7be7VyXQCj37qBM1fPdFsYJ6pBM1dbGCepgTNUuxgnqIAIw1+ZuxgnKvat4rPhmd+MEVe1Y8ao22sc4QVXYVOUFU3ZRRU3VtSrDOAFVMVZMl6Gko2pUy1RJNU5QlYoV/93bc8qToVbFVfg7+kBMatD/KmKpJLlOYpl3ZV+iFL1/OCi1Gk3qZ56BMg3DKGDAzPxcbiUcqpr4Eg2ztl6vX+wNroPtvqzXrzl+mFGJpQcxKHdNs9y287qn2SY960yYqeKgXGZYf28IOdntKNORiFS1QRnAU3wW+hCMpe4Jumi1Qbkw25GgTdm9JM+toElVGpSddn5e+RTYhrcSwJQIyptdtC59tS5mnrRCi0kEqp3O2ONmBD10V1DdU19aCyYOrCDxG5t00dV13Qrlvzi+YN+714Ls3fB1UNyps4DltZwgMfiSP02SwYMZOsMwWV/yK1kYlPLEM0FSQB03HV96HyQOdD9tyIBaDPWmxqiujxkWJ5afvUlANetBeWMIojUMygt/DS18fwh+BP/nCmsxvhRUsjiolckhJQdUPbjw5glIHOh+mhVfjHesaxnpxzGMkwBinYBywjet/yAoK0hrxUX7n56x71+EiY4jqmRxUMoNx0xJBKXpAzEoT7OynHy42kQISoOdiAFFMmv178zb3phThx1B8eaFMkE5v8WgrqJe1wzMk27Ff16JQTWPRaA6tEmdJ2//sDiteldQyq8MKZmgNJ21vwDUOe13lt5tDXy1TvShBi6WA0rT3wSgovL0TvTulCZMFJG2AqW8pGd0UkFpuicANabvX8ZXNmnp4DM8UI4mAqX8DvM076N3T510E9sPlHKXyi4XlMUMRCyoN51jQGY0kXgJPFDa+I8I1AyW2BpmjNaeoFY2HPrkgmLtLwvqW2hAxinPaBFeLB3cuKDYrgRBUZtE21yfNwzuByo99EkGVU/sLwvqKsiQHbnDa60Tc84HZf2IM6dAeYQNcaxIBayUYwW1LSjlGuCQDIqxvywotukwIg3NCl/zQTGNJAWKtkctcHPpy3FuJYuAgjs5wNAnEVT4j9MUghpmLO0itCy6AFSdaW8cUKSZBj7EBBi7fUC1X+BHmKFPHqh6twnsbxFQ4cRPAIqWF19+BlRkmN5+hBnp9GcvUL0RXMZkhj55oPTplcPa3wKgpt+CSMIlH5S+dIL/HUsESvlGXLEhcV4Tn2oPUPYIrA94ajz0yQRFhuzItykAilUWVIfM3oaUTRaU0mSM2biVKRKqGKjUktM8NlMyQdEpmP8i0N6g+tT20abCAfWWzLOd0w11LArKtsHtFrdRaFgqKDIFc4jbJwEUbaJk/sYBpXTjuA39dXJUEFR6vTdac5EKijrIZMonAZRybyUQeKAmUZOy7rMlplQUlGpwhz65oBQrvMZhkCgG1dGhPCEoAoJ0Kx4o5ZxOrYfiyfDWoNTUzYZt8wNAUft7uQGUxor4iVxQyvk4bqJcUPek7zV/KBtVHJTagDs4wqFPMijqBQb2VwqoKCrg8UFNo5I2m6htQKkNcKvTvPEBoJbE/nZlgSJR36AYHqjTOCCTFzfYHpRtZoY+2aDorN7/Qw4oOrD5f3BAnScF5UWitgel2k/gs2tXPigvsr95oIZEVgFQ/aiJZkFNWOA5sc0dQKlGD37YkA6KTuX1xXSze3Ax3gxKuSQux/RPBhTxbzUy8OVEy3cBpbqv4NNtVzooajicMDSwYVJcBBQJIzvfMy0qCpMvNq2/7ARKbcCrVuWDohdgaZJAkSbqhM2HBaURn+2Strl49iwJlNoAexfn8kFFXSINKu0D+b3KKgJK+c5EPJMyiCV36iwyqaBUQ3hLpiRQfT0NKrwS5yr9uTAuQ0f2HFAznQMqitYFHS5au+grOdoeVGrokw+KTvkYUMSBTsf+wZw3B1TkfwNQJI3GdOjKMVgwTWt7UKrZE5QlC5RXdyAoYowcDQzhHlmbo6YrD1TiB8Sg4IJntHIMg8Getyco1RCcMSILFJ3yJaDolTY1pk3NfjfZDpMHik75WFCpBc8/dORj0Exmnc6U+WV2AaW6/EuXBipel4lWkP4jvqWjnyxmnq/ZoqvTe1bofDYXVBzLhEvqycoDXTlmVrcmy0mnr0wTcjuBUhu3Hwsqsr8RKE+PbrwYk9DKODI7kUedD2qgA1CRJU+WW6OuGDfZmTLwvKmSNOHdQPGHPnmg6JQvWZOcwfldrPhT+aCU4yYLigT0gD9AV47jG2o6ynTp97ykUjuCsh8+FhT9zZPF2ym83Y62r5TzJQZFXQ4Capq4UOkvjK1W0KIms/1blGpylpIlgqJWhFnlnnTTqJr6cbLEtAEUdb8JKGKQUnOWBRgHlUl/Ehgqb29QqpE9CXBXUN9Ds5Oaa2lhIht6nJ4Ed5AFq3WOE9xPdsKi7YbZiXUmZgyC8khi0Nta5GV6wfM3SY6cqf7Mb1HMWt/OoJItIHuD6oTyYKIXJsLghzdodU99TNppt/UG809IIUx5qS9Jyutwv49m6DDuF/jyIveZt/lbEkapoe8T7jMvUcKdC0wwU7RxyoVD30HuXFCNpGO9i0DZKggNH+ZemMRTmot39NnszmrhPrSKg7JNYoKe7Zx9jXajRnl6tUPdrxcc2nN2dNYWb9ULZTaefq6Pzno5B5ZUHpRqG4ax+egI29yQrRp7io+kn8mSUTV2qX/8uQeZrX//qPAkjaLCs1mKCk/7KSxph9tB2Y2XSp0fFehjTiSrTq9j9AvPuCsoPDWxsCSew1k94wT1jie7FpWEs4LtqhonqHkPT58uqK0etgB1SOeZB/q7o6ly71LrDf1Zf5m3Ufff1+tOz1z4myql3+n0J97mm93/Zc0ft36Kx2vGJZgpA2U26Xsl1P8Tdfuw1XNhelnj5C2Vi/40uOGh4lobRU2V+8S9D2jpt6ipN6k8qODZVUX6n2FkVteJZj6qqtsoqpsCT0NzxU9Dm3YUb+p9Wm1L1X7P15ssD6DfRcp7yICBT2xkxDygON3rqhXp3V833KfKVuxJAXKUiRVX8dkTcnQGZjXVjfTuLyZWbI7QOOWJPhal2k9ckqPrh5E7ejyASO/+WiElFAqFQqFQKBQKhUKhUCgUCoVCoVAoFAqFQqFQof4HSHflCl7+k/oAAAAASUVORK5CYII=;" parent="1" vertex="1">
          <mxGeometry x="277" y="206.75" width="90" height="51.69" as="geometry" />
        </mxCell>
        <mxCell id="NjmknjeXAfmQ-sKLG7hu-29" value="" style="endArrow=classic;html=1;rounded=0;startArrow=classic;startFill=1;" parent="1" edge="1">
          <mxGeometry width="50" height="50" relative="1" as="geometry">
            <mxPoint x="220" y="262" as="sourcePoint" />
            <mxPoint x="260" y="262" as="targetPoint" />
          </mxGeometry>
        </mxCell>
        <mxCell id="NjmknjeXAfmQ-sKLG7hu-32" value="" style="endArrow=classic;html=1;rounded=0;startArrow=classic;startFill=1;" parent="1" edge="1">
          <mxGeometry width="50" height="50" relative="1" as="geometry">
            <mxPoint x="382" y="262.76" as="sourcePoint" />
            <mxPoint x="412" y="263.21" as="targetPoint" />
          </mxGeometry>
        </mxCell>
        <mxCell id="NjmknjeXAfmQ-sKLG7hu-36" value="" style="endArrow=classic;html=1;rounded=0;startArrow=classic;startFill=1;" parent="1" edge="1">
          <mxGeometry width="50" height="50" relative="1" as="geometry">
            <mxPoint x="69" y="260.46" as="sourcePoint" />
            <mxPoint x="99" y="260.90999999999997" as="targetPoint" />
          </mxGeometry>
        </mxCell>
        <mxCell id="NjmknjeXAfmQ-sKLG7hu-38" value="" style="edgeStyle=elbowEdgeStyle;elbow=horizontal;endArrow=classic;html=1;curved=0;rounded=0;endSize=8;startSize=8;startArrow=classic;startFill=1;" parent="1" edge="1">
          <mxGeometry width="50" height="50" relative="1" as="geometry">
            <mxPoint x="640" y="270" as="sourcePoint" />
            <mxPoint x="710" y="257.25" as="targetPoint" />
            <Array as="points">
              <mxPoint x="660" y="260" />
            </Array>
          </mxGeometry>
        </mxCell>
        <mxCell id="NjmknjeXAfmQ-sKLG7hu-39" value="" style="edgeStyle=elbowEdgeStyle;elbow=horizontal;endArrow=classic;html=1;curved=0;rounded=0;endSize=8;startSize=8;startArrow=none;startFill=0;" parent="1" edge="1">
          <mxGeometry width="50" height="50" relative="1" as="geometry">
            <mxPoint x="640" y="292" as="sourcePoint" />
            <mxPoint x="750" y="360" as="targetPoint" />
            <Array as="points">
              <mxPoint x="660" y="330" />
            </Array>
          </mxGeometry>
        </mxCell>
        <mxCell id="NjmknjeXAfmQ-sKLG7hu-47" value="" style="edgeStyle=elbowEdgeStyle;elbow=vertical;endArrow=classic;html=1;curved=0;rounded=0;endSize=8;startSize=8;" parent="1" edge="1">
          <mxGeometry width="50" height="50" relative="1" as="geometry">
            <mxPoint x="425" y="441" as="sourcePoint" />
            <mxPoint x="40" y="321" as="targetPoint" />
            <Array as="points">
              <mxPoint x="50" y="441" />
            </Array>
          </mxGeometry>
        </mxCell>
        <mxCell id="NjmknjeXAfmQ-sKLG7hu-48" value="" style="edgeStyle=elbowEdgeStyle;elbow=vertical;endArrow=classic;html=1;curved=0;rounded=0;endSize=8;startSize=8;" parent="1" edge="1">
          <mxGeometry width="50" height="50" relative="1" as="geometry">
            <mxPoint x="790" y="420" as="sourcePoint" />
            <mxPoint x="495" y="441.5" as="targetPoint" />
            <Array as="points">
              <mxPoint x="770" y="441.5" />
            </Array>
          </mxGeometry>
        </mxCell>
        <mxCell id="NjmknjeXAfmQ-sKLG7hu-11" value="Amazon Cloudfront" style="sketch=0;outlineConnect=0;fontColor=#232F3E;gradientColor=none;strokeColor=#ffffff;fillColor=#232F3E;dashed=0;verticalLabelPosition=middle;verticalAlign=bottom;align=center;html=1;whiteSpace=wrap;fontSize=10;fontStyle=1;spacing=3;shape=mxgraph.aws4.productIcon;prIcon=mxgraph.aws4.cloudfront;" parent="1" vertex="1">
          <mxGeometry x="425" y="410" width="70" height="100" as="geometry" />
        </mxCell>
        <mxCell id="gEV-0_07iIvLEzTvhgMC-1" value="" style="shape=image;verticalLabelPosition=bottom;labelBackgroundColor=default;verticalAlign=top;aspect=fixed;imageAspect=0;image=data:image/png,iVBORw0KGgoAAAANSUhEUgAAARMAAAC3CAIAAAC+MS2jAAAAAXNSR0IArs4c6QAAGFlJREFUeAHtnU1oG9mWx7XqXj9mYbx7O3khbYSRR5YfWF40Mia0A4NDb8T0ZkBGosGLIHc2giZE7teP2bjogUAxNfAg8whUpxkb9zzkRXeQexPZWSjQTS1CmlQWrpUghsK078zVcU7uu/UhuT7kcuWIQr4q1/363/Orc79KyjB6kQKkwNUVyFw9CsUgBUgBRuSQEZACQRQgcoKoRnFIASKHbIAUCKIAkRNENYpDChA5ZAOkQBAFiJwgqlEcUoDIIRsgBYIoQOQEUY3ikAJEDtkAKRBEASIniGoUhxQgcsgGSIEgChA5QVSjOKQAkUM2QAoEUYDICaIaxSEFiByyAVIgiAJEThDVKA4pQOSQDZACQRQgcoKoRnFIASKHbIAUCKIAkRNENYpDChA5ZAOkQBAFiJwgqlEcUoDIIRsgBYIoQOQEUY3ikAJEDtkAKRBEASIniGoUhxQgcsgGSIEgChA5QVSjOKQAkUM2QAoEUYDICaIaxSEFiByyAVIgiAJEThDVKA4pQOSQDZACQRQgcoKoRnFIASKHbIAUCKIAkRNENYpDChA5ZAOkQBAFiJwgqlEcUoDIIRsgBYIoQOQEUY3ikAJEDtkAKRBEASIniGoUhxQgcsgGSIEgChA5QVSjOKQAkUM2QAoEUYDICaIaxSEFiByyAVIgiAJEThDVKA4pQOSQDZACQRQgcoKoRnFIASKHbCBSBd6eMuuEPX/Mjr5hPzQvj5/aF89U9qrHhq8jzew6EyNyrlP99ORtnbCf2kyZY/cybDvD7mZYaxRojQJ3R2e2M/y/f/4Dx+lVj52f3ejqEzk3uvmuu/DD1xyY+xm2NTrujmi5NyLE9X17BBJcfC/DfmhenP563XUImD+RE1C4Dzra+Rm3+Cd3uQ/ZGsHgyon/ydYo7nbmQq+z305unAsicj5oBIJUfvia9R5e+hnogPkT4v/f7RE/9zMX3a9vlv8hcoIYz4cb51WPaZ8F9zNeFIH/ebh68cvfb4q2RM5NaanrLuf52cXxd5euxguAkOe3Mjz93sMb0XMjcq7bIm9E/m9PuUHfG02RhcTDP/pd3nm76H7N3p4mXBgiJ+ENlIDinZ/9fjjCpuU9aebPw5X+C5Pa+pcJ9zxETgJMM9lF+P3pf7GvZvn6zJUACHPxNp/d5p4nwS8iJ8GNk4Ci8bHNV7N8ZTMMCQHiwqxd72ECNHAvApHjrgud5Qr8dsL+ff4asAHS7mbY/XxiZ9uIHGLEQ4G3p0z/kk9AB/AYUUXZyvz+n/+WzN1uRI6H3Xzwp3k/bWvcbpqoCPFKZ7ROyucnkvcicpLXJkko0fD1dfbTRJDuZnhJXvWSoIpYBiJHVOODCZ+f8QUTPBzbli8djmjB1xiGFR5HIa+3tYic69V/2rlfnP7Kqeg95Ps1R8dF92s+7yw+PPP2lD8vMP35NC84we38djJtsXzzI3J85UnRPy9Of+UDhoer/PkZ2Ocvvt8fjcWfP+brj/9P0fVODDgR2spwvJPkdoicFMHhXRU+t6t9xt2I1yM0sOfyXobPp8GVTvO9xjNbGV6qJG3JIXK8zS01/3n++HK4P/ahANj5Mvay6SMERUpSh43ISQ0f7hXh3uYaVzMjZGwrw0doiXkROYlpihgKwp8VS2DXKxhOW6OnR6HDdn527WMeIicGg01MknxKwGtgE8x8rzHWVob9b5sDY52w7z5i3+fZ3iese5v9/AUb7LI3T6c8CiJyEmPmkRfkVS8l/TR8LgjGOT9/wR5l2OOP+fEo8/54/DEH6eWT6bgjIidyg01KgnwaN2mTy4Fd1laG/fe/XHqV7/PvyQF+8B1A+u6jKfBD5CTF0CMuRxL2awbmRIoIM37PH3OJ3jz1xEbiZ++TWL/VjciJ2GITkhyfG/iPf07QPgAJhit9vJvhexqgq/bswXhysCP3+GP27EFMW62JnISYetTF+O2EfxtGAldmrsQMXLw1Wp+FWbXu7UnJwVHQj5/H8X1URE7UJpuQ9FJDzt0M+2r28vk264RPqeH0AHbP/AOPMiwGeIichFh61MX47YR/g3Nydm0GcDXvHM77h9tePmF/++PlrJo/LdJ/Y4CHyInaZJORXkrGOaNd0u8fqP7lrwHJgZ7bz19EuOZD5CTD0iMpxdtTPht79A3/pmbtM/7NGzd6nDP6NYR/+AacMOQAPIPdqFZ7iJxIbPa6E3nV47T85U+cFvgdjhvNzL13P3kAmwZQ3TdPuc+56jgHe26j1Z6oZguIHGyWGxngT6rpdU4L/F7N6JvKrvM7NwKPZ8SIo2/65D+zI73Oz/iOm8DkgNv5Pi+lGuwjkRNMt0TE4j+EBr/DcdM9DGAD2G+NJtOeqe4SWyeXm27Qk1w18CjDfvmre+JXOUvkXEWt5Fz79pQPAAL/do14gxetFmw3vnf4CTfx59zwDDx1dz/Pd9n4/igi727tfXLZbRP3rTnDrlA9yvANo6FfRE5oCaefAGITiauB31FDC/bBxsmbeOarWT7K8jru55nX8Zc/8RHat5/yrdATfsfN+Rn3Gz9/wbd47n3y/vg+zxd8/vbHy8OVHOizvXkast2InJACTj36+Rn//o2ovgkNONE+41brOPivQf3jwX83F4/eQz6P90wde/Af3BWOi1/+jgdH5VWPu5Fg3zHw9pQ7qOFrnoJ1wne1vXnKJxhfPuFoeS2bjpZ3QrYckRNSwKlHf/44ykdu4HvWnz/mCx3wuJj/O2MBTTw+nbDA8CVYI5A4TmM3HARj9V1FiJx3StyIv29PeXcowp0B0N/79lP+DVL6lz6H5HzEj9wHjj0EnyP6H/b8MV/ovNIXDMDDbeBVBrv8sbZnD/jx8xeXx4+fsx8/HzML9yjDvVOIF5ETQrzpR/2hGf0jN7CHHyaCxe+RgjCch+G76zsOkMRpcRwsiQMhr/BXs+zbTzmKY3+n+vyMd8OePQg1QwCDn0cZjlyIF5ETQrwpR317GmU/zcuOJzmPYAQIiKRBGIF8uOo3Q2CdcJcCQxecRvOaAxh7/lGGpxbiReSEEG/KUY++id7hTMLJdK6B70/88x/cp6RfPrnsfYVZBhVxCj1JQORM2fxDZJeob6yNCaetjLx1ACagw2y6EYHB8KMMn9EO8SJyQog3zajD13z7ZiQLODEZfSTJbmX4wxHi6+WTsJsGkBYx8CjDnViIF5ETQrwpRuUTUBFOqUVi5XEkAnVEYa2TUFs8RVSkMPkcFDnlgZ/aHwo599/dzYev+eRyVAMbJzk/fh7GZt6VMkwaFHcKCvzQ/CDI2cqw3X+6lPPlk7iwgQ04zx6EaTciJ4x6U4z7P//6oZADDxecn/ERfEwOB8h5+SRM+xE5YdSbYtwPwefAxDRs+hy+dpkYCAkSRoflIN8d2WOblsgZK1EyLoDFHFw0TGVgK8O/6Qq2k8FzON99xJ8IiOMIN7HGGCNykgHG2FIMX+PvE6Y5AF/kyRjfgQobn2N6t8L+diKRM9ZmE3MB/iBuigOJEXtsQYicsRLRBaSAiwJEjosodIoUGKsAkTNWIrqAFHBRgMhxEYVOkQJjFSByxkpEF5ACLgoQOS6i0ClSYKwCsZBj27ZlWaZpGoZhmqZlWbZtjy0KY2w4HFrCa5IoPtdYlmUYxovBoN8/7vePDcOItiQTlla6DOo3HL0mlAXr6JqUINj74HA4xFhiAJoGr7tqAcSkIGzbtim8DMNwXuN1RioMlgoCw+FwwuL5p+NMVioPtIV0cuzHiMmxLKvXO9I0rd1uNxuNen2z1drudHZ0Xe/3j72aE0ppWZaiKJ3ODh6WZY2tgOsFhmHout7p7NTrm+vrt6vV1bW1W7Vard1u67puGIZ/k5imqaoqFkPZVZzX27at63q73YbL2u22V2mhJJgaBpRdRVXVg/29fv/YK65UOxAWU/AJqKpqmqYUnTHW7x9jmTudnV7vyHnNlc5Ags1Go9lotFrb9frmi8FgwhQMw/CpgqIomqZ1u4dj26vXO/JJR/rXwf6eWDzTNHu9o37/2FUu8UopHCU5vd5Ru91eW7tVLC4Uiwul0mK5vFQqLcLHjY07iqL4yGqa5trarUJhHq5fXq5ctTKMMdu2D/b3mo3G8nKlUJiHMpTLS3AUiwvl8lK9vqnrug/GhmHU65u5XL5YXCgU5iuVFSc5w+Gw09nJZuegtDMzs16lbbW2sVJwMSQL7+Xy0sbGnU5np9s9dOYitVaz0YBSYTqugUJhvlarud7+D/b3ZmZmIVYul9d1XcriSh9t21ZVVSxSNjvXam1PmEi/f+xUBmsE/6pUVsa2l67rYhkwBWcgl8t3OjtYvOFw2O0e6rre7R6OvbNjLAhERo6u6xsbd8A0l5crzgMoqtc3+/1jqRDw0TTNjY075fISxF1bu+Vli67RARtN0wBdZwEqlRU4WSwuVKurmqZ5wWMYRrPRKBYXKpWVcnlpff2206aBnGJxAdLMZue8Sttut7FScDGUBMtTLi9BkVydm1jZVmsbc8QKVior0gF3By9ystk5yLpcXgpJjigUlmfyW16/fyzG8gpDQ6iq6tVeuq5LCnslVSotiuRYlqWPXv3+ca93NKHnhxaJhpxu97BSWSmVFrHEYA2FwnyhMF8uL6GVFIsLtVrN1fOEJ6fbPVxerogi4n2rVFrM5fL4Lwgc7O85kWCMoUFAatGSUyjM53J5UMapWKez41okaC2JHKhULpeXjmx2zkvkg/09JKdUWgxJzsH+nlgFaP1SaVFRFBF4r7CTHKl3IJpTubzk1beUyCmXl1Bh0Bnfs9k5kRzbtnu9I/Q5Pso7qxABOaZpQoWxnrlcvlarKbu8n6rsKqXSIvR54IJCYd51VBCSHNM0q9VVZAP6aaqqvhgMYK5C1/VqdRVuYMvLlVJp0cutxUdOtbqq7Cq6rnNlFKVWq0leulxe0jTN2U5wRiIHhm1w15Teu91D1ztohOSYpimVB9oX+p9e/kGsmkROtbpar2/C0Wptr6/fzuXyaFSFwnyrte2arEgO+Nte76jbPXQ9JFds2zbMY10Jm2j2SkM/HjsA5fKSqqpis4HEuVwePU+hMN/tHooiMsZCkqPsKih0qbS4vn671zuS5DAMA4wV2iOXy6uqKl0Tn8+Bjp/YqbNtu9s9XFu7hcCXy0u1Wk28RlRJslRpsCte6RWOkJx+/1h0OGI3slJZmcSbieSUSovNRgMmP+3RazgcapqGWZTLS9XqqmhXWEeRnGJxQfQqeE3kgbA+x7KsmZlZRKJYXHC9Zdq23ensQH8JnGmrtS2pEIac4XAI3UJAolhc8LKqXu8I27hcXlpbuyUVY5rkQHO+GAxEeCqVFVcNGWMSOc67z1j7iIqc4XCoKEqhMA+CVyor7Xa7Wl2Fj4CB85YkFc9JjuRS4J6L8BSLC5LHgARvJDliSxSLC63Wttf90jTNtvDqdHYkkw1DzovBIJudw2ar1zddJWaMWZbVbrcRnlwu77xy8t4ams4kMwROn4OW1G630T5KpcV2u+1qdhI5MPVsOF6mabpGZ4yJ7RVmnGMYBnTRK5UVaHfLsur1TXCeUFOvYQnWehJymo0GKDOhz4GsO50dwdbeB71GtlikyQNhfY5ohcXiwoRDQ9fyhSHnYH8Pu2rgryUsMUeYSEWLz+XyzgaePjm6rovkeHXoJXJcZwiy2blqddVZKVAgEnJs29Y0Lfeu+10ozEPf7GB/D29JMIvlBTAUxkkO9taGwyGsqqEsxeJCs9GQnBKkI/ocmNTBKQExANMD/kVCOxkbCEsO3hJgzK2qHj9SN7Yg4cY5VyJH07SoyEFDCelzxLYvlRYnJAd8rPQOA/RYybEsa339NrqXjY074LeHwyFO0sCAzXUSFW1BJAeKrSh8dRgWfGFxD2oHU7VevVNRPUkN8SO/s7stamN5rhQIS47T5wRmOozP6XYPRZ/TbDScfTDQReqg53J55/oSrIRiJyGqWWmf3pqqqnhznZwcsCdpva9QmIfZEVc7iMTndLuH2DeGjga6AmX3/eDHf54QNjSIlr28XIHVYXAUOGsC06TKroK5SFVzkiMtcMHHcnkpQeSA14b6+49zLMvqdg97vSOYMXwxGEiMhSHHNE1sy+XlSqWy4nV/EqkAz+4cmInXQPs520waL2Wzc179Q1wJ9SLHtu1mo4GGAg0sGQd8lHpr9fqmtLUEPiq7iteNIzw5tm3X65vobMvlJZwcP9jf63R20J/724MrObi8gXNOuOfDS17GmEgOXH+wv+c8YAuYq7ABTob1OYZhoMnCGM51OhJW3JeXK9XqKiyqaJoWITm2bW9s3MHbNvSJnV0F6KBjq3t1nWEyAy9z9UsvBoNarYbmnsvlpepgY/iTA/vfRENZW7vlhb1EDuwhknY0Wpbls1cyPDniZAx6DNgggvrDeVgB95rkdJJTqaxsbNyp1WqYLHghH28DIovk3JhZacaYuEJSKi1ubNyRdoWZptnp7ODtpFRarFZXnX2kMD4Hbjy4Og6DLtjvZJombIY1DENVVXH+N5udc7VRqUdXKi1KayxQI2xg2BiBqEgBkZy1tVvgbGEEDFsVcWyAxfa6v4rkVCorPkYplQE/iuQE230Dy3dYd/9AoTDvnETFwkjjHNiZZRiG2PeG8Y/TWjARyecUiwvtdlv8b0zhsD6HMfZiMJiZmUUFYZGk1dpWVVXXdWVXwclKuMZr/VEiB5YInL2RdrutaZrTtizLajYa4mYFQLRe34RtvLVaDfahQXcul8u7bmUAoQ/298SNPMXiQr2+qSh8+V9V1WajgWsXlcpKNjvn6mkhKSQH8oX947CRHPbpoeOCm4vX4F5azwlPzvJyxau/BztQnTZnWRZ2MYDznGPvTy6XR+cDHVQvuxfJgdEd+m1VVfE+WCjMNxsNZ6caiyf6HCDNaTZwBjqWGDFMIAJyGGOapomCgs3BsEy0v+Xlio+9SuRARDAm8R12Ybjq+GIwgOUF7PxAIrhjGvGG3cTO7hxKCcMY7LJjLSBltHXYrVcuLzkHQpiUSA6WRyoSJOtPYBzkeIkMG0GwChhQFL5RA0oL607w7JP0DvtlQe1CYd7ZM4cEJXLESWfLsmAD8dhEJJ8D14sGI4ZzufzkW7mx1q6BaMixbVvZVWZmZtGk0EYxAFsHfG4eTnIwrhjwH3f2+8dra7dwnk2MCGEoxsbGHa8bIcr0YjDY2LgjwuNMrVRanJmZ9U9KIseZCDwQMTMz6+O4oFTR9tZcS4InnQsMtm1jx9J/7lscC0EH3nXGwoccGAXh7bhcXioU5r3udKLPwfK7BiLsy0VDDrTrwf4ejP5FyiFcKi1WKiuK4jmxCPvW1tdvww5IZwp4xsfnQDFwEIL3dSzDZTG85zcRGwjAJBs+a4RlgECxuLC2dssfG3QUUlyxbJXKis9gQCwSdEexOoHHOVJhXD86F7V1XYctTmDHXhsd4NneWq2GF4MvxZ4Y1giez4HcC4X5en1TdN0wnZPNzuEFPvvWxpoNJJI4n4NamKapaVqz0agJLxghuN51MCLsi1F2lfc7JTxCrda26zhHTAr2nmmaBk8p1mq1en0T+riu3TwprvQRntgTKsSDzUZjkmJAV9ZZFeh2q6ra7R6K5iJlLX2EJUJMbSy0UnS4kbda25iCT8A5dyK1js94TMoImsxZTcMwsABwjUQXf0xYMIlmo+EsFWMMGgiT8gm0WttjHbtTNNczUfoc1wzoJCmQSgWInFQ2K1UqdgWInNglpgxSqQCRk8pmpUrFrgCRE7vElEEqFSByUtmsVKnYFSByYpeYMkilAkROKpuVKhW7AkRO7BJTBqlUgMhJZbNSpWJXgMiJXWLKIJUKEDmpbFaqVOwKEDmxS0wZpFIBIieVzUqVil0BIid2iSmDVCpA5KSyWalSsStA5MQuMWWQSgWInFQ2K1UqdgWInNglpgxSqQCRk8pmpUrFrgCRE7vElEEqFSByUtmsVKnYFSByYpeYMkilAkROKpuVKhW7AkRO7BJTBqlUgMhJZbNSpWJXgMiJXWLKIJUKEDmpbFaqVOwKEDmxS0wZpFIBIieVzUqVil0BIid2iSmDVCpA5KSyWalSsStA5MQuMWWQSgWInFQ2K1UqdgWInNglpgxSqQCRk8pmpUrFrgCRE7vElEEqFSByUtmsVKnYFSByYpeYMkilAkROKpuVKhW7AkRO7BJTBqlUgMhJZbNSpWJXgMiJXWLKIJUKEDmpbFaqVOwKEDmxS0wZpFIBIieVzUqVil0BIid2iSmDVCpA5KSyWalSsStA5MQuMWWQSgWInFQ2K1UqdgWInNglpgxSqQCRk8pmpUrFrsD/AY0IzYh5iKLpAAAAAElFTkSuQmCC;" vertex="1" parent="1">
          <mxGeometry x="113.3" y="261.44" width="96.7" height="64.34" as="geometry" />
        </mxCell>
        <mxCell id="gEV-0_07iIvLEzTvhgMC-3" value="" style="shape=image;verticalLabelPosition=bottom;labelBackgroundColor=default;verticalAlign=top;aspect=fixed;imageAspect=0;image=data:image/png,iVBORw0KGgoAAAANSUhEUgAAATYAAACjCAIAAACPAqW6AAAgAElEQVR4Ae1dz0sjTfP//iXvzXNyC0LAmxev4ukFPcwhQYT1oCdzDB5yWfEgeFpkEQR1SPyBGlzdsCLBdVHiQWWDoItCghCMGIk/+vtovU9tPz3dNZ2Z0SfZ9CJLZzLprq6uT1d1dXX1/zHzz3DAcKCJOfB/TUybIc1wwHCAGYgaITAcaGoOGIg29fAY4gwHDESNDBgONDUHDESbengMcYYDBqJGBgwHmpoDBqJNPTyGOMMBA1EjA4YDTc0BA9GmHh5DnOGAgaiRAcOBpuaAgWhTD48hznDAQNTIgOFAU3PAQLSph8cQZzhgIGpkwHCgqTlgINrUw2OIMxwwEDUyYDjQ1BwwEG3q4Wkr4vLn2VQuPrbRN51PFK+P2qrvRGcNRAnmmK/eiQPP7GlyZ8SyQ/F052AmGktHLDv85ef8OzXf3M0YiDb3+LQHdavHM5YdGlrqwr/BTNSyw0aXMmayLrQHBpq5l8/saXStZzATRXxCIZaOfP6RambK34c2o0Xfh8+mFSUH6o/3/QsdAj6Hlrri6c7JnRHlz9rmCwPRthnqZu3oM3saWo5Kteh0PtGsVL8fXQai78dr05KKA9P5RCwdERSpZYf2LjZVP2mf5wai7TPWzdvTSq08vNIdS0cGMy/qFHxF0/nEM3tqXqLfizID0ffitGmH5EClVp7OJ4ZXuodXuhPZ3tXjmfrjPfmLdvnSQLRdRrol+ll7uK3UykZ58oNlIMpzw5QNB5qOAwaiTTckhiDDAZ4DBqI8N0zZcKDpOGAg2nRDYggyHOA58E4QrT3cXt6cnZYO/vW/4vVRpVbmWdBu5frjfaVWLlV/3dWr7db3t+vvM3sqVX/hn747+pk91R5uCcLeFqLP7On7+dfpfGJoqSuWjjTJ32AmmsrFc8XMvyKjxeuj9ZPZ6XxibKMP9hiGV7rHNvo+fvswdziRK2Yub840B/jy5mxyZwQqmc4nLm/OVCN9V6/uXWx+2k8msr1DS12w9wihAuPb1mJhqnC1q9koNvHMntZPZqEXya2BLz/npZ7YSq385ef85M7I6FoP9FS6oVJ/vF8sTCWyvcMr3alcXBW0UH+8x0aJ1xhjpeqvXDHzaT+Z3BqApodXupNbA9P5xPrJbCAB+s/s6bR0sFiYSm4NIFeRt+Pb1urxDDEolVr5035yeKV7aKlrbKMvV8wgb/nCG0J072Izke2NpSNwwkiIHfl3P8bTnZYdHl7plooLz6CgyvXH+1wxk8j2QtPAE9ypH8xE4+lOmMIGM9FEtvfzjxQtRoWr3aHll3NbUAn89rR0IBBcqZUXC1Ojaz2WHcaXkfl8u4ls7/rJrOa09ffxsTB2wbLDQrDBXb36+UdqaKnLssN8fy07/PHbB35GqD/eJ7K9lv2/2l5ZFFo9nhH6Un+8//jtg/Da3OGE8Frx+ujjtw9wqA27jHQin5NbA9/Pvwq/1fwIozm20YdDJgQwImPj6c5ULu4cyr+smNG1Hp48yw45+/JWJ11qD7fT+QSwEqWhCQsQxTK+bRFTneaY0a+dlg7GNvr0GYLildwa2LvY5KUZGqo93I5t9MXTnTxXQUp4Sr6ff0U54N+UloEbo2s9+fMsX4m0/OXnvGWHhXosO4SHPAtXuxgwJLwGoOWVxmJhSlqbMOOsn8wKZ9ZeqwoVrnaByPrj/dzhBMDG2ajwBObKyZ2RUvWXtI+qh4Wr3YZGEyaFucMJ3sqY3BlxxjzG0hGhy28C0UqtnNwacHJcYFDzfIynO4dXup2sUY1Qo8+//JwHU8JDl0GMklsDwiRSvD5yCuvQUlf/Qgd2ZPV4BibphtqF2eHTfpJWp6lcXJgg4GzK+LbFGAMAC4qFJyOWjmCI/DN7Gl7pdr4sHEZ7Zk/j25az0Vg68mk/yRir1MqgY/mGXMuxdCSR7RXYqxriZ/a0WJjyNpqWHR7ftoCrtYdbJz5h5losTAmtB2zo1h5uk1sD0uZdmfUvvgAo1RwngYP0x1wxo688VRwAueS9XHsXm1KIWnYYdODc4YSfWTKWjqRycb5FvpvP7CmR7XWCajATTW4NFK52pbTxvYunOz9++wB1wkkX/lsoC4fRwBh2NgpVVWrlVC7uTfDi6c5EtlfVWex4/fH+037SJ1cT2V6IoJKSitMNNhq8FvUpGc5xercn8XRncmuAN0V4NnkrX96cwRJI1QtcIKlewOeWHV4/mUUy8udZqaxYdnjvYlNqhWJVmoVYOoKzPrYLBRVEh5a6Rtd6xjb6nEASGuU1pE+IgvNPelZGaJT4GEtHXM+m+sQntA5crdTKTnMAXKpgEfAMD1KLFq+PpHMDwZqm+kqAAc8mb2XpegNcf7BeGl7pBmcjZOsh/Gq8TDPGVBCNpztf/OfLYgYDaBQ9JZo+PJXgEhCFhuhhBVsaDXKfEIW2pBJPz48CkZYdxjWtc7hfU7eIa2+hBnQRweCqmAxGPjhyhRreVos+s6eP3z5IOSXQ0bQfYe6n12DOwVM9UU1Yg5no8Er3YmEKdmhhi7J4fZQrZmBnAvyfApeE6UMFUVgQCr8FWYHMenOHE6vHM5/2k6lcHBY/tMYT2oXO0hAVWsePvATz3tpAIIqt4Aw4tPzCZ0AC+l3514RyPN0JC2nngJ6WDmjdA5PO0FJXKhcHDq8ez8wdTnz89kHqrlPB5G0h+ro6cplmBKY04UdBWTlHS/8J+BWEPgI+CRdipVbeu9gc37ZwDsbh5xdLBET5FtH3U7w+crqFYccS/K78r/jyC4CXowLBjUIUuzC+bc0dTgg7EAFCFBoa2+iDnU8MJDgtHcwdTkjnL76zsXTE6Y+oP94ntwZUoII6BzPR1eMZgUsgKsBkACrflrT8hhCFPQB6PpbS1IQPLTvkHCd9ZOKbUpsC1or4DlE4LR3A5t5gJjq+bQnDrwNR8FWiPalq665epRdyvPcVKmkIorF0ZHSt58vPeaELSE9QEIXZRBVBgS5fQh/G0hF+wQ8UgsNPJaixdCS5NcDPntgvvgBMlroP+JrfEKKvG1Ytr0KBWbDXzPPXQxmmXuecZdlh1+Hkm7urV6XRYa4Q1RQdbEu6M4nSE0tHeIDpQxS2450KHNtljAUF0Xi603U+YoypHAT8phFPntR3DZwBvzf/Ml125iJFDmOFb+IuKlV/6TgJBGqa+WP/QgfhOaCHAb5VmRWWHQ5ERdMQHcxER9d6pNgmiP+0n1RpmFg6wu/XaUK0f6FDFcfHkxEIRPmoCb5yZ/muXpXmBAUZHl3r4b36hatdFU9gq4Z/2dmW88nnHylCl76VFiWGtplxSNAGIu7kr/4TFUSFvT79CoU3aYj2L3R4mAhUG48ou0iDDkQ18RmIFgVPjz5aCKMvnu7kzRxCtqULV2QRUVBNEG+16aLyWxIAaImv9Gdl6WA8sydp/A04UT9++8DLgbQG+iEBUT8eL6JaXv+7QjSWjkjDTaWd8q9FLTvMhxNKW+Efgt0nlUPBpFfByQ+TT0sHqtCON9GiKkGU9r+FHoLvwc8GzOcfKcJGGlqOzh1OeNB1IGoklkL8upEXTddy/fFeFXiAcUug94gVWqM2iH+ICrhy7eYze0puDTg9BaDHcFBK1V9KR+5yFF9zbc75gop7wUN072JTJYXBohGc6ZYdhuMawVauqq0hVeAchtc4OMqFBpt1ya2B9ZPZRsdbBVEIwXMSo/8EwtCdPOG5QWvRWDqiE4iPJPmEKMwItEcK28LCdD4hhR9vvqpG0D+TIXxayuQg3UW1h1vVZOBs288TYOXc4cTexWb+PAtxWNIp0E8r0t/y1h2OrmaBsHX5tiDiB3ZW6OOFfLsqiMbSET4qgP+JZlkll7yjm4AobPw2BBj/EB3ftvQXosAHlY3DQ1S13cLPVppcFV5TLQ8D1qKqmYCXP//leLpzbKNPsNyK10fv40NWRcAJHFd9fKFTdhWClC08Vl2Pm6sgatm/T2apqKKfX96cqeIHE9le+C0BUQ+LNJ8QhbmjUYgSxgJaNKp3eJufZqbq2/eI0YX04e+jypBlfIdVRz2k0u/noU+hB6+91KZSUQUH0OCAtUodERAVYnd4pumUK7Wy1EcCi3OogYaozkYLT0nTQlSlaS07rLMBy/fRWZbqmCC1KOGMVkmeh+cQFO7sHjyRSpKHVuifwAkYFVRUtPHPT0sHmFKAbov/Fg5Yj230SaVBBdH+hQ7B4uAp0SmrIAq+aKiBgOhgpmE/StNCdHJnRDq3xtIRn/MgY0x1RDaYtajKkuYlLJCyNCAL5UzFwUCa5ivxf2P0Xb26WJgaXulu9OwoaFTnjoIKov6jFyu1ssrFYNlhGqKwEG10P6lpIfqmWvRtIRrIRgs4aSFYnMcDX6axQUAUK/eQdoAnAMrgM2xU8nAqwUKp+mv1eIZPeONsy/lkMBN1hgEQEJVqXaTBtVCq/pJKD7+VotKikHWp0aimpoUosRb1nPQI+F97uJUu+IMxdAM50RJLR8Y2+hYLU6vHM4A06bLWG0QhMmuxMJUrZuYOJzQPGTixwT+x7LD+XjwNg/rjPRy8gB1ITL3FNyeUYcbhLVg1RBvbxHeSqjKR+J2GNoHo+smsdE9RCId08tD1yeXNmapmv4au6s5zQaSIj7DEmjuc4Fd3p6UD6elbDxDFNBnIprt6dXJnhAiMJKj9x1f+dquRHiw8s6fLm7MvP+fh6Cat8AVPqQqi9OodmyYKqowN/ATfJhD9fv5VKjZ8VheCk8RX+fPsW0GUCG78hzQvdUk/gjZwrqxUaQQahShxGpM+ySGlVnjocwOGGDBI+vrl5zzkNJUaFPAQo51UEH2heTnKT390u85vVcsH/mx3m0BUpeu8Lbl5VquWivw8iO83kBjlrl5VxRYK0iz9CIfuVSdIpAuSRiEq7SF21fUokJRs/iGdOwMb8lP48nNelR7FskPoSCQgatkh6SSoQxVxaInfaWgTiNYf76XLcogTxHSkOozl3ylVf/UvdPByhWWpADcAUZWDCxugC5Ydoj0Zzk0UDxDlz0zxfIGyT5T634BxkuR88hpmLYkc5HfMCYh6iO9BGqi9tOUo+oHaBKJwuFS67+It6hD4/FGdP8gXRC9vzlTQp5EJ31p2iN7RDkSL6hz18mnx0rMGyrrPgjSClD/PQUBUdabJlST6bCTm1CTC6P8wjy5jjHCOSuHkyuTXoMKQCjLSOnW1qMp6VjXGP7dsSfJ/oTPSeEgaD/JV03IUrUGhCfxI5wHhKXeWNTdgag+3q8cz0/nEp/0kbTsgVXxB6u7X1KJAs2WHnDk++CaE8uXNmcqog6AFfoXSPlq09nBLs6Uhc9c1w7B3iLpW7RRlfKLjZVHNVR4gChCiUQpHrqQGDJJNFFyjqCu1MlwoAGG3cNkJv2UiwMP5UWoL8SsFWosC8ZYdos1+bLd4fUQIIuhGfLmttChjjDa7dNQPsA6UkNQXiMLmEaLEYXysWlUQ/JD8MGOZyFDqAaL/C31cjtLnoVS7f6qOiM/JDRjnoIKH/fOPlA5QVWdNYukIhk/oQBQs3vFti1Djd/Wq670SzpRo7aNFISmZ00vCy4Nlh6UXK6GEwwV2OoFlHiHqZ6PFdQn6Ks1K09wbRAGlsXSENkKcQOL5TpfpRa/06hHYcBpa6prcGdm72JRi9a5e/fJzXhpgLeT+0IQopMyCLFirxzPF66PLmzP4g7sM6QydAHJ+FQpi11YQZYxJV2G8hIC5lMrFV49nCle7xeuj4vXRaelg9XgmlYvj0PM/kZa9QNTPiRb+hCHOKHzBFSSeIQpSzi/e+HahfFevqoJRpewTHsbSEX55xtdPr9sh7BbvulwsTC0WpuYOJyDPtSqAQdhKISAq3bMBGcLKgQb8KHQNP6r2mdsNoowxHf8FMhmz0aviW1WLLOkaysVd5Gejhd/H4yUYyq9RLEr9CVLiB6KoSwkzz3V2RGF1FgYz0bGNPukxRZ2uQTQVP6hSaEG7sBrkAxJUEIUxJhaWzo6onsDcL52G2hCid/VqUPeJQfygdFEqPZFPQdTPgo0OkipeH0kj/gRx8QlRQOlf96ZgUI4wU6iy3QpkqD6qbOn64z1MbdJhUNVGPOcdRdAFFURh3XhaOtA/Si5tF/CpWs+3IUQhAgyOQEg5pvkQ0tap3A38vhrKqhKicA2zNJJQhxo+GAUbgwJccKjS9Xzl/iEKqym8ylKgBG/C5BvVL9POsL2LzYYuipW2+xrSLIkWIiAKoUUvd3gvdekw2dluLB0ZXummD3NIs5CBZeFkMv0EtsSd05kQb6xyW4IykJozRLvSbS2QFqmbAKrCK0yd1DrZKDyB6HTwj6iMU+nqSQlRVQyx0LD0o9NNzzNL3/8UCERft/WUgU1+FtswosQJmLt69a+r6eES+0bRAnpseKVbGvLhClHGWPH6CO5i1pcnEKOP3z5IM13wgyiNQ3JeLcH/hChLHWx8VDD8VrogtOyw5t4ST4CUgbBjR6O9/ni/ejwztBzV114wlKNrPbhqIFzETs7LIaqv6KQQVVmAOi5svsKgIAqBe/wI8WWptPFk0GXLdkmKeVev5oqZ8W0LxpVYc4JlDgvUwUz0034Sd1l4glWnDiDGgA/QBXkCty0xR4AMwR0wuWKGllGgBK5O5euEfjklTKBc+hE23vmpBG6CEboPGWj514AAQu9Jm2OMOe+qBoOF3gXA2i5vzuCSSHC58SShtMBSDvfbsC+qPLpgg2CUJbYlh6i+okOC+AKR15TYBeVrgHJQEKUV6au94OK4ctKGT+hVNzKaMXZ5c7Z+MgueW0AFpB3F/+Gy8FQuvn4yS4udVAk4IQqtV2rl9ZPZ5NYAqH1sDgrxdOfoWs90PvH9/CvvkeIpl5YLV7tgIFh2yLLDiWwvagnp+/TDXDEDOhxqG9vok6J972ITkldgo3SYCtFoqforlYsjNwYz0Ua18eXN2WJhSspYQGZya8B5Y5p0jQBD8/lHykmwBKI+bT9iQaK6RgHFXSgECFFhYcMz4q5e9ekC7V/oIPzGfFtQrj/eX96cFa+PCle738+/wl/havfy5kzl2RIqaQii+NtKrXxaOsifZ7/8nIc/2MRzztz4E7pQe7iFLpyWDhqCt7TaSq0MtRWvjwhNflevYqPEa9ImnA+L10ffz78WrnbpObH2cHt5c6Z6p1Ir86MJXEW1yTdKbDSq3DcSiKrWsgJ+VB+leztApetVqkKdAUIUFKlUFsExxttsAhmuH+m1Nz9CQZW9QTSo1tutnpd4kuWX9DSWHfr47YNnvb1YmFKdRYGkFtJpToSon40WEGXLDqucgY2CP2iIhlW7CP5zAvu8A6ZRoTcQbZRjnt/PFTP9Cx242nyN+giNb1t7F5tSREkburw5ezWqlespITSFr0SEKB0Z46pPwOEhXUUQF2moqg0WotLoKuCFH/c1EP8yhMtRTTOVHwBvZQNRb3zz8CtpCBoAFZRqrpgpXh9VamUBsWAb54qZVC7ev9BBmGlCdKdA5D8gqjpxooKQ8zmEjEntSQ9L3GAhSiySVSkwnB0knvjPOiWMDfHRQJRgToBf1R5uiQ0S2HlGh9NfQTKjaz34N7QcRYccITbgOJRqNejIb4g+s6exjT4C60Qz+BUBAw8mdLAQfSFSoeju6lVp0kTsl2aBcGUHKDf6my7BNtqetemDAnZZ8H8dmYGdHtX6S4Roo74cKQVE6Lwq6ElaDzwMHKKqPUzXyZIgkv/Kudv+RmJttOgbMdZZ7atpGcK1KD/cPsuwycTvYztbZ4z91qL+XSag91XRdh5i1t8ColKLgrhXs6Fh8BaMJh0Y+qFqL9d5tpOux3yrwwGM5fRpY/KyZNnh4ZVunZ3k3xCVnvTnK9UpEwcpmwSi0g3M+uP9+Lblf6b0k3VKR1bwHdXiuX+hQzoH4Q9NwRsH6o/3exebH799gINmnkUFNCdcAC3dOHWS9xuiqnuLdZCJ7xARAh4gKj2bg33wMKc4j4xAbUFBFGJE3sevO51PCImY4eg28scUAucAZCf/X0TRizcoBCdCiWNb8BUc0LXsMFzCoAqBkBL8G6K05wpBSBcILapaPhEVEldH1h/v9eOYsQmVklGdosAf6hcsO/Q+EMVTF+hRTOXimhOzVBTMQ30OQHxY/jz7+UcqlYsnsr3DK90Qg43nucEBObrWk9wamM4n1k9mi9dH0s0Out3fEJXu/+iLJrzJ3/whNKxKD0s3EUtHpOtp1WEiujbLDkuF+K5eDWSGghim94EoY6z+eF+42l09noF8HP6j4YQhMx91OPDMniq1cqn66/Lm7LR0gH/F66NS9VelVvYAS77d3xCVHgiiJd75LSzG+Aaw/HL9s+IiCeI55LD/8nMe5P6vS2Xu6tW5wwnBxiNqwK+IHNCVWjmQTRdYoghb2MgBUzAc8MCB3xD1eSYLkAAyqtJUnhW1ZYdH13omd0bgmIgHfIK3eXzbkvKoeH3krU7EP3Y/uTVgICplsnnojQO/IZorZjys7gQZBX+JKs5YnpxaT7WCOqUPWzqJ4Z8Q0T8e1sl8zVgW7i/zNiTmV4YDPAd+Q5S4cgdFUKegWj0yxnweQ9VpnXhH5c5ljHlb2TrbsuyQzk4XPwCmbDhAc+A3RBljgdi6xL6Lt+WoEwkenoDvW8oL2HHxvysNwY/GZyNlsnnomQP/gOiL12Spy/O2LCCHTgDjYTPTAyCdPyGs3EqtHIiF37/QYVSoZ0E0P1Rx4B8QZYw1lLjEiQR4EktHVMtRD5G6qlYaet6/0CF1YunkGtdpSD89imokzHPDASkHRIgGEq1KeE2e2ZP/I6k6mOHfoekJRLGrAvSf2VOumAFf9OrxjGqakI6NeWg48I8wemRHIKdGievcAzlSwyOQLsN5PFU4weXNmf9VqCoXTO3hdnzbsuxQPN2JdzSYGFqUNNcC5O+azicWC1Mqu8y1klZ/QdSicDWdf8UizauNzPIWe0BDUfUtkXKCMdZorhZnKzAFSCNInKsGSLeHfDAFggPg/7fsMGQttezw6vEM8f6f+pUEopAl2aduIcKMMIupzyacaHE+oZMvl6q/fOb+g7yY0uSrz+xJGrClihP+UyXMW78gmIT3XMLp5zZ0yMkhGoh6odUXfS20E2wensTSkbGNPql+A7nxvx1K5P6r1MrSuF/XCx29yfQf9iupddOePjklRP1rGJgCCYS83A7ke49HBV3AJ3Hqp3h95L91yw6r5vWXUJDlqJM8c+paZzaRGiC0aaZTbSu+o4RoIMFAhCsVmHVaOhhe6Q7c4o2lI8mtAQKfgTiW6UndQNQPHqQp2+EghJ9qW/G3FEQbTR7v1BhwOEulZ4BflzdncDuQ9OeNPoRT7ZM7I/T2xvrJrP9whXi6k3DPGoj6wYOBKHKPgihjLJANmNG1HhowtYfbzz9S4LtrFJP8+3AHzurxDB2Fp3m7KV+zs+xqIBiIopB5KBiIItNcIMoY878BAwk7XI9oFa52QZ16sHvhqPvkzgih1qDPKi+OE4TEE1gU0fOOgSgKmYeCgSgyzR2ir+5vZaJ7Qo75ryw7/Gk/SSs3oOn7+VfI9IVZYfh6+DIcTwN7dXJnRGdr2+eljNh6LB1ZP5lFJkoL+hB9Zk+l6i+8gum0dECDX9oc8fCuXi1eH+1dbEIThavdSq2sMxZEnc6vIPkANrF3sVm8PlJFjDh/LjwxEEWGuEM0kA0YWJR+2k9iw3Th8ubsy8/5VC4uvW/PssOIzFwxQ7iF+Fbqj/epXDyQJejYRp+rUaAD0dPSAVxrC1f6vF7IF7LsUP9Cx+haz2JhytUo4DsolE9LB3OHE6NrPULlUH8sHZncGdG8TVSomf9Yf7yHCMdYOiJtaHStZ+5wQmcChWrv6tXT0oF0v2poqWt4pfu0dFC42i1c7boOAU9n65a1IBrUWRDLDumjFHgKOddOSwd7F5v582z+PPv9/Otp6UATljgw4Pryj0+IVaAdYNAoAdHC1W7t4XZyZ6R/oUNFEgQt9S90TOcTjcri9/OviWwvVM7v/qMVAAW4mETHIkA28oX64z1cxUc7EbAj49uWNEMq1vnMnqbzif/O/8eyqdTSOJH9d/4/jd4Iim21UEELokGdgAH5TuXinu0fb5x9QctSl4clriDTUMnHbx90yFBBNJ7uhH15FTiFRmGZrWn6wkWM/E1eQm3OjxC1M7rW05DGLl4fwVW8zgpVT+Lpzv6Fjk/7SdWM40w7qqoKn/cvdOxdbOoMR+u+owvRZ/bkP1YOOAt3pNMTaoAMfU16Qs3KON46BXqjhSdbBVEPkwUoIlfDoVIrJ7K9msgXOjuYebk/U8c6+Pv4nkeWQi5ZaUDLf+f/I1Dl+pHIH8CPRUuXdSHKGFNdUuDKR+cLsHu5WJhSTaiB8PSuXn2dmP36upB+1YkWKbUERLFC/UI83UkvgOEUoTd8AhmgTl2nztcTvx7xCQ1BYIlz6A1EpYLUAEQZY8mtgUDMRRyqRLb3LQyV+uP9y83KS11+RFbAj85GC89iTYiChoR01bCvK7SLH+mjHuB2wpeFAmZDR0+b8AJ8hPAdwqiu1MqWHVatb4W+EKIivet1cmek0TyM/Qsd0jTL/EC0erkxiF7enFl2YEoJQmRhTt272AxkG+CuXs0VM2MbfbS4SwWUfkjfAeWUAx2IxtKR4ZXuucOJ/Hl272JzsTA1utajmlZegLEcleKHMHDAYPn47cP6yezexeaXn/Off6Qgb7q0v1LwYO+I4/hA9ucfqVwxs3exuXo88/HbB8Lx4wxvvqtXx7etV7ewchYAd8brjPZyWYPr1hdS3rqFxiDKGKNna+mouz6EA4GJbO/6yezlzZkHrNYebovXRyjiqmnelRLVC/F0Z3JrQLqCUo29K0Rhr1jwnP1tnIellEgvR4SLYaVdBq3oXGHCZROqucCyw9I9kuL1Uf9Ch5Qw2MJxTh+Fq92h5aiUNmCpk3uwhUtsus75ZR4AAAjzSURBVOxdbMLF2E5T2VnbH/CkYYhWamU/yWylAwwPYb4fWuoa37bmDicKV7ul6q+7elWKWEhLf3lztnex+flHCu5pDVxzIrXOKd917GmIEgdZ64/3qoguuI9DEE1YHCKpfIFIIvXMnlTLFpUiVaVBhqt3BKqQP8TVz5YdVi19TegCMrBhiMIGjGoC5uXDc/nvU/YvFvXYRl8qF5/cGfm0n5w7nJg7nPi0n5zcGRnfthLZ3qHXu8rfDpnQBVARyDLNAgFR0CqETi5Vf6kWFJYdEpSVKrUqkfQQunB5cybVitIVaf3xXvoyOKjpDZvFwpRUYIh5ykAUxcwLROuP9yo7xDMsVT/EJPR44RQGBkrNJ1U9fp4Tugj56CwQEJXaq0INKpUlnAgnxkJ1xxTfENGKYB6rdLXOtgckf3UOAXG4zEAUh8kLROEEjHRedA5Dqz+x7PDc4QTyS79AQLR/ocN1k1N1HaugG19drBIHHn2WFXuhOsnkvNlVdZOAZYfz51msUFVQ+ZkGM1GpBjYQRU56hChjTMX0VsckT7/U5EPe0QUVRF+U/3KU/i2kj5LausIhOJVyc2JM2qLKonbeEzudT0g3USw77DrdMMZUtq5qkW8giuPlHaKnpQPpmPEi3urlRjdakK2MMQKiqgva+J+r1n6CL0elbDWVG2NMOhGAB4inh8hUIqyN+V9h+XVbSOKmtuzQ9/Ov+BoWDESRFd4hGtQdME0LY0gdJvUnI/uIggqimiboM3uSumeEn6vtT90LoKQQBdcx33fpxZPAImHfSMqT1wugJQa5ahI0EEU2+oKo/xRkTYtPOD0nuEyQazoFAqLT+YRrDQRE+Z+vHs9InQIq7eRsVwVRId5Q6iD0D1GVQW4giiPlC6IBnoBpNqw6LT1kmWaBgGgqF3etxL+hqxlZKYWos/sqQzeR7fWpRY2hSwuDX4jWHm6lJlCzQa5RenScrjRnVRAldhr4ClXJLoRQ/leXrNyA1AmO03cIq6IpYumIzlpUbZDLs5waLYrC4Beif6cgk0hJo6honvcFrykyq6GCCqJDS139Cx2qWBxs4svPeWlMuRBMrwo/ELxKWK1QeF0iSrw4Tg6oXbIhVYQQ35bKIazaczYQRe4FANFn9qSaYpsHdQ1RYtlhIvQHeUcXCIjquFulhiWskHlI3NWr0oTdENfhOhEQwBPs5Ndjt3Iwu+4b/xWtqVrKDi11SVltIIrSFQBEYRNP6rRoCBhN8rJO6A+yjygQEHX1Fav8n3C8Tlj7ERFCAswEap/Zk3Qh+jIQy1Fht7NSK0s9zHBGTyBJaEgFb+eKF39oIIqsCAaif8wGDAgcv9mAnGq0QEAUTlR9/pGS1vnX4QGpzsG0LAJ5r1ujkoWGK3ik96ZAK1KHlhQ2MGsQirT+eK/K10Fcn6dqS6V1pZz8Mx4GBtEXiXyzC1reTcGqgl08DDYNUUDpdD4hKKvT0kEi26uKCZHeZFV7uFVxXnVGjDH2utaVABtsaan6VbmmAKXS6+HgCKi0O+A2U6nf5NaANAZbWLv+lRVZVYOHIWvOnwQG0T9gA4awuzwMnitEQbKHV7o/fvsAh3hSufhgRn66EkA4utYjXbkReIulI4lsL6QyrdTKpeqv09IBkd8AjnGqFrEq9Q59mdwZgeSMlVr58uYsV8wQJ9TpBYXKeh/MRMc2+laPZ6bzieTWwOhaDyQBVRHsYeCa7SdBQvSuXm3dDRhI6iE9yuxtzHQgCsCDw3dwgoewFyw7JNVUcGsznJiV/vx/B3GXo6NrPaC9pWoNfkuc4WSMEYtksJAtOzS80g3IJFKo0BMBY4y4VxJGCg4tw4xm2aE/OFtnkBBljKmiuqWi01QPLTsc7DBrQlSTCfF05/i2JaxC+bnj8ubM9dys1HTkCdCR9derx+UWMlRFGAL8C/RsqDqCw1OLZdpm5rnUiuWAIYqLHFdpQP42Q8Gyw3xUXSADWamVVW6SRtNWgNC7RgjAJqdnzlt2iPD68DyBO7K8DdyLAl+OukZWvkxw2q6Nly4vR//URWnwEIU8q65mm7cBDvxXYDWpnKu8XDZahvtjnICx7FD+PAtH1XW6A0YprXOQtsubM1gW6tSM74Al3JAR8apLw4TBjJXzhYZSKOtPBK5mM/KnFQtvAlHYKR3b6CNWI/zI/StlAOfwSrfOiWRvQwv3KfC9w5xaxeujRLaX5s8rckLJrQFX/cmTV3u4hVQprnYvrh4T2V4+HIKvjSiflg40b7IDVkPAk35f4A4emkV/d0GZA4mgv1W+eiuIQv8xXyafzQTMtn/rf/TNwL1G+hLjYURBkVr2SzpJyGQ7tNSFLdYf71ePZ0DpQXrbeLrz77xNL/dK+UkyfHlz9mk/ObzSHUtH+MqxfhD98W3r+/lXYonr2uvv51/hcD+mAoZeYEOQiPTzj5Q0uwJdf/3xfu5wYujvDFVYM195cmtA08Sg22rab98WotDt4vURZFVNbg3863+pXBzSC76Pm/6ZPeWKmel8YnJn5MvPeeeWyTN7Oi0dfPk5D+9M7oxAKloPAu0UMqg8V8zMHU5M7ozA36f95PrJLFxh6PyJtyeVWrlwtbt+MgvJ36ChucMJyKbprU781V29WrjahY0W7MViYer7+ddAuIQNNWfhPSDanD03VBkOtAQHDERbYpgMke3LAQPR9h170/OW4ICBaEsMkyGyfTlgINq+Y2963hIcMBBtiWEyRLYvBwxE23fsTc9bggMGoi0xTIbI9uWAgWj7jr3peUtwwEC0JYbJENm+HDAQbd+xNz1vCQ4YiLbEMBki25cDBqLtO/am5y3BAQPRlhgmQ2T7csBAtH3H3vS8JThgINoSw2SIbF8OGIi279ibnrcEBwxEW2KYDJHtywED0fYde9PzluCAgWhLDJMhsn05YCDavmNvet4SHDAQbYlhMkS2LwcMRNt37E3PW4IDBqItMUyGyPblgIFo+4696XlLcMBAtCWGyRDZvhwwEG3fsTc9bwkOGIi2xDAZItuXAwai7Tv2puctwQED0ZYYJkNk+3LAQLR9x970vCU48P+hiF2eZJS7UwAAAABJRU5ErkJggg==;" vertex="1" parent="1">
          <mxGeometry x="510" y="235.75" width="122.2" height="64.25" as="geometry" />
        </mxCell>
        <mxCell id="gEV-0_07iIvLEzTvhgMC-4" value="" style="shape=image;verticalLabelPosition=bottom;labelBackgroundColor=default;verticalAlign=top;aspect=fixed;imageAspect=0;image=data:image/png,iVBORw0KGgoAAAANSUhEUgAAAPQAAADOCAIAAACGrLhiAAAgAElEQVR4Ae2dX2hUR/vH94Xfe9EfiBYkqCGtjYjUetFCLyoUWm+8eYVaad+bomxIlSgl8low+nqThDWgeOEPrzZFiEGEjU1sepPFKC1ZyqqVkq2Im4SkEjZ2kyAaFuGoF/vLOd9znjN7/s75t9ldp0iZPTnnzMwzn3nmmWeemRMri/+EBBpUArEGrZeolpBAWcAtIGhYCQi4G7ZpRcUE3IKBhpWAgLthm1ZUTMAtGGhYCQi4G7ZpRcUE3IKBhpWAgLthm1ZUTMAtGGhYCQi4G7ZpRcUE3IKBhpWAgLthm1ZUTMAtGGhYCQi4q9G0kiRVIxuRR6UEBNyV8gj86+XK81cLhReT91dupZ+mri1f7i+eO1s8d3b5cv/T1LWVW+kXk/dfLRQE7oEl7f4CAbe7jDjvkGamVm6lFy9dfHw4Pr1n9/TOrQ+b17H/HsRi0zu3Tu/Z/fhwfPHSxdKdzOvlJc6Xi9t8SEDA7UNoxkdeTN5fOHNy9sC+qY93Te/c+qi1aXrn1rz9v0etTY9am6Y+/ehx/OuFMydfrjw3vlH8DkMCAm6fUoT5sXIrPfXxrgexmCvQlqyD8gex2Hxnx4vJ+6+Xl4S54rM9rB4TcFtJxf6aJEmvFgrPRkcWzpyc3rMbloYluJ4uPmpteti8bvbAPmGu2Mve818E3B5EtnIrXTx3dvbAvjyH7eEJbtwMRT69Z/d8Z8fy5X5pZspD4cStJgkIuE0iMV14ufK8dCcDkxr8WYKromlvahuecrDLifLFSxdfLRRMJRIXuCQg4LYWkyRJr5eXVm6lF86czO/cCqvaQCf9fNTa9Dj+9d8Xeh/Hv576eNfD5nWPWpvor4YELJC84jaZ+vQjB8Thb3kQi80e2Pc0dU2amRJTT+vWsrkq4LYQzMqt9PLl/sfxr+H6MNBp/glAXy0U0B8WL12c2b/X3B8etTY9iMVm9u8tnjv7bHSkdCcz9elHDt2AMiJFvnDm5MqttNDlFm1mdUnArUvl5cpzUtVevR8PYrGFMyfpXa8WCk9T16Y+/Yj83I9am2b27y3dydAKztPUtQexGBHsmkBPwyjxNHVN+MhJ2nYJAXdZkqQXk/cxU4RR4cqZ5Q0PYrGVW2lW0LKxnhl/0t2F2aHBqJAXdLgNdDZHdLzpPbuhyA2vZQvwhqffaLilmSmYH7CDeSwEFjJDGjqV02ZYuZX2pLYNeckmu7YCOr1nd/Hc2ReT9wXlhs78JsL9cuX5i8n7i5cu0kBvRsfTFdjEgJvHfydJ0nxnx8PmdZ5ysbuZ1kQXzpwUS/os328W3FDVWH952LzOn1VAkGGCKL9nz+6/L/TCnmaFa5d+ufL8SXeX/rgv44SKgQQU+dTHux4fji9f7n8xeV8sdr4RcL9cef5sdGS+swPxTAHND6zgyIbvnt1PurtKmXF/9oA0M/U0de3x4birq9HAsfNPDCNE+Zs872xkuLFUDvMDvueAqpqomu/s8M20WZ2/Xl5aSl58HP+a3h88AVsFtS6eO/tm+sgbE+5XCwUslU/v2R2WacsC9/eF3sVLFxcvXUSU9rPRkZVb6dKdzIvJ+7I9MDP1enmJR51LkvRy5fnLleevl5fgV3Fe1mHLwJ+GBOBcl2am3hxzpdHgLt3JyBHVykqhV181Jy7kpoAPG0bO1Me7ZC737J7Zv3f2wD4sWJpNglcLhdKdDPYxLCUvFs+dXThzcr6z43H868fxr2f270XQrGtJpndu/euD91xvY2942Lxu6uNdswf2Fc+dXbmV5ul75kGmvq40CNySJD0bHZnes1s3iDlmafA02/2fJcM5zb6BPCcPm9c9Gx1haXi58hyKmbw0dDMlnDOiv/7Summ0ZSP95E8gayz+L166aO5+bIHrPV3fcL9eXnoxeX/5cj9/9KkBrPzOrVC60LvTe3ZPffqR/E/bduAVO+LsYfO6mf17Wbd3KTMeJEQ2t6Pl7vbmzLbNw+9sHNi0/r/r/vHfdf8YfmfjL62bcjta4Pmm3F0TGH8etTYtX+5n103rHWi2/PUK94vJ+09T1+AA4SQGrjcsg893dvx9oXf5cj+Zy2Qxl+5kyHJYvtz/pLsL28YexGKcGRFY2IVA4n7S3eV14QYz4NyOlsy2zel3m0ZbNg6/I/+7umVDYv0///NW7D9vxf677h//t/F/h9/ZeHd7c96vuUI73xrJXKk/uBH+MbN/L39QNbDO79z6NHUN+3M5J3zlchmzPWlmqnQn8/eFXq+IP4jFSncy5XL59fLSzP69/F5ImDp3tzezTINsghvKm/6fWP/P/9v4v+l3m/764D2vfiFa0gfljTHprA+4QdjKrTTMD/6ZIoyK2QP7DOYvaVMfiaXkxek9uznL8Ki1afbAvpcrz5eSF/nVNiyQ0RZZQxPQbAKam7BmE9Dl6Xeb7m5v9mqukAPxQSz2bHSk3i3yWodb9pHdyRTPnSWsadB3TUwr9nQU0yZpZgpx3q4Kcnrn1tyOlifdXc5qm8yPu9ubMVm0w5o1S1im2TTMlcT6fw5sWp9+t8kr4hDsw+Z1jw/HX0ze99H/a+SRmoYbu8oR9OyKkSXrcjheNAfivF5ewhK6Zb7miw7l/+uD93I7Wn5p3ZR+t4lVzw5pB81toBwW+dUtb2e2bfbhPazrzfm1C7c0MzV7YB+/kWrgyVOMnj9N82LyfvA1l9yOFn6mCXdOuAE6FPl/3opd3fK2Qx8zCBBTmseH4/U7xaxduBcveTBSLRsmaq3jdY5oLuTd7c3kACFweRKccBt8KZ40N+zvu+0HBdz+dJ/tU5IkLV66GGTlHDM5ngBU20K4/UHeJ6a4w83UerpCdjYP1rjHFe7/vBVjbW74XvhLNb1z693tzYPrY7fbvhFwu4Hg8e+SJN27cP5O0//wt4f5zumdW/++0BtR27xeXprv7PBtNZlLSx4SHsSd4U6s/+doy0Z/80gU7JfWTVe3bBBwe8SW73bAPRCLZbZt9rr2RtxgYF04c5JdJuTL3+Wu0p3M4/jXIZKNMsMg5lHkZrhhgcA94kNiUO1YLcIKqIDbBQLffya4BzatH21R1948TYYIcXiX/77Qi/PKfBcJCzGlO5n5zo4HsVgQk4nKZpkgEwIrOJaKnOAmqxqqmp61fLPdRfgrf2ndBKwHNq2/uuXtq1veFpo7CC22zxLcipQ3XN2ygRD3p5awmjOzfy8OEfa6Qlm6k3mauoa1G87lGzuS6DoniPASGuadBPfApvWZbZtzO1r89fy84oYH1gCa/b+A2xbQIH+ohFvWIlAnoy0bqS19NCfW4eXjVQ/HF86c/PtC71Ly4tPUNUSYrNxK49+z0ZGnqWsISUU8avDNMuhdD5vXYQEf2wgQoUW42yWgWRFeAkU+2rIRvZ2zhxjeTPYPvJCaqt6gqRJZ4EJzBwHY6Vkz3BA3moFC4Xw3Lba7gzBgh1fh/7jC3uO1I9E6NsV8y34V5WTuJ91dS8mLK7fSOM8bO98M8Dn8xLwTw5fXUtGgBxfk1S0bFHkamSblLTS3E6O+/2YH99UtakugVVhbxQGISP8Ejqk/wGhhB4dSZhyHUZnXSovnzvIHnASvBSwcbb6oqmdC2ZwQcPsG2OlBe7jRJEBctlXgH4CtQpopOAeWbyCO6RwpOcc9u2cP7Jvv7MC3QWDh8Jwi4vXEKcsiuV4kC8Q0X1RlqOkLC9YF3E6M+v6bG9xva00itxC0+PA7GxEk5M9WcaYEhjL7OYTFSxfl8/4y49LMFBSzJ4f6i8n7wc+WcC4zYZ1+twniglFn1tB2VwTcvgF2epADbgtNozSSHCOKsH3ntuf/68PmdU9T14hgTxBbVvLlyvMo3OSGGmk+ENnXZIev83UBt2XzBb0YAG7VViG/iqHJ/f3EnpqwtmMtX+4PfQEIJlluRwsMa22yaKcCuK4PxGK/Hv8ueGcOSoPf52s0cIqB26fWYW0VhO378C2wPQGuldkD+7Ae5LvJX0zeh7+cfXnANHyFtOiDqYizVnb96+D6WGrX9vnbN/2itfbP1Sjc5XL53oXzA7GY7yGVaTx1DeiX1k0BzXGaUMKp9zR1zWsDvlx5PrN/b1irm1SdSguE1AEluPQ0I+oNAzGZ7Ce/yRvk6ve/2oV7efKPn/d+PrhejkIO5R/0GfaKI6jIt74E5TheHqfBm918lkw86e4Ki2xaXAzFAtEkLAdLpXZtT//7y3rfY1Yul2sX7nK5vDz5x+22bxDBo0k/KOgwV9LvNoXiPaQlzyfdXSu30s5AlO5kvO6fN3c/1gIB1l59IHaSxHsy33fWtSnC6pSahlvdNP7j0M97P1dMlIBk68M0EB9tkb2Hd7c3BzTHsZaJsyeXktYn3cgeksPxIGobhaQdlpphrVfKjlrX6+xywZPurrreN1lPcKOsmF8Oro+F2KJsk/veRctqVtYiN8eRL1/u9002sM5s28yYxQH7ufo45Mk6T+Vd1Z9+NN/Z4TwKsQzVbLrWNTeU97PRkSfdXRRtrFmZISgtII42Hm3xeXoTizhcclj0eRz/GgckPBsd8WqQ0GQRPhBaq2L7pO80LBC7ZS/00ofN64rnztY14jUN9+vlpaepa9gmDLVntjiVBg6HclJjsFUCLubTeZkz+/d6jY6iMEAcXRKWVY0eghB5nkPYwDfnXLkG9Xftwk1nJ9gZxNg3rozUiG4LZ6TW1GFFBLlBN3v6STqY8ylmgAqzRphmDL+jxgzzFEY+QUDsfo+i1z5NXXNdxoOG07y8asy3RmdQMkiRQ8l5ZZSHHroHL6+M2sNwFMKgRLNnRCXYKQsqDCUetTaJ3e/hs+1p9ztaS7NNQ9biQPzqlrdDsVWIG0pQ4UO3QGCE+It9h9YYeUvsfg+fbfnbkL/39fjY/U7Kj3EskPKjBL9SZ9WnnMawTmgGSVRijThH/0FOzNxDrWaQouZ2tAy/s1EETkWAdlmG+96F8yNvxXzsDoxuNuZ1QmaHPrDObNusaOvg1pRKszbIqLMFr6KjzoYQ2YFN6wXcEcI9EIthVPXhuDA3VUg+B5kk7VUbaA0I2dnRTNepVGEbIbIxRhaIV3GRxU9YY94i4I4WbtJGtFpOoHAmwBM+SBDGXFNVkzADyAXBGUGOw260vkFbLvjNJOs72VUYTrHgNpvOptZRwB0t3GQ6QzNltm3mxMjQxmwr4vB2hjBrYhx7AppfNZHRA7EGhBIirhr/x7c+mH3mbPfwmrWaL/V5BMl4VdUQDvYap99t0t7GdjY5IwF31HDrzU9q0qsxQKDDHMeRToYDaBxR1svgcJvWW4zHxaN/MgBxvc0uI7wHi4teXXvoA+Q/NVn8xl4n4K4e3NTeRHlm22aoZMKXP0Fn82lQBmKOysaXMGLE9xRs/Q30yQT+yuJOYK1tqXT3zAi41wBuQoFsFX/x2exEKgxbJZLugb43/I58Cg86s6f+jJutLBD30gq41xJuCmimYdqr/4usVTjIK50Y7rqNullIiQqNHtACQdWwmM/UqyIL52ILuNcKbstGku3dX1o3kXHpdeA2aLi1sFhUhRpkUML3hembDVoQpbuqNrAu4F4ruG2bCgoPrkMfZ1RTDAn8G0p7kwqnhG3uBj68/5SzwOKiJ/OD7cbAOvgUVsBdc3CDJ0w62QMevLJiXumsVOSWQ4c/6OVXQVX7i2Ahw1pb9TQH2PgordzN/vwhKUJeQ0Y8+NEOLOK0dOeVb6hD2Cp0HJl3ZexCPPrhL62bfLj2yLDWxhnC2gfNbDnlncJ//pD0fYJFyED4el3txnPPDA8Nro+Ft/tdbuyAH9PI79xKS4xWWtwrTwBxA86cYO0K/jQT1A40vZaBBVp9w0AsNhCLNcA24dqFu1wuz/w4lPrwfYXvUIxdGSb+fSiWhMEipyOA2TgTrxqdovZ8jCfkAwluWFOxMYCkdm3/va+nrneXkZavabjL5fKT3zKZ7ztTu7aHp8Jl6zaIgUveQ3alk8IEiBXLhKF30eTVsiMZLlK/MlkgpLN9qG31ETKNpvfsXrx0sXQnU7+mdt3AXVbCX+dv3/zps08qAQquy9GuQbeTMRHkFC1oHOs1G0Z1g/hbcmIskOB1pxKqphHt/8e3Vad3bi2eOxv6h7IIu+okal1zv1x5/mx0ZL6zY+rjXZoxYMuQpbJ0vUiKPMh2MrIT2EgSqEO49oK4QbSK02SR0PSR0FU1hi+7WuNDnqU7dXyiWk3DXbqTmd6zG6eW0boMNCWtTbqy63aDPpSDRXytASudnqxhsjHgXbm7vRn/yNfO/za8isaEMAxrdZiiSQJ9lMKhVA+b14kNwpEMMvL3eT/9yG6PMDV8JbshjNcwITDb82c/UD904MZgTxt+VlogUM96J6ysslflLZthnPV61No039lRv97A2tXcrp/HNi+yBGv1CoZYW8Wf+9nAq+tP9ITwtjnrnYHq4sk0gnjF7vfwNTf/7nczE9rsrQJWf9xrr5K1XZBvGTuTjSqEtLioMw0LxJ/rc3rn1sy2zWL5PXyy4SHx+u13olwJXvU6WLvcr1m98qZJzjHdGWj2rzYLQy5F4umuZIFAOGymDuncjpbRlo1ig3AkZBPcA7EYnfrl0BjsnwhxkzOYVBol/NCDSSeWyn2E16KoKCRNG7Txgd3l5ads2mRRdjh63axEcqOeJraZRQ43jgoB4n998B7LsUOabaqwt5Opy5z4YrdXW8XgBtFwDI61/8VXw9qQNkbJvUuYJZHwzQROqToMwU+g1gFryz/BT8w2G8+YznePHkFumTV70bTLy6d6NhVMJpssEDZH1zSKhF1ITE9TCybgrhLcmujlMCPaRMjP+vTOrfQ9JN/B+yaqVAgMtgprlNM2eOQeYgdDpnQMsddhDc542NaVS796lxNwVw1u2VYGHGRTerJ6WZOA2XaFtgxiiMvOdY1aWZHjgw3pd5vwb7RlI+a4wNGuh/Bfx3t8nCYOXUC2PukLu6wF3FWDW9coWmPIHjp/3ygzbCdTXhiEb71sJoKxrmR4ueGn/rhWNesr6EKYLGJ84B+7/vrgPZhn/FuhBdxrBbfKhwLT216dKrSIiBBtzehkmWPT1qjZgOj7Qddc1MVFfqBhc1daIIZcnEor4F4TuI1NAn3p7xtltNKpeQ9DDsyy6QMGyAw/UUHZ2kHclV14k92U0WCBaFaTIReXnwLuNYHbulWAAkze3I6Wvz54j1/J4U42RBtjgt1kyxey1sW2fBVZIHRIImddDK49v7NnuXcJuKOG26ikLVGwuuh/NZE+3OFP4VkVhh9rXVuzXhc7DU3XwTS+vIrpcrBiyK73gZg4fD4CvCv93D75Bpr+NsCb9F90topaO5SW3cvMr6rBNE6yDalDyhuEf/rsk+XJPyJo3iq9snajAv/8IantnuRXexZ3ktnqKSYOGhF4wXdm8h5a5OVPWRo6Ielg0sp2CTKlMFsICWtVZ/96/Lu6JrumP4/9aqGQ/veXyoeDfWpuDTU8rr6EgvTtiLG7Tj4HkxUbpHjys75P16YdOkpN/RUDT9GzssIeXB+7d+F8/YZx07hQu5obn1e93fbNQAwHPFADBFKZmCb6GP0JejbkWpt0eiqSXBFWW9OOY8rCLgGlzm5p81UAQ2nl8shfZ1bknPm+s94Vdn3AjVI++S3z6/HvUru2h/H5d71dYa6QIuc0cMlBToSZjAGXTggcETrLb4EAd9qhY8pUr5c2XnFeUVX1z3s//72vR5qZIjIaIFHTmpuV7/ztm5nvO7VjelwA4mjgijewm8o8UZ5Xgvq1NSAenuSFGB8fhzBZICh/RS04as2WUMZ6IBZLffj+zI9D9b7RnUWF0nUDd7lcfrnyHIhrWpx2TAZqYzISKGSF306gOw1RWdCsmn6Vy+nj5ezqksnQZzH1mla1dfrLf/35Q7JhjBBimhL1BDcKLUmSNDP1e19P6sP3wzXHaVrmY1MZ+VXoCziImvqldROtwlBPsDOp6TqwjuDLyLLrGksz87dvNsCUkTi2TNQf3Gw1YI5f3SKrojCWEtURQNO48leDPa2kkEVOCU9WNfWQsN2OugVy78L5hrRAWCooXd9woxozw0OZ7zt/+uwTxiIPYqjo+2Iw6aQoPE+kkhp2TRDTrB+m0oD2XR2126e//Ne9C+cb2AIhoNlEI8ANc3x58o8/f0j+vPdzzVbxaoma75eRIi1O8dPhIk4WSOjaGoe13m77Zma4MeeLLMeW6QaBm+r2cuX58uQft9u+CU+LG6CX3R381rOd2iafDBnWYZhV8phDFf+9r+fVQqEBzrOkxvWaaDS4qf44HvbnvZ9jhSIkdGTQocvJVvEHOpb0GR+Ib8OD+h4skLfTX/4LWJMo3thEw8KNFl2e/GPmx6Hbbd/IUMZCmXSqMNEaEJwhpIntVDX1AdrlpRk85NAkTL0mZB9Iatf2X49/NzM81GALMUF6ZoPDDdG8Xl5anvzj3oXzWLZQtHhwTQkEdR82RZAbjHL89LHLq3JOScRTyeWsMcHAZLHhXXteQX8j4GaFIh9l/+H7odsqMDCw+ojN+ey+d+WkmxCDZlULJPXh+w3zFQS2jcJKv3FwIx4L3kN8kyS8bzaoe+BhsdD4oJkfpHqDJBQL5MP3ZR9Ig66Zh0V2TYe8hlhJy1e9XHn+5LfMnz8kmcBaGvGD8Kc+iwApzbTw92b2KdWwvnfh/JPfMo3xzRrLdgnx4puouQ3ie728NDM8JJ+6pnzFizQurcZrgIZAvPdXyRYIDGvh2jM0nOtPAbcqIkmS4D3Ex3dCWs/33x/grk7t2o7wJjFZdEXZfIOA2ygTrHT+evw7+CK861r/QGt5yRbIT5998ntfz5sQ3mRsgPB+C7itZQmLPPR9QBq+hg5AtrWM9dUtb7+BcSDWzRDsqoDbSX5YzJfDa5V9QJHZKqphjQ+cckbtSZJUKpV8rK77ftBJUjX5NwE3V7O8XHmOlU7mi8YG7evvJ+PaGx7iNKyLxcXU0PXunt7O4ye6Tp1OJvtn5+Z4qlEoFAauDHadOu31QZ6X1+A9Am5vjYKVTiY+yQfTMEKwELPh1+PfPfnNw7ceC4VCx9FjBw/F423t9O/gofjEhMtL8vl8e/sR9sGDh+IHD8VzuZw3EdTP3QJuP2315LfMvQvnf977uRaC5wlxWVsPro/9evw7r/PFUqmUSPQdPBRv//aI+u/wkfbDR+Jt7e3fHnHQ38XiYndPL26TH1Seav9WfbBQKPiRQs0/I+D22USSJMkO8h+HmAhyyxAoVU/DfQ6sb7d9M3/7pg9zeWIio2MNvg8rlCt8D1wZtHvnzfFx44PtyoPtMt+poes+pVDbjwm4Q2if5ck/FNehfPqHpssBuvx/uvjTZ5/cu3A+yOLiwJVBVfsCTdLfig7u7um11MGSJA1cGazQ93hQeUm8rT2R6CuVSiEIosZeIeAOrUHmb9/884fkr8e/S//7y58++yT14fs/ffbJz3s/v932ze99PcH3mUuStDp3lBk1kd2uKOCuU6ctLRP9QaYzkCIH3MXiYmiCqJkXCbhDborXy0uvFgrLk3/gnzQz9WqhwOkGcS6KE6OKWeIOt7lXKCo/kegTcDsLX/w1Wgk4wa0w6g630NzRNpF4u18J+Ia7XC7rNrdJecfb2pPJfmFz+20W8VwYEggCt+xmgV+FmUrC7I63tQ+P3AijgDX3DmFz11yT2BUoCNzwc6sOE4Zy+F4sfSx2xaij6wLuummsIHCXy+XZubmOo8doUROJ9sNHstls3YjAY0EF3B4Ftna3B4S7XC4XCoXhkRvJZH8i0ZdI9KWGrjeqzkYrCbjXjlaPOQeHGxmWSqVicbEhZ5AGiQq4DQKp3Z9hwV27NQy7ZALusCUa2fsE3F5FK+D2KrE1u1/A7VX0Am6vEluz+wXcXkUv4PYqsTW7X8DtVfTRwo2Jude5eUn5r1hcxL+A83p62+zcHP4VCgVctIt+9ipEH/djI2OxuMiWCoKyK1UocFO+/vZfWta0NiUc4YlTkiRls9muU6c7jh7rOHqs8/iJsbG0M6bF4mIul0sNXccmPzzYcfRY16nTrs+ahc6+rePoMTXCU4usQJGSyf6Jiczs3JwdT+bXBrxSKpXy+fzN8fFEoq/z+Am5YFgvbJd3xziXKjjcs3NzA1cGIY2Oo8eSyf58Pu+7RqjL2Fhar0v7ETkcVxEy6jJwZTCXy61VyGEkmluSpOGRG7RdD9uZEKBjrmepVALT3T292NVHq2jYDRVvaz94KM4Z3FMqlbLZbGroOrZjoQy0q4oNYkYuBw/FO4+fSCb7b46PWwZD+2579kFJkmbn5sbG0slkP7sDsiLeQ4n6cChVQLjz+Xzn8ROqQJS8UHfXzZdsRZCmurQf1jdlkmwpZAUNd/BQvLunF5Q7azdzRgGvRAL3xERGXd1lYywVQSQSfWyJJyYyq8HE1N66gLTdU+oVZWdrMtnPPmtOW7yNiaPQX07BQ1ouCLroOnV64Mpg6It2s3NzyWR/16nTq9sczdEdeqnYoirx2diXgFJBKaibFdg7NQnH29rtQl7L5bIeW1L5bLytfVX4/L0aG+8r6qINhuaOSlUDDB1HjyUSfT76krmhOa+ED3ehUOg8fkLfiwrpaztSv9j/FYIZZufmVhuDVSSyLEhSWpvJIlOG7PZvj3QeP2E3jObzef1teMT8KnonFYmuKE1OmsZhMyKnWHEb6Vq1migS/l8JGXEgJ+hPlaVKDV3Xt5lRybWEM9xjY+mKLPCUUpJ4WztnfeWNmJqqVsupGSEWL9cKRjViByX+7uRJ4Iabw4cbRwjY1RYGBrFod5vl9Y6jx8xRPpIk3RwfR0iQjgUrWe9pWFABGyCfzxt3qnstCds/tVMZ5DoS/cwLHeC23UOpPM4Tzy1J0thYWhcy20uZMli2mnxRU09yWhmUMAcz26gGOgP+DB/uXC5nW0mlbl2nTlccM8AjHeWejqPHDINaqRPP2WwAAA+eSURBVFSCMjMOFNzvtC6qop+6Tp32fabHxEQGIwma0zoX/kKycNg85Qy3as9YPcuzhzI1dF0lm+1vVm/jqqnCd/u3R1Y7f0AN4kx/NHDbiQAGg6X54SAp5W2wDlnaisXFRKIvZKwZqyDe1t55/IR5rHAWaLlclm0Arf0sDC2Hmtr9iVQ1JUx3Rgd3Nps1Wo+m3LmYxlNUBU2DRKe/o4HbtfJEufOdJAhlKpZI9JHPDmSr8zO7vmR+Oe5kXuvcKuCb7VGuZOsnhHDn4lwGzr9GBDemRrIGCbc6WpNFempKNHBrRedsGKfbFJnCacXOJvVDDjjygocRjmSaNcqZOjeYYt0ePBTvOnWazdqB71wup06mOQwJp1qbu6XblYjgTg1d5x0bOSeXVBGtZVmd5SBbH3+qUbgJQXC5ijJrnI2NpWWdbYempp7xEuiGiYlMTvtvYiKTGrpeMfG37CHa+8G3q492dm7Owk1EbWmTgA+hwnNKhdEKwNMNooBbr5HlSKvJGaemsE1WUR3HWsTb2rt7eiOyTKKB26YhnRpJER+EglXJRKJv4Mrg2Fja4HjOZrOq0rWXGpRN16nTN8fH7aCEmwVrqKpyYhbYDEU9eCjuvItWkiQsQhke1H8SssoxDJhC4LTV7p7e7p5erMvSgpdt17WRbRRw60qEKbxeI6UkEF3n8ROJRF8y2Q9/ZSLRR4JVZWvZPbRTU+zayIe2Zh+JBm57WRhEo/5Upl9w8q8K1GE9nGcSiWaemMiQgc5W2JzO5/NYONQRN3QbxcboOHrMwTgZG0urj9vAJ9dUORcKXoLhkRv5fN7QqFisHR650d3Tq0qGe6z3CbciectDeUqlkm5imSul2V3JZH82mzVUBELGrja5LlrF5UqxstXW5jhbytx2zldqAu6Dh+KJRB9PEII+XbMUtyIsHw4mRMKoqtesY5SGdFjsKBQKqnOTbTlTCWHerHrlXUfhQqFwc3xcN3I4lIVPuDXdaS5SsbhYAaKpOu3fHhkeuWGJNcsc6qJ6Ek0vibe1G9y77LMB09HAbaqDqofY6xoxWNYxC9dcMRzga6sgteV9V3Gb34wrs3NzFQ74SqTgOWFNf3rPzfFxffBl60hppWwdR48ZTCx6g2VCn55yOE9Dhzufz8uVqhQCtSO845bFtrxYKBRoCRnGJ82mIlLbkUQFuiziUHsrQ5UnR3Iul1PnkVYSR4BOQEkVi4v64ospF/RDQxalUknvEoZHtEGAZ6HEkgm9v2lmAOFlSPiE294syeVytnpE8cyOjaUty2x3UZIkBP90nTrddep0FeJMotHchjYmoCsTXo/17zp1Wha31fqzg1q1k7Xddf2cdrONodTLoH3VWZddle3psSuA4bpu81RKLxy47c0SVXNbZqpUqrun18cgiYDyEKPJDeJif0YDt6VEcFGD4Iv9X90cH2eL4pzO5/Pqko2ZOaWFQjxBfdX610PA2booo42h2LplzN6pVRa9zmEm6lxr/FVVolYVJ8R9am57uGWbG7WwyRfDUS6XMwxlPDWqzj1Vh1uR18FD8YErg55qqB/laMXQaqSypTXsKQu6GZFGlhYnLBO6s1AoOIzdiHH1WlN6OZtQY7BsOIMDcdWgshQCBSdST9AT9gOL7i1xzJSNhq81yqOBW1PPuhAZIh10DNucbNp2Kqlk5OqEZl/FmUbcohlcFJ5acXUjjzqeMBWUa60BserP5pkru5ZKjrXULHivUnWC215zI0hGrp1ba2L5BqsTyWT/8MgNOL58GC2ucvB0QzRwG1ra9JMzgJhqokc4mF6Fll7d+DM7N5cP779cLqdPEw2ZHj5CZrfTeKIpRapFkIQkSc5RYg4qwzfccHGoPVzrrsauxaBPS8J4BHGtZnd+EDl4enYN4LYMy3YuNJxiRrGCOUXotOEyxIR1doqjAKFUAM5Bt3mdMTsLwXaUUOTgE26tB9oNL8MjN8zDl51kaLzCDWC9/dsjUOfVpzwauJnebBZE16nTpPmcm5P+OjGRUWd4lm+2UyoGjcv907k56aOPFU5A88sPH1ldgraDhqrGn6jQo6bsfMLtaJZgf5rqG7WUvKkYenMz98OxDevcRwgxv4gMd0YDt32dMcUmm9VQGrufwyM3nC0/WaaMNHUR25fE5R50GKtuc/BQHC5eJ9qUVZvU0HWvNbWTQLlcLpVKyWS/XceLCG6cDauunweRsDJEYOGm4+gxT1HEDjJx/tMawO26z9dQYuyll1m0Qs2FUd9w2z9IcOtBc1Y3HzwUD9E7WS6XXU1nP94SN82NtsApHXq/8tEQzCPye9rlpfsQhzUDM/gZDdz2XdzgSrMsk+FiDcKNcAgclqA3eSXioftw1hBunF3vsPfeg4ohn0+7vM0sUr7rB24SSiVDHsQa5EEoHi26DU3yRsGNoSObzX6x/6uKzfxepcooPgTMRecxjAZuuworlqhXs0TdlcgIxRJozFqgRykdSoJirBGETYHdPGZJiDb32mpuGk6xwsWGa8syR+dnbA/LNjJeVHjw6hemkrgmooHbHkQfZkm5XMbhDUbRMF0Ih3d1Hj8R3b+uU6dx/Brxiigra7NE0fHhfnbaOZY9ugmlJUPF4uLERGbgymB3Ty8OsqrYROyFch+uYcsimS/WB9yqn9u+zyC6MLw1HIs3zc7NGQZQ23VTuG6U4PIQbUo9TM9KDlWGGyThoNN8Po+de12nTlsYLW5KHSU3yNZMqo8r0cDN6NQKdevXLMEKpfwqq3Ztb5ePkLQMq/AhEf5HnO0EBJaE6DBJDV1Xl/qthLAmcBtkJSn/0TGfZM65urlo6cDwwoA/o4HbSvqg3J9Z4jQia5sevIYXBxQcHlfjXW06MywWMmOC5MgTo+fHFei2Qum7zJIk5fP51NB1bJmzNt40ufmjwrVs9QF3uVy2Xb9QRj2sDUUxtDlLUN0/oTVSxTClXDx4KG4IkXV+od1f9SMWbHYt1ILmtiy8cZuZlTkekWUSDdyOje3DW6JHqNkv5UQ0tFk2GF0slUrymGs/UoVydEGxuOgUNa5Iu2bhhqwKhcIX+7+SZWUD92pQUIjzE2RaXbj92twoq+5ysuo82BZQfeWtHw9kVSrYnUG8Xbplb9+FoojnhmMbpkUy2Z9M9q+ehRmEPzXwywpuzKZCnzVFA7d9MwSxrlbPh1dD8GwEBOPEa1QWqWE2gS+WsFfs0qt3Wm/bYVjHznkfHU+PJ3E74yF0zY1DRjEtRkwIzv3KZrP+ZhE4c9BsuYHs1YzqBG6mXQ2VCQI3z+iMRa8gCoY+zIAPSLvuEJMkSfdjOFbcq/7WybZ/LYk3dLjp2xiUBcaHjqPHeE50MOsCfQusVXXedLMEGOnGieX4oK2euEJpln6xuDhwZRC6CkubpKvMN7NXVDe8jUGpwqGZZJz6aXZuTt2dYDNMscyFbpboe8ysQGw/LIeF8Ef2oZfKo65dXdrlLwv4GNnYVjCn68ksQfil7QYZeMEV8cEfjA8a8YyhpVJpbCytBi5XetPhw3I2dRz2XBLZmEthAT+Z7Me+WkPZsDM8l8tVnIBlP4dm+Q5XczuZEAru6Pw4nsFuKzuqc3N8XD9ozlIfKZGJ/twMZqDZK9HAbdndlYtBzBKUWz+4zKwGKq9gQRhnyOPzfFhlwFRJkqRicTGfzw+P3NC/hGQ4LlDrKq6it/5YCisHlE0ZWEAGBe/jgM5sNptM9sMr4uwVZpmmdLhw67t+KkVK2SHB7rXJ5XKrJxTgy4P5fB7VoWFQf9CK73hbeygOU5bsqh/Kow3NhkJ4+qmPcSw69mk0AEgauDJI/5LJfvp+WoWLyiR9+GFcC6kDYV8YPSMmeJ+maxXhGaZi6HxYvd8n3DaLOK6aWy0MnO5KoAFqge8PUo30XmrZSRRVAvE6j42uwre8IRrNbd8wwTU39qRA1zq3t/5XRV9C4mCd0nojWREDG5ET7nK5rM4s7auvZmduaVyB1e7mGNHrxZTZJ9w2mxUKhQLseMu8nC6i7lQRpoR2T9HmD0tAg1yMBm77KoUCN4xvdfZtn5cuTVfaLF+iIci/yqgb39qzehksswjvYrhwl8tlfWM/Z10Mt9mspOoCUe4HD4a5RxCg2WfrFe5yuZzL5Tzw7QkjtJMWtZJM9vNLv1hc1CMF8B5Dq3sqCefNShZ+YktsNDdt2fSpv12LrSzrYkjkdB+x1HKmo4HbXlOGpblRPfjL1Fg5x2VwXWE4yx0v0eDGyVheXVRY/lBLhezsBeKtYHZvU+yucOEG3/pnEO2ydpan5V8V8cJxxO9P5ASava2+4UYDqEeNkbUXhCRthhRva/9i/1f8J9izMoU3Bl4ddUal9RZelIkJpi7wsahxLHgh3aYoYHe4rTzxWNZ1WPYqFhcxRZGzpvKYCsBVNc1W8fSlIYNs+X+GDzfWEVVBkCzQDMq0OvTYVCzuqCYKcuQXvelOaJTunt7g8/dcLpdI9Kkju9ZtdD4YNC3IIJIUhwY+O5FM9lvcqQ3xDht/rM/WUeqOj6y62l2poev4KrbcXQ3N6lyRSgmjtycSfcHF60p5+HDrkypTnWFjucrRtdCWN8zOzQ1cGdQ91nxrH/CH4P8wJBKJPocv6Vhm7XCxVCrhMyDkEtbprGx1/TrQUeCmIk1MZEqlkvVJKRrcDlpDP8eelLemBfijKWfn5oZHbkCJ6D4+HjkrNZXrcvhId0/v2Fjaq6XnIGGHP4UPN44pUk0Fhu8q2FiSJM3OzY2NpVnEK5oB5WEVD+MlxOddHAZoBzk6/6lQKGSz2USi74v9X6nWBSMZM9bkrzQXaWwsLceOVi6juh68D41TMQ1QugRCcfjVjSRJVBfdnWropZrtgdEb9f1i/1eJRF82m62Cwqa2iARu1lWHukFnV+0oLRzij++DIWSPikEJIIXviSGkib+NSXyeEtickkj0YaUDXxmm8iCBj2ViM3KxuGhZJATAsA86GCRsCVWrRjEO8Xgy2e9PiWJpPZnsxzZ467p8K2//w4fOCoWCZV3Y4oWejgpuFDSXy90cHx8bS+dyOX9CDFhhaJpcLpfNZlGSsbH0xEQmm82ubqIx7/kNmB3/44VCAaWamMiMjaWpVPl8nmfoKBYXs9ksnvLkSisUCshxdT3V04MOVUMUQzabpbrcHB+HhKupp80ljBZuc37iipBA1SQg4K6aqEVG1ZaAgLvaEhf5VU0CAu6qiVpkVG0JCLirLXGRX9UkIOCumqhFRtWWgIC72hIX+VVNAgLuqolaZFRtCQi4qy1xkV/VJCDgrpqoRUbVloCAu9oSF/lVTQIC7qqJWmRUbQkIuKstcZFf1SQg4K6aqEVG1ZbA/wNrmF9I/LugQgAAAABJRU5ErkJggg==;" vertex="1" parent="1">
          <mxGeometry x="722" y="117.16" width="70" height="59.1" as="geometry" />
        </mxCell>
        <mxCell id="gEV-0_07iIvLEzTvhgMC-8" value="" style="shape=image;verticalLabelPosition=bottom;labelBackgroundColor=default;verticalAlign=top;aspect=fixed;imageAspect=0;image=data:image/png,iVBORw0KGgoAAAANSUhEUgAAAMgAAAC+CAIAAAD/QdcVAAAR7ElEQVR4Ae2dz2vcxhfAv/9GKZScesilB1HyB/jSUyEpPcQBXxwKhtQ+LT6UQtkaQjGLCcQFY2wwhpAlNPWhiYyJQ6EhFO0htVnHDhgZ4uRgWBNjEoLIgr5oR3ozGo1mpbG0GknPLOuR5ofevPfRe/NDu/s/F/9QAzlo4H85tIlNogZcBAshyEUDCFYuasVGESxkIBcNIFi5qBUbRbCSMtB60Fl+vJO0dO3LIVjDEVjb6l65tX7pxtK1uy8mV7vb3dPhdWpfAsGSIbC21R1rtC/dWCKva3dfkNfMvX3ES6Y4F5cbYtTDIcWBhXjFqI2eRo9FdUFSQqSEYCFevO6YYwSLKkOClAQsxItqkEkhWJ4yhiI1FCzEi4HKS9YdrIRIJQQL8QK86gtWKqRSgYV41dRjKSClAFbN8aqXx4KlTgJK2nfCisJ7Dde96gLW8uMdsnqeFia2vAJSbJVardpXH6xMkCJ4sZQop2uCV5XByhCpDMEiRE6udjc6JzCHql6immBljlTmYFUer6qBlRNSOYFVYbwqApbTd3NFKlewKolX6cEaDVIjAIvFy+mXftBVYrBGidTIwKoMXqUEy+m7rQedi69LEVySvxOrj+ydzBxL6r1KBlZRSI3YY7HslhSv0oBVLFIFglXS4FgCsM4+fCok8EVDJOtICkmXyHtpDRZBKmrgos4UAlP0ogSvsw+fdJ46agqWbkgVHgpLh5d2YOmJlIZgAWobnRMNvZdGYOmMlM5gEcJ0w0sXsFoPOkWNnOTX/eL7+c+//fmzb2bg9dUPi2ONNjgMrRL6PDGhC1hTd7bkBh5xbpQnAAsSlyfmxxptY25bH7bmzSNNRvQIlv/x+Us3lghMnH8CjCSJyxPzX/2weLVpFk4YgsXfVwV6rCTOSUIVl1VsoESwigcrW544vD77ZqaQQIlgFQOWcrCLcpP8zCgDJYI1UrDydk7JIcs7UCJYowBLH56i5OUUKBGsvMAqJNhFuUl+5svvZjOcUSJYGYOls3NKDtnFAyWClQFYX3w/Xw2eouQpB0oESx2sqsIUxeuzb2bSBkoEKzVYteJJCBlxY/LFfQQrEVgEJoU9FqFhKnOSECbcQUKwZGChc0p4D3z+7c/cjBLB4sG62jSRp4Q8CYtdnpi/2jRn7u3zmi3oWJenG1zXPfvwyT60//rnv+U///7p9z8mf10Zm/rty+9mhXqs+ckvv5sdm/pt8teVn37/Y/nPv//65z/70NbqOVKNwIq7tQhw5vPdGgLHAWQ+39UNoDirlQCsONGrBNzXE7+wHogAVNLPQBN7lRiskQH3+bc/k9dXPyxenuCfVE4VlKMAHZ9+LDVAcVaoIFhxXU3o4QhDZFmfex6aXUMy5ravNs2xRltI29cTv7ADIPP57vHpxzjBKnm+RmBx9js+/Wgdnq1tdZtr1tWmmeQrRliwhOnJ1e7tR/bSk+Pt7unLN+/rBhOr4VqAxTJ0s7XJ/lIc55Pkh0KYhp6cubdfQ9pqAdbN1qacmIS5QxlKUuD2I5u9s6uaRrDop3SG4pWEm6FlEKzq3EvosUZvS/RY6LFyoQ7BQrAQLFUNYChU1Zx6PfRY6LHU6ZHURLAQLAke6lkIFoKlTo+kJoKFYEnwUM9CsBAsdXokNREsBEuCh3oWgoVgqdMjqYlgIVgSPNSzECwES50eSU0EC8GS4KGehWAhWOr0SGoiWAiWBA/1LAQLwVKnR1ITwUKwJHioZyFYCJY6PZKaCBaCJcFDPQvBQrDU6ZHURLAQLAke6lkIFoKlTo+kJoKFYEnwUM9CsBAsdXokNREsBEuCh3oWgoVgqdMjqYlgIVgSPNSzECwES50eSU0EC8GS4KGeVQuw1ra6rQedi3zlGvmGo6FfUSQpQL5+baNzst09VTdXeWrWAizOHMpf8Cfhhs2q51f4cUquF1hnHz4dn358+ea9dXi23T3d6JxsdE6WnhwvPTm+/cieubd/s7VJvrJW+JWkLD0kPbnanVztztzbJzDNm0ekNdLydvfUOjwjX0aq1bf7cxDkcVhNsKIAEXunfW+uWUDblVvr1+6+iDKUtk0SDSsPXLnBygqgtHDkUb5iwJUDrCoBlBbKkgKnEVhO3/udJm4MlNYM9SkfBU6rX7jQBaypO1s3W5vNNas+ZGTb09uP7MZDG3+vkJ+ITN3Zgm/DHmu0b7Y2yZfuZ6v9irU2bx41HtqTq12YriJYMrCAsCu31tGNRW8GsjLC8oRg8TzBMeuxACxIXLm1Tn4+NKrl+pyR8IRgAUh8Qg4WEHbpxlKtAmU02AFDwgSGQnWwADLixio53k/inBAsniHhcXKPBWCxiWoESsKTkJiEJ9Fj8XRdECyArHSBMm2wkxOGYOUFFhCmeaBUDnYIFo+O/DgrjwVgsYmrTXPqzhY8elDgRLLx0HuGQg7HRXLRY/GY5QoWQFZIoMzJOQn5Q7CKAQsIG0GgHCVPABmCVTBYQNilG0vZBkpujwVMPpoEgqURWACZ8g7SvHk0c29fuMcyGp7gKgiWjmCxhCVZGCsk2AFDwgSCxYPVetABu2qV4Mb72S47CeG4yMmNzgmv2YKOdXkey3W9p/y0xYuwfhGT5113o3Oi1ec1NAKL3Fo645U3HGrt64YUsaN2YOmMl5rhc6o1udrVEymtwdITr5wQSdus5kiVACwWL+EnSEc8zE9LQOblCVJafWiC2Cj6rmkojArq9N3Wg06xeGUOSvIGS4QUsV1pwCLiFotXcg4yLFk6pEoJVrF4ZYhLkqZKilSJwQK8lh/vjDI4JqEhkzKlRqr0YI0er0ygkTdSAaQqAtYo8ZIzccFcghTpTgXeSzZ4H6rxXIPjBdGJq14xpIiNqgYW6VVOeMWRoXy+kkhVGayc8FIGKFqxwkhVH6zM8YryoXBmcrVbh++3rWYoJEix75kERwWM2Co1QaouHovFa22re5F1L5aSVOmZe/t18FKsquvisdg+r211xxpthQ3sVDCRwjVEqo4e64J4pQKrtkjVHSzS/1TeKyFYNUcKwaL+KyFeQ8FCpECndRxjQee5xFC8JGAhUpwyESxOIa4ELyFYiBSvwcExgiVUixgvDixESqw7BEuiF5LFeS8AC5Eaqjr0WENVRL0X+ZGmui11DleQqASCJdKK6Nzy4x19PsAuElCvcwiWXvaojDQIVmVMqVdHECy97FEZaRCsyphSr44gWHrZozLSIFiVMaVeHUGw9LJHZaRBsCpjSr06gmDpZY/KSINgVcaUenUEwdLLHpWRBsGqjCn16giCpZc9KiMNglUZU+rVEQRLL3tURhoEqzKm1KsjCJZe9qiMNAhWZUypV0cQLL3sURlpEKzKmFKvjiBYetmjMtIgWAqmdHonPafv9k56Wv1EoEJP8quSPVjOa6u9vN6+307yWtvqBn3rbd/3ajFngpxR/T9/ZXoyL6/vnAsv6bzde7YwO27wf9PLf/7d6wur5HLSfrq+0FpYbK3EyJnLRdM2mgNYRyavecnx9Q2HiNy3G6QYnEnblTTleyc9+9A+Pv3IVrIf+iJsHPpCQa7z2vLzYvsyPrIPstqPYuUEgQtPaARWk9jsR5O3auZK6tvTPh/TNnOxOLCcyK0yPbfQvt9ebDU597X4by9zYaMN2o98VUVvgGjhos7kCtaCfWjLX9Rn9O1RguVfy2iwYJ2/MgUh5p0VUOjB2FjbDkc9x941GbymRxCeag/WrJnidikGrCYLllDa7Tka/GIdEgvfXUvYToYnaw9WqqAmBat3dGA9Nc1N/2Uf2pJfGe0dHZCS7fttc9N8+eZ92KiO89oKfMy4dXhGpniDMo7bd70X/L2DkkbjkQ2nowkIo4axEnZpXtmQ/M93IyJx7Z1bT832fa+z3vvzXa6zHFhs4y/fvOcKh5s+t/csc9O0OpbVsWi4CBfK5CjPUJgFWM5ra/FH6jPY1PLjHWaANNDGO2vlOlvET99sbQbGdjZEBchgBeCAsQucMcJBU6D6d97ofvz6+KUbS6wXfLv3LGbU3xAN9p2dhwuCDhjTbGEAy9yzV2ajxaetw7OohPbT9eB2olUuT8yzLUdrKZ/JE6zZNMNwoceio2yqCzYV8iKMd2HLBGniSKRg8YNixwzMNrkKyyIpVB0d9QfC+P+B4EGjjtni8kOHUBjACmWHDvgQby2zA8VQUcMwYkN8ir7yRfME6/q65yfkL5BHBBbjMLxbduDknd7RQXsO7r0FcA/WXf/k+Fzbc/JeRHPY23TePCJRyd6lCyLmnje9IP4MDBaYkIKlpPpzM/C1l24seeFvoIq3e8+CqYNhzG2DAuDqZIowiFPezIA6vB83ODkJIK0HHVKY9XaswG+fLgJKRDmO64bEMMYzn3PkCRb0Ji7BxkoBWA4YJrA0WKEXhDyY1gEEvI56/6741wcrwrWM0J0NpvUv17chLEUEAEniE9TdUvr90uBcqQZ6cK2Ze/uhRqGw4U85QU7DMDjBwDM1HsKIkLZ8mxsmMh1kyocurnygM1juzsOF6dnG9OzA84W6CBhFwTKWnhyHyrreWNjcNOlggoIF1b0aYDAAC7wFZ79w+3FHvfZcY3q20VyLzBNhNTgAiwmaIdZJ0zAzJWKAnNfuvuCuTdsJxiH0viIBJFyBlhflhsumO8oXrOm5hYVW7CukcTB2oGu+H4PQ1js6sA/t7fsQTIAM6t4Mw5j8dcV8vhs764FrhYfkYLCMwAr3YBAHe0cHB7sWDeVBZ2nQB7fK1h7sS3qz18FJXk6mJAUFWg4Gjv4wkRuZUHcImmSau0AyT7CyWcfy9hBFO3QkvlF1UJ2GIu/0T7//wc+SEoLlnsMUUsljeWZ5u/dssdWcvg6DwpBwRsT8oelIjF1TgQXBMXzh6BHVZMxl053OE6xAa4kkAmMztagbj+rBPxNSh/PaWhFsEpOiTTo+hWvJPZYLAddIMASBYR8d5AEBseIHnYWS/DBIpDsoHMWd3l1+yyFHHiuGlxHa3RJdNt05jcGiXtrrt+d4Olawc+wEw44QWH7X+669Z23fX5/ml6yCpcukYLk0Qg0bglCLBkPs8F3hPQFB5PeetAEBImBl7bFAUcbUnS2yLhp9P9i1vGXYdOQMKa0vWHBfckuOgw6dR2aF/roGt+7cOzpgBmTBRh7YdYjHchlc+PkXp1cm4vgLZrAGNnVnK1ieDSrBFhAFy58nCBfMuOdkQDMJPBadkcQi23c9pbH7DYGYF/mfJ1jBxCSRfGBsqutghB7dfaMzed9jAQEiw5zDTB5G5UHTIYcnMlgvWKswDIMJpuEunb+iC2OB/WgYZZeUSD3qzILO0jPGAk+hS9cLiPwiOX2BQA/R0Zshcrq0fNZPK+UJ1o/Bs1ZhM4iPBGAFk30erB44AwMWomjcjCwauQAH9VhB00PBchmTeyuX/DzAdVmqDAOuHg/WYPPHH+7A/Aa6bxjcOhazvOkzlwosF7yjEV2I6cF2GXdRsY3SnM0TLOlYMcgMLAGaFdzE3sMqZx8+DXZb2+G9iXFzzx48H0xncIbRtA7PiHt/u/eM2U0LxlguHdKSoRu3oh0OMfxOC6lidazQwsGgP2xFZn9mfG2r2zvpDeLyetBx7z9ZkSfhG3AxDG88dHz6MRzHDRjXQ0n2csTo1AMFanRdlwnTniYFa/pGg85s0tAjKVs4WIHPiKwZutTTsLYQpQdunOpUVIRbpA7G/n7RYSHGebYc+LiYxo3wPrGncepEY+uQjGDKyRMcqhbs5wgWchnzUiUwYLnuOePjQ62SgyigTJOKycLBinisuW06PekLdu/H59revhtrtmB8cP7KDPszX4mXJ+b5EMbGo2BjROIJvH3H19ZCsPfHGSfy9J9vDOEDzaQwG2EDsLxa7H4fXIV7jkMiJwWrRXchB9KIn5sYm/qN14wiSHy17MHir3DhYy8CDp4fCtYaoEXv0zKRj8p4u9RWx3vqyNw0//rnv9iHn/ruYOY/eIcmhyXI0jmRx7vE891hH9Tx5aFrDcEliOTM02BBhuvAY7fDnq+CKgkTzsGu9yQWecXuTCRsTFqsBGBJ5cdMTTWAYGlqmLKLhWCV3YKayo9gaWqYsouFYJXdgprKj2Bpapiyi4Vgld2CmsqPYGlqmLKL9X+VWvz1A3bJVAAAAABJRU5ErkJggg==;" vertex="1" parent="1">
          <mxGeometry x="799" y="111.80000000000001" width="72" height="68.4" as="geometry" />
        </mxCell>
        <mxCell id="gEV-0_07iIvLEzTvhgMC-10" value="" style="edgeStyle=elbowEdgeStyle;elbow=horizontal;endArrow=classic;html=1;curved=0;rounded=0;endSize=8;startSize=8;startArrow=classic;startFill=1;" edge="1" parent="1">
          <mxGeometry width="50" height="50" relative="1" as="geometry">
            <mxPoint x="640" y="242" as="sourcePoint" />
            <mxPoint x="710" y="150" as="targetPoint" />
            <Array as="points">
              <mxPoint x="660" y="200" />
            </Array>
          </mxGeometry>
        </mxCell>
        <mxCell id="gEV-0_07iIvLEzTvhgMC-11" value="" style="shape=image;verticalLabelPosition=bottom;labelBackgroundColor=default;verticalAlign=top;aspect=fixed;imageAspect=0;image=data:image/png,iVBORw0KGgoAAAANSUhEUgAAAfQAAAH0CAYAAADL1t+KAAAgAElEQVR4Ae2dCZgUxfn/h1xsVy+nxDP55dZoEo0hkbBdsyyKIhpvMd5nJBqvqMh29S4w4BFEUQGReACCCooHKnhFPBFFUZQbQUDkRpFjl3t36/+vgV73mp3pme6erqpvP88+PTtTXce33vf9dPVRFYthgwJQIDIKHJGI/SjukIOKnMLfx1lBF4sZZ1Kb9Ioz4lBmDqE2GUsdcyJl5HXxZznmO5SRj/f+GQspI0v3/X1LGRF/lZQRvu9PfHa/35vONha5x+/LK5lvsgybjLVs8x5RtsXIP0VdRJ2SdXPIQaKukREOFYECUAAKQAEoEJYCRb0L94+XGcdYjnEOtc3SuENGxhl5iTLyIWVkGWXG1jrwdSEc8X2yzstEG/a15YE4M/uINoq2xlnhj8PSF+VAASgABaAAFPBFAatPh1Zxh/wpOapmxk1xRoZTRiZTRuY1GClHHNK1I3q/6imuDAgNJluMDPv/Jy43CY2KbXK00MwX8ZEJFIACUAAKQIFsFLD6kINpGTlFjLQpM8ZRRuZTRqrlG2H7Du9sTgLWJE98HGMQdcyLrdLC3/XsGft+Nv2CY6AAFIACUAAKNKlASaJtW6u0gIr72JSZQykj72k+2s4G2Nkcs2vvSZIxLnnSVEZOKbnFPLDJTsKXUAAKQAEoAAXqKlCSiP3AKiN/po5xw74Hz1ZhxB2JEXzdE4KVcWY+SZlxPbVJR9FndfsQn6EAFIACUEBDBUoSscK9o29x2Tx5r3sTAB45gNeFeVOfxf3596i4XF9GTumcaN1eQ1NGk6EAFIACeilQVFbws7hjXkgZeYAyMgf3vKWDd1NAb/ideI5htuhj0ddWacH/6WXlaC0UgAJQQEEFShKxAmqb3ZKjt73vajcM/vj/u3fUVdZiKXXIg2IEL2xCQVNHk6AAFIAC6ilA7YJfJh9gS06+IuN73UqOmqN0srA9OSmPbZYW9yk8XD0PQIugABSAApIq0PnGmIFROE4Ccnj2Ye/o3TZ6imcqJHUDVBsKQAEoIKcC3UrbtbGYeQm1yRTKiBhxRWkEiLrI2x/bqU1epMy8qFOifWs5vQO1hgJQAApEXIHkSFxM5LJ3EpdtgDhOYgK2gZ17J7sxLwbcIx4cUD0oAAWir0ADiNddZASjYHlHwTL23Q4X7rgsH/24gRpCASgQEQWST6Z/NxKvCHgUJiNcUOf8nsyIWzyTxRS1J/SOmRFxG1QDCkABKBAdBYrLjCLLJmMoI4B4foGFE4aM9U++RfGIVWb8NTqehJpAASgABfKggJgnfe8c6eQzjMRxT1xuGzAWijnnS25u1SEProQioQAUgAL5UUDMwZ2c6IMRPNyW8WgQwJcE+DuT6wDYZrdYLNYiPx6GUqEAFIACASpA7Tbt9o3G50oSmHHpGScbudmAbS4Wo/ZOjnlAgK6FrKEAFIAC4SiQnPSFkacpI2I5zNwCJI6HfnLagLD9p4UvhON1KAUKQAEo4JMCHXvFfkhtoydl5ENAHCcxsIF6NjBbXKnCnPI+BRtkAwWgQDAKiAk4kmuJM/IVgni9II6RtZwj6yD7bS11SALLvQYTi5ArFIACWSpQYhf8fN+KZlhPHOAKEoIq5l1BmTlULO2bpfvhMCgABaBA7goU2+TofVOx7sGIHCNy2EBONiDWcZ+Md9pzj0vIAQpAAQ8KxB1ysuWY7yCA5xTAVRxtok2+XKEx3rIc0sODSyIpFIACUMCbAlZpAQXIAXGcyIVmAzNoGTnFm5ciNRSAAlCgGQXizLAoM95EIA8tkGOk68tIV5H+ssn0Yrvw2GZcFD9BASgABZpXQNzPSy5EgeAKwMIGomAD78VZQZfmvRa/QgEoAAXqKBB3zCOT01ciiEchiKMOsMOGNvB6kU3+Usdl8REKQAEoUF8Bq7Twd/tAXoPL64pcrgUMG8JQpf9fjzvkT/W9GP9BASigtQIlfYyfUGY8QRkByAFAlYCnQ1uqLdt4rHOZcYjWQQyNhwK6K9D5xpghFo+gLLmusw7BD23ECYuqNrBNTO5UkogV6h7X0H4ooJ0C4nUYi5HluLSOS+uwAaVsYCV1zIuxdKt2IR0N1lEBcc+NMvNdBHGlgriqo060K/srKh9i1jkdIzzarIUCcYccRB3yIGWkCjAHzGEDWthAjZiaueQW80AtghwaCQVUVyC5lKlj3EAZ2YIgrkUQx6g2+1GtqtpVipXdsGSr6tEe7VNaAWqb3SgjXwDkADlsADZAbXOx5RR2VTrooXFQQDUFShJt2+67vI7X0DBaU3XUiXZlZ9vJy/DHsFb7qRb30B4ooJwC4ul1ysgqjMgwIoMNwAaasYF1+56GVy4GokFQQHoFkg+9MfJsMw6MEU12IxroBt1UtoHJxWXGT6UPgGgAFFBEgRbUJr3w0BtGYziZgw1kYwMWI5upY9wQS8S+p0hMRDOggHwKdLZb/hrLmiKIZxPEcQzspgkbeK+4T+Hh8kVC1BgKSKxASSL2A8smfSkjO5twSpUvD6JtuPwNGwjWBnZQm5SJGCNxiETVoYAcCpTYBT+njLwHkGOEBRuADQRoAx+KK4ByREXUEgpIqIB4KhULqSCIBxjEMfoNdvQrmb7GVvF8joShElWGAtFVoFtpuzb7ljeVLCAAvoAvbEABG3i6c6J1++hGSNQMCkiigJjZiTKyUoGggJMRjP5gA/LawFdxVtBFkrCJakKBaCkgHkoR8y9jMRWM8HAyBxuIiA3UUGYOPSIR+1G0oiVqAwUirEBn1uq3lJFPIuLEGFXJO6pC36HvgrCBmZS1PDTCIRRVgwLRUGDfJDHbAHOMymADsIEI20Altcnl0YiaqAUUiJgCnW+MGXFGHo2wAwdxpo88U4wgj++/Pz/7zt/yK+63+E2jT+UDnryU3/vizXz01Nv5M++P5K9/9hT/cPFU/tmyaXzRqlnJvxVfL+arNy5L/m3dvomLvx27Krm7ic/u9266Lzd8Xnu8yEvkKfIWZYiyRJmibFGHy4cXJesk6gY7xcnGPht4BMuyRgwmqE5+FRBzKccZ+QhBUp8g2WPgwUlY9x1/Ib9vcm/++NtD+Jtznk3CdfuuCpfBkd3vrtqVPHGYueRN/sKHo/jIV8v5rROv4P8edTI/567f8bhjAvopTtZU83OLkVnF5QW/yG8URelQIAIKxB2ze5yRb1RzcrSH8C5lrfmF9/6J959wMR/31l182oIpfNm6BfVGzZEldo4VEyclS9fN59PmT+bj3hrM+42/iF9w79FJTWAbCp64OuRrapvdIhBSUQUokBcFWlDbLMVT7GoENzHivvq/xyVH22LEOnv5dL5j97Ycsaje4XuqdidPasTViFFTb+N9xp6VHNED8kr4QZV4MweLvOSFJyg0Xwp0SrRvbTnkeQQxOYNYSXkb3uuBLnzYlFL+9txJ/Juta9Ujb8gt+nrLmqSWw6b04VeOKOZCY/iHnP5BGXnW6tOhVb7iK8qFAqEpYJW3OowyMh/BSp5gdUJi/+S9YTGiFPeMMfIOnvZCY3GVY+L0+7l4zuDkW38CwEt1T978vMgp/H1ogRUFQYGwFbAc4xzKSAVgHm2Yd+vXgd/y6BnJJ73FPe+amprgCYYSmlWguqY6eU/+6ekj+M1jTuPH9dsPgI884I2tcds4K+w4i/KgQNAKtIg7ZCBlpAYwjybMzx9yFBeXe8VrW7v27GgWLvgx/wrs3L2dz/j8f8lnFs4bchTgHl241yTvq8diLYIOssgfCgSugJgm0bKNxwDyaIFcjMLFK1bidbEv1y/KP6FQg5wUWPPt8uTrc+LyfPfEAQB85ABvPoX31QPHDQoIUgFqt2lHmfEWYB4NmIvLtOKp6ldmPaHFq2M5EVLig8UVlvcWvpR8L148/wD/i4b/UUbeK7m5VYcgYy7yhgKBKCAmWqAOWYBgkt9gcmzf9rUQ37Yz+hO2SMzRSFZdXJp34d6t/48B9zyP3OOMLCkub/mbQIIuMoUCQSgQLzOOoYysA8zzA/OufdvVQrxy59ZIggaVCl+BenDv1wFwzxfcHfJ1nBlWELEXeUIBXxWwmHEmZWQ7YB4+zMVc45NmPMwrd2wJnxYoUSoFhI1MmvFQcn56+Gr4vkoZ2RZn5HRfgy8ygwJ+KkAd4wbKSDUCRHgBQjwANXjStck50KUiCiobGQXEq4liLvqTBh6CUXu4o3b3CXg/wzDyggK5KdCzZ+z7lJH7AfLwQH7VyGP5Sx+Pw8NtkcGi/BURq9FNmTmWXzWyK8AeKtjNoSKG5haFcTQU8EGBjr1iP6SOOREwDx7m3QccyIdOviU5F7j8+EALoqyAWFhGrIKHV+CC92sRO+PMfFLEUh9CMrKAAtkp0OO6WEvKyCTAPFinP+2OXyYX8hBreWODAmEqIN6MENPPnnXnYRi1Bz1qt8mUzjfGjOyiMY6CAjkocELvmEkZ+R9gHhzMLxv21+Q742KFLmxQIJ8KiKlnxetvYlEe+HxwPi/m7cDCLjmACYd6V6Bbabs21CbT4dj+O3bcMZMzuIngiQ0KRFEBsWiMmKBI2CpigP8xgDpkmoix3iMzjoACHhUQMx1RRj6GI/vryGK5zEHPXo1pWKNIMNSpSQXE0/H/eeYqLPUazKX4mcewVvt5DM9IDgUyV6CTYx5AGZkDmPsH82KnMLk85spvvmgyaOJLKBB1BdZuWpF8dbJLWWuM2P2Eu0MWWH3IwZlHaKSEAhkqYJUW/B+1zcWAuT8wd0H+1deLox6vUT8okJECYoEYMSdCcVkrgN0/sC8T02hnGKaRDAqkVyA5LzsjSwHz3GEu7juK+4+L18zOKEgiERSQTYHl6xcmF4YRJ62IGbnHDMrICsz/np5TSJGBAsKQKCNr4Ji5OaYAuT2uJ0AuG51Q36wVWLz6s+TJK2JHbrFjn36ri8pb/iqDkI0kUKBpBZKX2RlZAYfMzSGvHFHM566YkXVgxIFQQGYF5nz5Pr9yRByj9dwvw39ZXGb8tOlojW+hQDMKFPUu3J8yYyFgnj3MT//Pr/gLH47i4h1ebFBAZwVqamr4m3OexQQ1OUJdLL8ad8hBzYRu/AQF6iuw79W0eYB5djDvWt42OW0m1h/XGWFoe1MKiPniR029jR/btz1G7NnDfS5eaavPLPyXQoFOifatKSMzAfPsYC4eeBNP+2KDAlAgtQLrN69MPjiHyWmyizOUkU+p3aZdijCOr6FALJaczhUzwGU1chBrkX+2/L3UEQy/QAEo0EiBWUvf5ZcO65SVz2k/6HDINBGzwS4o0EiBIxKxH1FGXtHeSTxeBjuu33788beH8OrqqkbBCl9AASiQXgHxjIl41uT4/vsD7B7jD2XG1JJErKBRQMcX+iqQXAKVkcmAubfLX9c+1J2v/GZJ+oiFFFAACqRVQNyqumn0KYC6R6jHGXkBS6/qy+96Le/ZM/Z9rGfuDeQn3/qT5CpoaSMUEkABKOBJAfE0/MufPMZPGngIwO4J7OYEEcvrBXf8o58CFiPDMDLPHOh9x1/Iv63Y4ClIITEUgALeFNhYsT750BxiU+axiTLyX/0IhhbXKkCZcRMcJjOHEe+UvzPvBW9RCamhABTISYH3F72Kd9c9jdSN62sDPD7oo4DFjDMpI9UAenqg3/50L453ynOKyzgYCmStQOXOrfy2if/AJfjMwF4VLyWn6UMytDRmlZE/U0YqAfPmYd59wIH8tU+fzDoQ4UAoAAX8U+Ctuc/h3npmUN9ulRl/Beo0UGDfymnrAPPmYX7VyK6YIMa/WIycoIAvCogJaa57uDtG6+nBvqGz3fLXGiBN3yZ2K23XhjIyFzBPDfMuZa2TU1PivXJf4i8ygQK+KyCehJ84/X4uplhGLEsdy6hDFmA2OUV5v/ddc2MqHCC1A5w/5Ci+aNUs3wMQMoQCUMB/BRau+oSfN+QoQL2Z0brlmO/0uC7WUlGsadusFpZtPAaYp4b54EnXcrFwBDYoAAXkUUD47KBnrwbUm4E6tcnYWCzWQlv6qdbwuEMGAuZNw1xM3fryJ4/LE8FQUygABRop8NLH47CCW/NQ768a17RsD7WNMygjNQB6Y6CfOehQvmDlx42CA76AAlBAPgUWr/6M9xx8BEbrTYO9htpGTy0hqEqjrfJWh1FGtgDmjWF+/cMnYsY3+WI2agwFmlVg87aNmA++aaCLE50Kq7Twd6rwTat2WH06tEo+5Zi6c7U8kxXrL498tRyrozUbFvEjFJBXAfGGyqipt/Fip1DLGNf8AM78XLztpBUMFWhsC8shzzTfsY1HraqnPyGxP3977iR5IxVqDgWgQMYKvLfwJX7igIMA9QaDOsshz+MhOYkoH2fEUR3OXtt3wb1H86++XpxxMEBCKAAF5Ffgyw2fc/E6qtd4oXr6ODP7SIQ0fatKbbMbZaRKdYP00r6r/3sc31z5jfzRCS2AAlDAswJbt2/C7HINRuliHY+4Y3bXl5QStLyorOBn1CFfe4Gd6mn7T7iY79qzw3MQwAFQAAqoo8Duql184FOXY6ReH+wbxVTgEqBNvyqWJGIFlJGPVQe0l/bdN7k3F9NEYoMCUAAKiFggHpYTD8Z6iSOKp/20840xQz9iRrzF1CajFDe8jJ1QzMf+woejEMGgABSAAo0UePmTx3hJeZuM44n6cdUYF3G86VW9OCNXqm90mT2VL55q/eSLtxs5Mb6AAlAACrgKzFzyJhfLIyNuunHVvEwvaka0tZ1Zq99SRrbBMAk/e/DhfPn6ha7PYg8FoAAUSKnA0nXz+Vl3Hgao772vXlFc3vI3EcWcHtXau4Ia+RAwJ/yCe/7IN2xeldJ58QMUgAJQoKEC32xdyy+6ryOgvhfqHx+RiP1ID3pGsJWUGXcC5iTpkMIxsUEBKAAFvCrwbcUGfumwToC6gLpDbosg6tSvksUK4njfnPB/3E+5mL8ZGxSAAlAgWwUqdmzmV43sCqgzUm05hV3VJ2iEWliSaNuWMrJC99H5NQ+dwCt3bs3Wh3EcFIACUKBWAbG2+g2PnASoM7Kyc6J1+wghT+2qUGZO0B3mvcecznfu3l7rjPgABaAAFMhVgd17dnJ7XE9AnZGn1aZoRFpHmXmZ7jAvHXs2Zn/LNXLheCgABZpUQMwqV/7EBYA6My+KCPbUrEZRectfUWZs1RnoiScv5VXVe5p0RHwJBaAAFPBDARFjRKzROdZSRrZgatiAziVKErEfxBl5X2cDY4/9HTD3I1ohDygABdIqINZV7zf+Iq2hHmfkI/F6dEBY0zdbyyZ9dYb5zWNO4+JSGDYoAAWgQFgKiJgjYo/OsVcsx60veQNouVXe6jDKyA5djUosfyqeQMUGBaAAFAhbAfHw7XUPd9cZ6juL+xQeHgDaNMwyEfsedcg0XWHe64EufNvOirB9GOVBASgABWoVEAMKMbDQNQ5bjvlOLBZroSGB/W0ytcm/dDWiS4Yew7ds/7bWqfABCkABKJAvBcTkM5cPL9IW6tQmvfylm2a5WX3IwZSRTToC/bwhR/GNW9fly3dRLhSAAlCgkQKbKr/mF9x7tK5Q39K5zDhEMwz711xqkxd1hLlYNW3DltWNnAlfQAEoAAXyrYBYBErbVdoc8px/hNMoJ8s2/q4jzLsnDuBL187Lt8+ifCgABaBASgXEMs0nDjhIy5G6xYwzNUJx7k0V8+hSRtbpBvSS8jZ85pI3UzoRfoACUAAKREWBWUvf5V3L2+oI9bXUbtMud9JpkoNlkzG6wTzumPzlTx6Piq+iHlAACkCBtAq89PE4HYEulll9UBMc59ZMsXQdZaRGN6CPmnpbWudBAigABaBA1BR4+H8DdIR6Tdwxj8uNdoof3eO6WEvKyBe6wfy2if/gNTU1UfNT1AcKQAEokFYBEbsGPnWZflC3jUVHJGI/UhzL2TfPsk2mG8zFmuZiyUJsUAAKQAFZFdhTtVvPtdQd8+bsiafwkSW3mAfqtpKaeJ9z6/ZNsvow6g0FoAAUqFVATIJ1/pCjtBqpW4xsLupduL/CaM6uabo9CHdCYn/+5fpFtc6AD1AACkAB2RX46uvFvPuAA7WCOh6Qa8D8YpscTRmp1uVyu3ii/e25k2T3XdQfCkABKNBIgWnzJ3MR43SJ50l22aRjA6xp+28Lysx3Nep8Lp4KxQYFoAAUUFWBka+W6wR00db3sHhLLBajtnGeTjD/96iTeXV1lap+jHZBASgABXh1TTW/afSpWkE9bhtnaTssFw3vfGPMoIx8qQvQz77zt3xz5TdwdygABaCA8gqIh+R6Dj5CJ6gvK0nECrSFOnVIQheYH9u3PV+0apbyTowGQgEoAAVcBRavmc2P67efNlCPM+JoCfSSPsZPKCOVugC9W/8OvMfAg/EHDZq1ATHJEG7JuDjAXgUFXp01XhugU0YqxLLf2kE9zozHdYH5oOeu5vZj5+hk1GgrI1lr0H/Cxbyqeo8KsRxtgAJJBW5/ulfW/iAbJ+KMPKoV0ItLzT/o8prauXf/gW/fVcF3V+0C1HOAnGxOnWt9AXWQUCUFduyq5OfpM+lMddwxj9QG6nFGXsg14MlwvFgOdcHKmbV+CahnP2qVob/9rmP/CZfg8nut9+CD7AqIZ4hETPTbTyKa39NaAJ3apKMuq6k98c49jXwQUAfUvQQgQL2RC+ELiRV49M1BugC9psgx/6g81Ckjr3gJaLKmvebB41OOrgB1QN2LXYv7j+K9XmxQQHYFhB1f93B3LaAurkQrDfTiMqPISyCTNe2JAw7i6zZ91azvAeqAuhf7vuOZfwLqzXoUfpRFgQ2bVyXf9PBi//KmNTopC3WLGW/I2zGZA2jq7IkZ+RagnrmmOthNujYC6hm5FRJJoMBbc5/TYpQurkgrCXSrtICmC1gq/C6CrpcNUAfUvdj9f565CiN1Lw6GtJFV4NaJV2gB9eLSgmLloE4dMs1L4JIx7Vl3Hsa37azw7ECAOqDuxd4Bdc8uhgMiqEDlzq38jEG/0QDqxptKAT3umN29BCxZ005bMCVrtwHUAXUvdg+oZ+1qODBCCry/6BUNgE645RR2VQbqlJEZXoKVjGkHPHlpzm4CqAPqXmx/0LNX4/J7zl6HDPKtQN/xF6oPdZtMVwLocYec7CVIyZj25Ft/wr+t2OCLXwDqgLoXHxj03L8AdV88D5nkS4GNW9fxkwYeojzUi2zzBOmhTpn5rpcAJWNasfiAnxugDqh78QNA3U/vQ175UGDyzEeVBzplxlSpgW6VkT97CUwypr3+kR68pqbGdx8A1AF1L/5w53PXBGKHvhs2MoQCTSggYuiNo/6mPNTjDvmTtFCnzHzKS1CSLW23fh346o3LmjBPf74C1AF1Lz4BqPvjd8glPwqs/fZL3q3/j5WGulhlVEqgl9gFP6eM7PESkGRL+9R7wwO3fEAdUPfiF4B64C6JAgJUQKx/4cXeJUy72yot+D/poB5n5r0Sip2xMV0+vCjlXO1+2zugDqh78aXBk67F5Xe/nRD5haJAVfUefsnQYzKOw178Iipp48y4Syqgd0q0b00Z2RIVAYOox2fLpoVi4G4hgDqg7sWO75p0HaDuOg/2UinwydJ3lAY6ZcbWbqXt2kgDdYuZtpfgI1va/hMuzouDAOqAuhdfGTr5FkA9L56KQnNVgD32d7Wh7pg3SwH0jr1iP6SMrPQSeGRKe1y//bh4eCNfG6AOqHvxl2FT+uTLVFEuFMhaAfGwcde+7VSG+krByshD3WLmJV4CjmxpH3l9YNZG6teBgDqg7sVvAHW/PA/5hKnAyFfLVQY6t2zzgsgDnTLyqZdgI1PaM/7za75jV2WYNp2yLEAdUPfiO4B6SlfCDxFVQCx0ddodv1QZ6rNjsViLyEKd2mY3L0FGtrR+zwiXqx8B6oC6Fx8aNqU0V5PD8VAgVAVUn0Gu2C48NrpAZ+RZLwFGprRX3G9Fcs5sQB1Q9+JHw1+yQw3IKAwK5KJAdU01v3JEXOFRuvlUJIHeyTEPoIzs9hJcZEkbd0w+d8WMXOwy0GMBdUDdiy8B6oG6IzL3WQHxirAX+5Ys7a44K/xx5KBObbNUMiEzNhJ7XE+fTdT/7AB1QN2L/92Pkbr/TogcA1Pg5jGnZRyvvfhBJNJG8BW2FtQ2F0dCHOZvYBej88VrZgdmqH5mDKj72/cq2nPdNgHqfnof8gpSgUWrZnERi+varzKfbWNRpB6Os5zCrsqI2+CEoO/4C4O0U9/zBtQBdS++OOJl5rsNIkMoEIQC9mPnqAl0RrjFCuKRuexOmTneSxCRJW2xU8iXrp0XhG0GmiegDqh78bERLzuB2iMyhwJ+KLB03XwuYrIX25YnrTEuEkA/hrXajzKyQx7hMg/2A5+6zA87zEsegHrm/ayi7XptE6CeFzdFoR4VEFdMvdq2JOm3U7tNu7xD3WLGvyURzJMhFJe14iu+XuzR3KKVHFAH1L345gOvlEXLgFEbKNBAga++XsxFbPZi17KktWzj2rwDnTIyTxbBvNTzjmf+2cCU5PwXUAfUvdg9oC6nn+tUa3Hl1ItNS5R2Tl6BXlxmFEkkVsZGUFLehovFAVTZAHVA3Yufijm0sUGBqCqw8psveJey1hnHcy+2n++08TLjmLxB3bLJmHwLEET5g569Oqq2nHW9AHVA3YuvjJ56e9a2hgOhQNAK3P70lUoC3XLIw3kBesdEjFBGKrwECRnSincdl69fGLQ95iV/QB1Q9+KDY964Iy92ikKhQDoFxBPvar6XbmztfGPMCB3q1DZ6egkOsqTtM/asdLYk9e+AOqDuxRcBdandXenK3zT6VCVH6XFGTg8f6Iw87SUwyJJ21tJ3lXYC0ThAHVD34o9j3viP8j6BBsqnwEdL3lAS6GJel1CBvu9ye6WXoCBDWrGimi4boA6oe/FJQF2XyCBXOy8b3llFqFee0Dtmhgb1uGOc6yUYyJL29c+eksuac6ytgHrp2LNVdAi0qZcNpN4AACAASURBVMEUxn744Li37srR4nA4FPBXgVdnjVfS1+PMODs0oFOHPOdHgIhSHmcM+g3fU7XbX2uTIDfR5q3bN+HPBw3ENMFn/OfXSgYY11cfe/tuCawaVdRFARG/zrrzMPV8zjEnhgJ0q0+HVpSR7a6Dq7J/ctpQXXwA7QxQgZXfLFEe6mPfvDNABfOf9eSPxvC7n7+e19TU5L8yqEFaBca/e696QGdkW0kiVhg41OOOeaEqEHfb0T1xAK/csSWt4SABFMhEAR2gPu6twZlIIV0aAXN3AZDBk64F1CXowcqdW3n3AQcqB3XLNv4ePNAZecEFoSr7+yb3lsBsUUWZFADUZeqtvXWtC3M3tgHqcvTjvS/epBzQxa3tQIHeKdG+tYorqy1ZM0cOq0UtpVJAD6ir8aBcUzAH1OVxN/H8ittfCu13COYGBnWLmZcoJFbSAK4a2VUeq0VNpVNAB6jL/qBcczB34x1G6tF3vStHFCsHdcs2LwgM6NQmU1wDV2X/0sfjom+pqKHUCgDq0e2+TGDuxjpAPbr9KGom+tLtK1X2cUZeCAToYn5Zysg2VYQS7TghsT/fvqsi2laK2imhgA5Qf/ztIVL1lReYu3EPUI9uF4tYLmK621eK7CtLErEC36FuOaSHIgLVdrh4NQUbFAhLAUA9LKXTl5MNzN34B6in1zdfKQY996/a+O72l+x7yzGP9x/ojAyTXZiG9f989af5sjuUq6kCqkNdrID19PQRke7dXGDuxhBAPZpdvGDlTOWATpk5xHegxxlZ4hqzCvtLh3WKpkWiVsorAKjnr4v9gLkb/wD1/PVjcyVfNuyvakHdIQt8BTq1C37pGrEq++c/fKQ5m8BvUCBQBXSA+jPvPxCohl4z9xPmbhwE1L32QvDpn3l/pFpAF+sy2AW/9A3qlm1c6xqwCvuufdthZrjg/QolpFFAD6iPTKNCOD8HAXM3FgLq4fRhpqWItSm6lrdVCuqWTa7yDehxRl5yjVeFPXvs75naBtJBgUAVANQDlTeZeZAwd+MhoB58P3op4ZZHz1QL6A553hegi0fmVXtdTbdlUr04AtKGr4AOUH/2g/+GL+y+d5Pdudld+Aa1B9Tz0sVNFqrgsqqVPa6LtcwZ6nHH7B6UA+Qj3279OuDd8yZdAF/mUwFA3X/1X/xodO1CK2HFGkDd/37MJsdtOyv4sX3bKzVKL7YLj80Z6NQ27wvLGcIop/yJC7KxDxwDBQJXQAeoP/fBg4HrKArIB8zd+AWoh9LFaQuxHztHKaBbtjE4d6Az83PXUFXYvznn2bSGgARQIF8KAOq5K59PmLsxElDPvR9zzUHcWnX7Q5H93JyAXmIX/FwRIZId263/j/mO3dtytRMcDwUCVUAHqE+a8VAgGkYB5m7MBNQD6eKMMxVTwYpbrG5/qLAv6WP8JGuoU2ZepIIIbhv6T7gkY2NAQiiQTwUAde/qRwnmbswB1L33o59HiFusbl+osI87xrk5AJ38VwUR3Da8M+8FP21FibxmL5/Oz7nrd5H90/kkTHWoi6fPp8wc64sfiRG/mHbW9fUo7e998SZeU1PjSzuRiTcFxC3WKNlCrnWJMzI8F6DPybUCUTleXG7fuXu7N2vQIPVHS96ItMFf+1B3DXohdRNVh7qA8KQZD6cWIINfojgybxj3MFLPoCMDSCJusap02d1iZFZWQC9JtG1LGaluaJiy/l869uwAzEX+LAH06PehDlDPdipmGWDuxkxAPT++1nvM6ZEetLj2keG+qltpuzaeoa7acqlBPYSTHxP1r1QA3T8tg8xJdaiLy+8vf/K4JwllgrkbrAF1T13sS2KxpoCrvwr7rJZTpQ65TYXGu21YvXGZL8ahWiYAujw9Cqh/11cywtyNRXc+dw3uqX/XlYF/En7jaq/E3iEJzyN0yoy3lGg8I/yCe/4YuNHIWgCALlfP6QD1V2Y90WynCJhH9QG4TGMmoN5sF/v+47l3/0ElqL/uCeglidgPKCMVmRpn1NMNm9LHdwNRJUMAXb6eVB7qZa14KqirAHM3XgLq4fmeeNPA1V2BfYVgdMZQt8rInxVodG0Hfrh4aniWI1lJALpkHbavujpAXSywUXdTCeZufAXU6/ZwcJ/fX/RKLQ9c7WXeF9vk6IyBTh3jBpkbW7fux/XbD6+rNeMnAHoz4kT8Jx2g/tqnE5K9oCLM3TgFqAfvaOKVZcECV3PZ93HHuM4D0M2JsjfYrf8tj54RvLVIXAKALnHncc4ffK2/MkHK9dm6++KyVvztuZP4WXcepnQ7MflM8H540+hTlLGhODOfzBzojKys61QyfxavLGBLrQCAnlqbqP8i3t2W/eGwdLHl6v8ex8VSmGs3reA9Bx+hTEBuqt0YqQfrcU+9N1wl+1mREdBLbm7VoSljk/W75esXBmslkucOoMvZgTrB3O0hQN1VAvtsFPhi7VyVgM4Fq9NCPe6Yx8kK74b17jHwYF5dU51N32tzDIAuX1frCHO3lwB1VwnsvSogWNB9wIHqQN0uLMkA6MaNDcEo6/+3PHqm1z7XLj2ALleX6wxzt6cAdVcJ7L0qcNPoU9UBOjOuTwt0yshoWQHesN7j3rrLa39rlx5Al6fLAfPv+gpQ/04LfMpcgTFv/EcZoFsOeTgToH/cEIyy/v/ZsmmZ97SmKQF0OToeMG/cT4B6Y03wTfMKfPLF28oAnTIyo1mg9+wZ+z5lZJusAK9b75LyNlwsnYeteQUA9Ob1icKvgHnqXgDUU2uDXxorsGNXJe9S1loVqFfGErHvpYR6Z9bqt3WhKPPnXg90adyb+KaRAgB6I0ki9QVgnr47APX0GiHFdwpccb+lCtB5Z7vlr1MC3XKMc2SGeN26D3/J/q4H8SmlAgB6Smny/gNgnnkXAOqZa6V7yvsm91YG6BYzzkwJdMrIrXWhKPPnt+c9r7vdZtR+AD0jmUJPBJh7lxxQ966Zjke8MecZZYBOm1tK1XLI8zJDvG7dv9m6Vkdb9dxmAN2zZIEfAJhnLzGgnr12uhy5YfMqdYDOyLPNjdCX1YWirJ9PveMXuthmzu0E0HOW0NcMAPPc5QTUc9dQ9RxOuf1nakDdNhc3CXSrT4dWlJEaWSFet943jvqb6vboW/uiDnQxl7cu29PTRyg/N/u/HuzGt++qCLxLV21cys8cdKgaQZuRJttxzws38pqamsC1VLGAGx45qUlN63JEks/VJ/SOmY2gHnfInyRpQNqOGPEyU9EGA2lT1IEuFh8RoFN90wHmlw37aygwd20FUHeVwL6hAsOm9EnLEVl4GHfMIxsD3TbOkqUB6er5yqwnGvYf/k+hQNSBLvpaQH3i9PtTtED+r3W4zC76sWt5W/7ewpdC7TBcfg9VbmkKmzJzrDpALyWnNQI6dcyb04FSlt8Xr5ktjWHlu6IyAF1lqOsCczd25AvqZw8+XJkA7mpZd4+lV71F0oWrPlHHHhzjhkZAjzMyvK6ByPpZzAK0a88Ob72rcWpZgC7sUbXL7zpcZm8qjhzbtz2f8fn/QvU6HS6/L103P1RNZS5s5+7tvLislRpQt837GgGd2mRKU84n23cX3ddRZjsLve4yAd2FugqX33UbmTeMIxipN/2gW0OdvPy/dO280OOHzAWeP+QoJYAuXjdvDHRG5nkxnqimTTx5qcw2FnrdZQO6sDvZ76nrDnM3dgDq/kIdQPcWPvuOv1AJoFNGZjcF9ArX0WTeY8lUb0YtI9BlhjpgXh9igHp9PXKJvQC6t9inzlKqxtZ6QC/qXbh/LoYUpWOnLZjirVc1Ty0r0F2oy/RKG2DeNLwA9aZ18RpXAXRvwfydeS+oMkLnx7BW+9VCPV5mHOPVeKKaftm6Bd56VfPUMgNdJqgD5s1DC1BvXp9M4i2A7i2YL1kzRxmgU5t0rAW6ZRt/z8RgZEgTxixU3swm2qllB7oMUAfMM4MVoJ6ZTqniMIDuLdZu21mhDNDjtnFWLdCpbZamMhKZvv/bbf/nrUeRmqsA9ChDHTD3BilA3ZtedeMzgO49oJ808BAloG4xs3ct0OMOGVnXMGT9fOWIYu89qvkRqgA9ilAHzLODE6CenW4AuvdgfvnwIiWAThm5vxbo1CYvywrxuvXuN/4i7z2q+REqAT1KUAfMs4OS68+Aunf9AHTvwbzsifPVALpNpnwHdEZmuo4k837kq+Xee1TzI1QDehSgDph7h1FTcQdQ96YjgO49mIuFvJqyPQm/m1ELdIuR5RI2oFFHTJrxsPce1fwIFYEubDlf08QC5t4glC7uAOqZ6wmgew/mz37w30YcSWeTEf39i1qgU2ZsjWglPYkd9vzQ3s0nekeoCnRhz2FDHTDPHD5e4g2gnpmuALr3+Pr+olc8McaL3YacdlMS6EckYj8KueDABFzx9WLvPar5ESu/WcK7Jw4IrE/ybVsC6s+8/0DgvazrQith9S8WdEkPdQDdu5svX79QldhX07FX7IexuEMOCsspgy5HrKCDzbsCi1bN4j0GHqyKYTdqR9AjdYzM08PGD9/HSL15nQF077Fvx67KRvHCD1vNRx6dHPOAWHGp+Yd8FO53mSck9vfemziiVgFAvVYKTx8A8+Yh47efA+qp9QbQPblubeJu/TooAfU4KzwiZjmFXf12unzkd/bgw2s7CB+yU2Duihm4/O5BOlxmTw2XIGNAvi6/dx9wYKQDP4DuwXnrJD1z0KGR7tdMfam4tKA4FmfG2ZkeEOV0/7if1ukifMxWAR2g7seCLhiZ5wfmbgzKx0j9vIivnw2gZxf1LhveWQmgU9s4I2bZ5CrXSWTe3zT61Ox6E0c1UgBQbyRJvS8A8/zC3I1TYUMdQK/nBsr88+9RJysB9DgjV8aoTcpcB5F5P+DJS5UxsCg0BFBvuhcA82jA3I1VYUIdQG/aJ2T/tv+Ei5UAusVMO2bZ5j2uc8i8v29yb9ntKnL1B9TrdwlgHi2Yu/EqLKgD6PX9QZX/7nnhRiWAHmfGXTHKjHGuY8i8H/PGHarYV6TaAajv7Q7APJowd2NWGFAH0CMVmnyrzCOv36oE0C2bjIlRRia5TiHz/pn3R/rWwciovgK6Qx0wjzbM3bgVNNQB9PpxQZX/xEOyrg1JvXfIc+IeuhIrrU2dPVEV+4pkO3SFOmAuB8zdQBwk1AH0SIamnCv12qdPqgF0seIaZcZU1xlk3n+4eGrOHYsMmldAN6gD5nLB3I1fQUEdQG8+Psj6q1gDxLUdyfevx6hDpkneiGRnzF4+XVZ7kqreOkBd3L7BpDFywtyNZcf393/mSABdqlCVcWU/XfauEkC3HPMdcQ/9Q9cJZN4vWDkz4w5EwtwU0AHqYv53mf0hXd3LnjifP/72EGXbWFLeJjcjb+JoAL0JURT4at5XH6rhBzb5QAD9s3TOL8PvS9bMUcC05GmC6lCXweazrWPZ4+fxPVW7k8b21HvD1AhmrP4VBQBdnliS75p+vvpTJXzAYmSWuOS+INvAEKXjvly/KN92oV35gHp9iETJH1LVpS7MXYNVEeoAutu72KdTYNm6BUoAnTIyT4zQl6Zyfpm+X71xWbp+w+8BKACoywP1pmDumoRqUAfQ3Z7FPp0CK7/5QgmgxxlZIoC+UiZwp6rrhs2r0vUbfg9IAUA9+lBvDuauWagEdQDd7VXs0ymwbtNXSgCdMrJCAH19KkjK9P23FRvS9Rt+D1ABQD26UM8E5q5pqAJ1AN3tUezTKbCxYr0qQF8XsxjZLBO4U9W1cseWdP2G3wNWAFCPHtS9wNw1DxWgDqC7vYl9OgW2bt+kCtC/FSP07akgKdP3O3dvT9dv+D0EBQD16EBdvJrmPs3utetlhzqA7rXH9U2/Y/c2VYC+TQC9SiZwp6prdXWVvhYZsZYD6vmHei4wd81JZqgD6G4vYp9OAcGOVFyR7PsqAD1db+P3rBQA1PMHdT9g7na6rFAH0N0exD6dAqoBHZfc0/U4fs9KAUA9fKj7CXO302WEOoDu9h726RRQ6pI7HopL1934PRcFAPXwoB4EzN2+lw3qALrbc9inU0C1h+Lw2lq6HsfvOSkAqAcP9SBh7na+TFAH0N1ewz6dAkq9toaJZdJ1N373QwFAPTiohwFz1wZkgTqA7vYY9ukUUG1iGUz9mq7H8bsvCsxd8QHvnjhAlSdKI9EOAa6w1zEY/+59kWh7c08gA+i+uKwWmag19SsWZ9HCaKPSSIzU/R+pn3rHL0KHetRH6gB6VDw++vVQbXEWLJ8afZtTqoaAuv9QP2PQb7gYaYS5RRnqAHqYliB3WWotn8rIh81dupLltwUrZ8ptVZrVHlAH1IOMLQC6ZgElh+bO++rDyN9CyshXbPKBWA99WkaJmf8ByM9yZy+fnkOX4tB8KACo++9TGKnv1RRAz4dHy1nmp8veVQLolmO+E6PMmOonWPOV14eLp8ppTZrXGlAH1IOIGQC65oHFQ/NnfP4/JYBOGXk9Rm3ychAOFXaeU2dP9NCFSBolBQB1QN3veAGgR8nDo12X1z6doAbQbTJFzOU+yW9nykd+z7w/MtpWg9o1qwCgHgzUV21c2qzufv8YlQflAHS/e1bd/J6ePkINoDPybCzOyKP5ALDfZY6eeru6FqdJywB1/6F+5qBDuY5QB9A1CRo+NPOR1weqAvTRMcrMIX7DNR/53fvizT50LbLItwKAOqDuR/wA0PPtyfKUf/fzNygBdMs2BosRuuOHA+U7j8STl8pjQahpswoA6oB6rvEEQG/WxfBjHQX6jb9ICaBT2ywVD8X1ytV5onD8TaNPqdNF+Ci7AoA6oJ5LXAHQZY8A4dX/+kd6KAH0uE3+EYvbxlm5OE5Ujr3ifis8C0BJoSgAqAPq2cYXAD0UF1WikEuHdVID6IycHouzgi7ZOk2Ujjv7zt8qYVxoRH0FAHVAPZs4A6DX9yP8l1oBMRlTNjYWtWMsVhCPFTmFv49axbKpz/H990/dY/hFagUAdUDda0wA0KV2+VArf1y//ZQAenGfwsNjcYcc5NVZopp+5+7toRoCCgtPAUA9GKiv3rgsvE7knIf1njqAHmq3SlvY9l0VSsBcMLmTYx4Q69gr9kPKSE1UIe2lXiu+XiytYaHi6RUA1P2H+ll3HsZVhDqAnt6fkIJzhZZOrSlJxH4QExtlZIsXcEY1rZiTF5vaCgDqgHom8QdAVzsO+NW66QtfVmWE/m0S5vuAviwTJ4l6mkkzHvarn5FPhBUA1AH1dLEIQI+wA0eoamLK8HS2JMPvcUaW1AI9zshHMlQ6XR1HvloeIVNBVYJUAFAH1JuLBwB6kN6nTt73v2QrAXTKyIy6QH+pOeeQ5be+4y9Ux9LQkrQKAOqAeqrYBKCndR8k4JyXPX6eGkAXK625W9whI1M5hkzfXzkiDiPVTAFAHVBvKkYB6JoFgiybe9nwzmoA3SEjXJ7HxBywTTmFbN/97bb/y7JbcZjMCgDqwUB9zbfLQzULP19pA9BD7TppC+sx8GAlgG4xs3ct0C3HOEc2eKeqr3ivEJt+CgDqgHrdmACg6xcDvLa4cscWJWAu7D7OjLNrgR4vM46p6wwyf166br7XfkV6RRQA1AF1N3YB6Io4dYDNWLxmtjJApzbp+B3QWeGPXUeQfT9twZQATQBZR10BQB1QFzEMQI+6p+a/fu/Me0EZoB/DWu1XC3TxgTJSITvMRf3Hvnln/i0FNcirAoA6oA6g59UFpSh89NTbFQG6sbUezPcBfZ4KQO8/4WIpjAmVDFYBQN1/qIsVDWV5UA5AD9a/VMi97InzFQE6md0U0CerAPQL7j1aBVtDG3xQYM6X7/MTEvuH6rQnDTwk1PLC9tlz7vodX7fpKx96J/Msxr97n2dNAfTM9dU15XlDjvJsV2H7WyblWQ55vhHQ44wMz+TgqKcpLmvFseqari7auN1hjtTFGX/lzq3836NOViJQpPJ1GUbqAHpjX8A33ykgGCFYkcrGpfreNu9rBHTqmDdL1QiW+pLi56s//a7n8El7BcKAuoD5nqrdSa1FsNAB6mu//TJU2/LynjqAHmrXSFfYgpUz1YC54KBj3NAI6BYzzlQF6C9/8ph0BoYKB6tAkFCvC3O3FYC6q4S/+0yhDqD7q7tquU2e+agyQI+XktMaAT3ukD+pAvThL9mq2R/a44MCc1d8wLsnDvDVkZuCuVtVQN1Vwt99JlAH0P3VXLXchk6+xdc4kE92xh3zyEZAL0nECikjNfmsmF9li8ud2KBAUwr4CfXmYO6WDai7Svi7Twd1AN1fvVXL7fpHeqgC9OqOiRhpBHTxBWXkC7+gms98MKe7au7nb3v8gHomMHdrDai7Svi7bw7qALq/WquWm2BEPhnlX9nm503CfB/QJ/lXUOqH1sIo4+sta1SzQbTHRwVygbpYctF9AC7TKmkB9cGH86g8KAegZ2qZ+qXbsHmVIjAn3HLIMymBbjEyIAzYhlHGW3Of089S0WJPCmQD9Wxg7lYKUHeV8Hff1EgdQPdXY5Vymzr7aWWAHmekX0qgixVbwoBtGGUMm9JHJRtEWwJSwAvUc4G5W31A3VXC331DqAPo/uqrUm73vnizSkA/PSXQKWt5aBiwDaOMK0fEVbJBtCVABTKBuh8wd5ugA9TPvfsPfMOW1W6TQ9nXhTqAHorkUhZy2fDOygC9qLzlr1ICPZaIfY8yUhkGcIMuQzj0jt3bpDQ4VDp8BZqDup8wd1umB9SPzBvUAXTX0rCvq8D2XRW8S1lrVYBeKZidGuixWCzOyEdBwzas/GctfbduX+IzFGhWgaagHgTM3UoA6q4S/u7FSB1A91dTVXKbueRNVWDOqU0+aBbm4kfKyCNhATfocrCUqipuGF476i7o4uXVtGxrqAvUw37rZOL0+7PtkpTHRX0xj6Vr56WsO37Yq4A6S6aKKV/Jg+mB7hg3BA3asPLvPeZ02DEU8KzAjM//x+3HzvH8aprngvYdoAPUBQzDhnq2/ZHqOAA9lTLyfH/jqL8pM0K3bOPatEAvtguPDQu4QZdz4oCDeHVNtTzWhprmXYEduyr5NQ+dwM8fchT/Zuva0OqjA9TPvTv8e+p+diCA7qea4edVXV3l+9TPQTOsufzjrKBLWqAfw1rt11wmsv22dN388C0HJUqpgAtz18YBdf8nh5IZ6gC6lG5dW+nFqz9TZnQuYpRgdVqgiwSUkZVuUJN9//T0EbUdig9QIJUCDWHu2j2gDqi7NgOgu0rIuX9y2lCVgL4iI5jvBbr5lBvQZN/jPrqczhdmrVPB3LV9QD0YqMt2Tx1AD9Mr/S9LLNrl+rT8e3O8B6Ab18vf4L1B6Lh+++F9dP99Q5kc08Hc9QNA3X+oC0DKBHUAXV63F37etW87dYDukGsyB7pNOrqBTIW9eGoZGxRoqECmMHd9AFDXG+oAekMPkuf/6QtfVgfmjPAix/xjxkAvScR+QBmpcAOZ7HuxmD02KFBXAa8wd30AUNcX6gB6XQ+S6/M9L9yoEtC39OwZ+37GQBcJLWa84QYx2ffCEbFBAVeBbGHu+gGgrifUAXTXg+Tb//2u3ysD9Dgjr3mCuUgcd8hAN4CpsF+1cal8Voga+65ArjB3fQFQ1w/qALrv7hhKhl99vVgZmIv40+ySqalIH3fM7m7wUmH/3AcPhmI8KCS6CvgFc9cfAHW9oA6gR9e3m6uZmAbY9VkV9nHHPC4Vt1N+3ynRvjVlpEoFAUQb+ow9q7k+x2+KK+A3zF2/ANT1gTqALmeQuHnMaSoBvcrq06FVSnA39wNlZLYbuGTfd+v/Yy6m18SmnwJBwdz1CUDdf6gLTaP2ShuALl/sEL4vXl12fVWB/SfNMbvZ3ygjDyggQG1nvj13knwWiRrnpEDQMHf9A1BXH+oAek6umJeDp85+ujb+u74q994c2iy0m/vRss0L5G58/SDTd/yFeTEqFJofBSp3buVXjTw2NIe+8N4/8Y0V60NrrLjiJNZ3VvlPPNAUlW3ZugV80apZkf3DFcjGluI8fm5o/h8GKy3HOKc5Zjf7W1FZwc/CqGRYZXTr14GLERs29RUQ/XztQ91Dd+awR+rq9yRaCAWyU2DbzgrVLrfzzmXGIc1CO92PlBkLwwJuGOWISzDY1FYgXzB37RdQV9u+0Do5FHjt0ydDP6F3Y0BA+znpeJ32d8s27wmocnkRu+zx8+SwRtQyKwXyDXPXV6L4UFdWguIgKCCpAqVjz84LY9wY4Pfeso3BaYGdLkGRbZ7gd8Xymd+xfdtzcW8Vm3oKRAXmrn0D6urZGFokhwIixotY7/qiCnvLKeyajtdpf+9xXaylSvO6i44Vl2KwqaVA1GDuBhBAXS07Q2vkUODlTx5XCuaCwYLFaYGdSQJqkylugFJhb4/rKYdVopYZKRBVmLu+Aqhn1I1IBAV8U6D3mNNVA/qkTFidURrqkGvc4KTCXqyLW7Fjs2/Gg4zyp0DUYe76C6CePxtByXopsGX7t7xreVulgG4x8s+MYJ1JouLygl+4gUmV/aQZD+ll5Qq2VhaYuz4DqCtohGhS5BR45v0HlIK5iB/iFfJMWJ1xGmqbi93ApML+kqHHRM4QUaHMFZAN5q7PAOqZ9zFSQoFsFLhs2F9VA/r8jEGdaULKzKFuUFJlL2Z9wiafArLC3PUbQF0+m0ON5VBg/lcfqQZzTm3j7kw5nXE6apsnugFJlf3dz18vh5WilrUKyA5z13cA9douxQco4JsCg577l4JAN7tlDOpME5YkYgWUkW1uQFJhf0Jif759V4VvxoSMglVAFZi7vgOoB2svyF0vBUQsFzHd9S9F9pW+va7WEPaUkcmKiFTb6VNmjtXL6iVtrWowd/0IUJfUIFHtyCkw+aMxtXHd9S/Z95ZDnm/IYd/+p8y8SHaBGtb/qpFdI2eYqFB9BcQqUmGumtbQRoL+/4J7j+Ybt66r32j8BwWggCcFrhxRrBzQYn+WGgAAIABJREFUqW2c5xvAG2Zk9enQijKyI+gAF3b+S9fN92Q4SBy+AiNfLVfPWdl3y/tipB6+TaFEdRRYunaeivFhR6dE+9YNOezr/+ISQNjADbq8oZNvUceyFW4JoK5w56JpUCAHBe598WblgG455Blf4d1UZtQxzw8asGHn3z1xAK/csSUHc8KhYSkAqIelNMqBAnIoIBZi6T7gQOWATm2jZ1MM9vW7kkSskDKyPWzoBl3ehGlD5bBe1JID6jACKAAFXAUef3uIejBnZNsJvWOmr/BOlZm4FBA0YMPO/4xBv+F7qna7NoJ9xBUA1CPeQageFAhBARGzzxx0qIJANyek4q/v31uOcU7YwA2jvP999lQIJogi/FCgpqaGi2cfwrCLfJUhAtW/R52MP2iQkQ2MffNOP1xLqjwUXCZ1b0yzjTN8B3eqDDsmYoQyUpmvQBdUuZcO68QFKLDJo4DqI/WgbB35fveGgUpajHiZyeO8PtRUwXnbOWXG1s43xoxU/A3ke8rMp1RyBLctn3zxtg9mhizCVABQVxNOrk9i761/73/JDtP98lbWh4tfV/IKnWUbjwUC7eYytZhxpoqOdsujZ+TNQFFw9goA6t6Cvoq+izZ9ZwPDNYD6jaP+piTQaRk5pTn2BvKbuCQgLg2o5kRxx+TL1y/Mniw4Mm8KAOrfBXTV/BLt8d63KkP9i7VzuYjVqtmFxcjmwOZuT3cmQG0ySjVBRXv+88xVeYMSCs5NAUDde+BX0YfRpr12MGxKaW4OFdGjb514hXIwT9qsQx5Mx93Afi9iRmcVHaekvA1fvXFZRE0Z1UqnAKAOqKsYl7Jt07ApfdK5jFS/r/xmCe9S1lpNoNukY2DAziRjyshn2RpalI+7/eleUhk5KltfAUAdUI9yfAm7bgLqqrzBk3jyUjVhzsjsTJgbaBrqGDeEbZxhlFdc1op/ueHz+pTAf1IpAKgD6mHEClnKuPv566WH+rJ1C3ixU6gm0G3yr0BhnUnmJYm2bVWcClY4qTgTxCa3AoA6oC4LcMOo512TrpMa6mVPnK8mzMV06nabdpkwN/A0cWY8HoYxhl2GOBMUT1Nik1sBQB1QDzt2RLm8wZOulRLqYolUVUfncUYeDRzUmRYQZwVdomzAudRNnBFik18BQB1QzyUOqHasjFAvHXu2qqNzHmeGlSlvQ0lHHbJANaMX7RHvOi5Y+bH8REMLlF+lTUX/Q5uCOxG787lreHVNtRSRYdGqWUq+d560b9tYFIvFWoQC6kwLiTvmLao6nzgzxKaGAhipBwcIVf1f5XbJAvWbRp+q7Oj8/0/QdlOmnA0tXVHvwv0pI7tUNf45X76vBtHQCozUGaCuapzKpl2DnvtXpEfqny57V2GYk50lN7fqEBqovRREGXk6G4OS4ZjLhxdF2ujBaW8KYKQOqMsQd8Kq46Bnr45kfBO3BK6431IW6HFmPumFsaGmjTvmcWEZYD7KEWvvYlNHAUAdUM9HHIlqmVGE+osfjVYW5sIOLKewa6iQ9lqYxcisqBpsrvU69faf88qdW9UhGlqCy++4/K40MLzGPLGORVQelNu2s4KfescvVO6fj73yNfT0cce80KsRyZT+wdf6AYOKKYCROkbqMsWgoOsaFaiLdd2Dbmte87eN80IHtNcCO/aK/ZAysiKvQgU46uha3pav/OYLxZCG5gDqgLqqMSubdt3xzD/zOlJftXEp79q3ncpAXylY6ZWveUmv8itswjkw2YyaJwCAOqCeDfxUPSafUFd5EhlhL3HHuDEvcM6m0E6J9q3FQu2qGrpo18wlb6pJNY1bJVajGjr5FpVHBWhbgFfvVIx3/Sdcwqurq0KNCp988bbqdrqlW2m7NtmwNW/HUGYOUdHA3TZdNuyvoRt6qF6laWGAOkbpro9jv9cWBNSrqveEEhH2VO3mF93XUWmgW7YxOG9gzrbgkj7GTygju1V2ignThoZi5CgkXAUAdUBd5biVTdvCgvq4t+5SGuaCicVlxk+z5Wpej6PMHJ+N8chyTLd+Hbh4eAObegoA6oC6LHEorHr2n3BxoCP1ld8s4cf1209toNtkbF6hnEvh1CYdwzK2fJVz/cMnSrkUoXoI9r9FgDqgnq+4EtVy+42/KBCoC1+74ZGT1IY5I7zIMf+YC1PzfixlxltRNU6/6vXyJ4/5TxPkGAkFAHVA3a84oUo+QUBd9RnhRN/HGXkt70DOtQKWQ3qoYsip2nHSwEP4xor1kQAQKuG/AoA6oJ7K93X9vu/4C30bqX+zdS0/ccBByo/OqW12y5WnkTieMvNd1Q1f3F/Cpq4CgDqgrnoM89o+v6Au5vXwWraE6d+LBIz9qIQ4M5GwAzwb2bT5k9UlGlqWfFYC76kD7DrEskzbWP7EBVy8apbtNn3hy57jbKZ1i1Q6u7DED5ZGJg/KzLcjJXAAE0ycMeg3WLwlW8+W5DiM1AF01eOY1/ZlC/XKHVv46f/5lQZAN6ZGBsR+VcQqLaBeDUXG9LdN/IckaEI1s1UAUAfUZYxNQdZZXDb3OlIf8OSlGsCccIsVxP3iaKTyoYy8HqRRRSXv1z97KltW4DhJFADUAfWoxJuo1MML1F/7dIIWMI8z8lKkIOxnZYps8hfKSE1UDDCoenQfcCBfu2mFJGhCNbNVAFAH1IOKIbLme8ujZ/Lde3Y261LrN6/kPQYerAfQy4xj/GRo5PISZyyyGquXel/z4PGY671Zt1bjR0AdUPcSF3RI2xzUq2uq+bUPddcC5pSRSZEDsN8VijvkTzqM0oXjinmJsamvAKAOqOsAai9tTAX1MW/coQvMa2ipeZTf/IxkfuLMxYtxyJq2S1lrPv+rj9QnGlqIV9oCeGtEVr9Hvfee4N3y6Bn1Lr8vWPkxLylvownQzaciCd8gKlXkFP6eMlKtg+H//a7f8207K4A8DRTASB0jdR1impc29h5zehLq23dV8HPvPlITmJOq4j6FhwfBzsjmadnGY14MQ+a0g569WgOcoYlCAUAdUJc5VgVRdwH1gU9dpgvMRTtHRxa8QVWsc5lxCGWkMggDimKek2c+CuJpooCA+rApfZJP8oqnefEHDXS2gW6qL4la73aTsTXukIOC4mak87Vs0jeK8A2iTsf2bc/FPSRsUAAKQAFdFFiwcibv2redPqNz2yyNNHSDrFxJIlZgMbI8CIBGMc+z7jyMb6r8WhdfRjuhABTQWIHN2zbyswcfrg/MGVna47pYyyCZGfm8Lcc4J4rwDapONzxyEt5P1zjIoelQQAcFqqur+E2jT9EJ5mK989MjD9wwKqjDwi11TxD++2pfHXwabYQCUEBTBUa8zLSCucWMN8JgpRRlFDnmHykjVXWhp/LnuGPyt+Y+p6mro9lQAAqorMC781/kIsapHMMbtK0q7phHSgHbsCppOeThBiIpbRDH99+fL1+/UGW/RtugABTQTIEVXy/m3RMHKB27m+DUA2FxUppyOjnmAZSRLU2IpaxxXHDPH/mW7d9q5vJoLhSAAioqIB6CO2/IUcrG6xRs2lRyc6sO0oA2zIrGHfOWFKIpayRiEZd0qxOp6PxoExSAAuoosLtqF7/+4ROVjdMpueQYN4TJSKnKOiIR+xG1zcUpxav3Ar86M1KJWZTEZCTYoAAUgAKyKSBiV/8Jl2gIc7KgY6/YD6WCbNiVjbOCLrqsxlb3xOWR1wfK5seoLxSAAlCAP/haP/1gzki1xQriYfNRyvIoI4/UhZ0unyfNeBjhAQpAASggjQJTZo7VEeaizXgQLtOzi26l7dpQRlbpAnK3nWJpwY+WvCGNM6OiUAAK6KvAJ0vf4V3L2+oI9DUlibZtM+UZ0sViMWobPV3Q6bQXr3x8sXauvlECLYcCUCDyCixbt4CfOOAgHWGOGeGyPUOhjEzSCeZuW8Wc7xs2r4q8U6OCUAAK6KfA+s0r+ZmDDtUS5pSRp7PlmfbHiWXoKCObXNDptD/37iP5xq3r9IsWaDEUgAKRVeDbig38gnuP1hLmFiObxbLf2oM5FwEsm1ylE8jrtvXioX/BxDORDW2oGBTQS4GKHZv5ZcM7awlzEZfjNvlHLizDsXsVaCEmvq8LOp0+XzmimG/bWaFX5EBroQAUiJQClTu38itHxLWFuVhALBaLtQCUfVCAspaHUkZ26ATyum29auSxfMeuykg5OCoDBaCAHgrs3L2dX/tQd41hTnZ2Zq1+6wPKkIWrALVJWV3I6fb55jGncTG9IjYoAAWgQFgKiGmpdVvXvCFbLGbaLoew90mBkkTsB3FG3m8otk7/s8f+zquq94TlyygHCkABjRWorq7ifcdfqPPIXLT9vZ49Y9/3CWPIpq4C1C74JWXGVp0g3rCtiScvBdQ1DrJoOhQIQwExcNByfvY664WIp9pL7IKf12UQPvusgMXMSxpCTrf/S8eezXft2RGGX6MMKAAFNFNA3Nore/w83Ufm3LLNC3zGF7JrSgHKzPG6Qbxhe8VShdt34el3zWItmgsFAlVgx+5t2t8zT8Zax5zYFHvwXQAKiHl0KSNfNoScbv+LtdTF6yTYoAAUgAK5KiAGCNc/0kP7kTll5Ctqt2kXALqQZSoFxNJ1lJEq3SDesL1X3G/xzds25urLOB4KQAGNFdi6fRPv9UAXwJyRarGEdyru4PsAFYg75I6GgNPx/wvv/RP/essajcMRmg4FoEC2CmysWM8vGXoMYM4ItxgZECCykHVzCohX2SgjM3SEeMM2nz/kKC4WTcAGBaAAFMhUgXWbvuLnDTkKMBdTuzLyUcdesR82xxz8FrAC+2aRq2wIOB3/F6u0LV03P1NfRjooAAU0VkAs06zxqmkNTmKMrUXlLX8VMK6QfSYKUJtcriPAm2pz9wEH8plL3tQ4TKHpUAAKpFPgw8VTeffEAQ2gRvT93zEvzoQ1SBOSApZDHm4KcDp+16WsNZ804+F0Po3foQAU0FCBlz4ex0vK2+gL7zqTx+zjwwMhYQrFZKpAj+tiLcU9EB0BnqrN903uzatrqjUMWWgyFIACDRWoqanho6beBpDXB/oMwY5MOYN0ISpQXGb8lDKyIRXgdPxezMWMWeUahjb8DwX0UkAssjLwqcsA8/owX1/Sx/hJiIhCUV4VKLYLj6WM7NER3qnaLJZf3VT5tV4RDK2FAlAgqcCW7d/qvvxpUycyVZZjHu+VL0ifBwWobZamgpuu34vX2r7c8DlCHBSAAhopsHz9QryWVn9UvhfujnlzHtCEIrNUoAV1zIm6wjtVu4/vvz9/c86zGoUzNBUK6KvAtAVTuHjrJVU80PZ7hzwXi8VaZMkWHJYPBUoSsULKyHxtjbaps1IxeYJjcvGwHNZV1zfQo+VqKyDWMR/5annS1xH/GryKZxuLOiXat84Hk1BmjgpY5a0Oo4xsgVE3MGpGkvfUxJSP2KAAFFBHgc2V3/B/jzoZo/ImBzTG1uI+hYfniBUcnk8F4qXkNMpIDaDeGOpnDPoNn//VR+pEM7QECmiswOerP+VnDz4cMG8S5qQmbhtn5ZNFKNsnBahDEgB6Y6ALTbr2bcdf/Gi0xmEQTYcC8ivwyqwn+HH99gPMm4a50KXcJ5wgmwgo0ILaZCyg3jTUhS53PPNPLtZDxgYFoIA8CmzbWcFvm/gPgDw1yIU2oyPAIFTBTwXEKjqUkdcB9dRQF5fr5nz5vjzRDDWFAhorsGDlTH7u3UcC5s3C3HjriETsR36yBHlFRAHxdCNlZA6gnhrqYh54MT2keFIWGxSAAtFTQPjm428PwXzszYI8GePmlyTato0IflCNIBQosQt+ThlZC6inhrrQ5p8PlPBVG5dGL5qhRlBAYwXE+uXXPHQCRuXpYb6mqKzgZ0EwBHlGTAFqk46UEayhnsYpxPKKr306QePwiaZDgegoICaF6jHwYMA8TdyijGynzOgUMeygOkEqsO91tmqM1JsfqQt9Bj51Oa/csSU6kQ01gQIaKSB8DwurpI9T+2J5FS0jpwTJDuQdUQUsZvwbQM/MUU6745f87bmTNAqjaCoUyL8C0xe+zM8cdChG5elH5UmN4o5xXURxg2qFoQBl5lBAPTOoC536jD2Lb9iyOv+RDjWAAgorsHHrOn7rxCsA8gxBvjeGm0PCYAbKiLACPXvGvk+ZOQFQzxzq4j7elJljeU1NjcIhFU2DAuErIHxq8kdj+IkDDgLMPcA8zozHY4nY9yKMGlQtLAX2Qp08DahnDnWh1TUPHs9XfL04/KiHEqGAggqs3rgM87B7gLgbry2HPF+SiP0gLF6gHAkUEJMPUJu87BoJ9pnBXUw3Kd5b31O1W8EQiyZBgeAVECsfTpx+P+/W/8cYlXsH+usliViBBIhBFcNW4ITeMZM6ZBpgnhnM6+p0ydBj+CdfvB189EMJUEAhBWYueZNffN+fAXLvIOeWY77TMREjYXMC5UmkgJhNLs7IR3Vhhc+ZA148NIcJaRQiDpoSiAIrv/mC9x1/IUCeBcj3xeNPMQucRGDNZ1WFoViMzALIMwd5Xa1Kytvw+yb3xrvrgaAAmcqswI5dlclbVGKVw7o+g8+eYs2cY1ir/fLJCJQtmQJFvQv3pw5ZAEfz5Gj1gtTJt/4keW8Q88LLjCDU3Q8FqmuquVji9NTbf17PRxBfvMWXOCNL4g45SDKcoLpRUKC4zPgpZeRLOJ03p2uo1+XDi/hny6b5EReRBxSQToFPl73LLxveGSDP/vJ6UjuLkeUiJkeBDaiDpAoUlbf8FWVkdUNI4X/vkO895nS+cNUn0gVkVBgKZKOAWN70ptGnAuQ5gnxfrF0tYrGkGEG1o6TAvhXavgDEvUO8Kc3+Pepk/vnqT7OJkTgGCkRegaXr5icfeIs7JmDuD8y/7Gy3/HWUmIC6SK6AuG9DGZnXFKDwnXfQi2AnnohfsmZO5AM0KggFMlFg+fqFyelai51CgNwfkHPKzM9xmV1yeEa1+p0c8wDKyGcAuHeAp9JMBD/x+s5XmHEuE2YgTQQVWPPtcj540rW8uKwVQO4byJMxZr7VhxwcVR6gXgooIF6XoIzMTAUofJ8d7LuUtea3P30lX7p2XgRDNqoEBRorIK4uiQVUhO3C77Pz+1S6iblAOidat1cAGWhC1BUoScQKLWa8kcoY8X1uzn31f4/j7y18CYu/NGYIvomAArOXT0/eLsI98tz8PHWcNN8VE3xFnQOon0IKiCkH44y8ltoogzJ2ffIV08m+8OEovmvPjgiEcVRBZwXEWgVvznmWXzkijtG4v5fVG+hpvCkGTAqhAk2RRYHkgi6MPAuoB3uSceodv0jOrrV1+yadmYK250GBbTsrkpMjnTno0AbgCdbmNY0pk7HQiiz0U7SeHXvFfoj11MMJbt0TB/B7X7wZ99nzADbdihT3x+998SZ+QmJ/gDzQEbkbO4wnsASqopCUrVnJ9dRt8z5Nz6rzEvB6PdCFT575KN++q0I31qC9ASkgRuMvfjSaXzmiOC82rWv8sGzznlgi9j3Z4j7qq7gC1Ca9KCN7dHXMfLRbrMcuXnsTy1BigwLZKLBo1azka2fH98doPGQfroo7xnWKYwHNk1mBeCk5jTJSGbJjYETBCL90WCf+zPsjOe61Z4M1vY7Zsv1b/sz7D/CLh/4FvhPKJXX30nrtvpKWkVNkjvWouyYK0FLzKMrISkC91nlDDZpigg/x6pt4Qr5yxxa9SIXWplRA2IJY8UzMUNi1vG2oNolYUC8WrLXKyJ81wQGaqYICncuMQzCrXD0nzksAFetOiwAuAnnlzq0pgz1+UFOBnbu3J+c0EBPAdOvXIS82CJjXiwPzisoKfqZCjEcbNFPA6tOhFWXkFTh0PYfOW1A9tm/7WrjjYTo1AS5aVRfiuC8eDd/bGwONqSWJtm01wwCaq5IC4lUM6pAHAfUoBRbCxcN0YtW3x98ewsVDUdjkVmD1xmXJWyziAUm8ahYtXxOxz7LJGPGKr0qxHW3RV4EW1Cb9KSM1AHv0go3ok3Pv/kPyveP3F73Kd+zeJjfdNKj9jl2VfPrCl/k9L9zI/37X7/N21Qf+nNafayyb9NU39KPlyioQt42zKDO2IgikDQJ5DdDi0vxNo0/hT703jH+xdi6vrq7SAJHRbqLog8VrZvMnpw3lN476GxfPRsCPou1HlJEtcUZOVzago2FQgLKWh2Jd9cgHonqwEPdhxVPzI18tTz5gVbFjc7Tpp0DtxAhcLIIibomIhxp7DDy4Xp8A5hH3IdtYFGeFRyDiQwHlFRAPy1kOeQZBKeJBKcX7uWK5zH/cT/nQybckF+zYsGW1AgjNbxM2bF7F35jzDL9vcm9+xf0WliRNYXtSxAzHnIgFVpTHGBrYQIEW1DFuoIzslsJJZQ4wIdT9xAEHJUfxgyddm1zMQ4wuxSgTW30Fdlft4svWLUi+RiiueIjRt1h8Bz4g58ltg36rorZZGovFWjSIdfgXCuihQNwxj6OMbGjgGAhwIUA4aM3FBDfnDzkqOTXto28O4u/Me4GLRT90eB9etFG09e15z/Mxb/yHlz9xAT9vyFFcaBK07sg/LycH66ldWKJH1EYroUAzChSXGT+NM/IRAlFeAlFeAHPSwEP45cOLeNkT5/P7X7KTU9a+v+gVvnz9Qimeshfveou6ijo/+8F/k20QbRFtEm2DLetjy5SRGSV9jJ80E+LwExTQS4Ee18VaUkYeQiDUKhCmBJ+Y1UyswX3ZsL8m35fvP+GS5Ctaj7x+K396+gj+2qdP8hmf/49//MVbyffoxbv04lK2eB9b/G3etjE5p33dCXTEZzHPvfjNTSeOEceKP5GXyFPkLcoQZYnXwkTZ4p19URdRJ8y4Bht141TcISNF7NIrWqO1UCBDBeKOeSllpMJ1GOwRPGEDsIHo2YB4/da8KMOwhmRQQF8FSuyCn1NG3oueEyOwok9gA7AB8mFnu+Wv9Y3QaDkU8KjAviljE5SRKgQQQAQ2ABuIgA1UUccYhClcPQZzJIcCrgJWmfFXysgXEXDmlPd7UTfABjagvA18WVxaUOzGJeyhABTIUoFOifatLdt4DEFT+aCJkyYFXldUzk8dcyK127TLMnzhMCgABZpSgNpGT8rIt8oFDARxgBw2EEUb2IIH35qKxPgOCvikQFFZwc8oM98F1DFahw3ABgKzAZt8UFTe8lc+hS1kAwWgQCoFxANzcUYcysiOwBwaI6YojphQJ9hl0Daw3WKm3bNn7Pup4g++hwJQIAAFxBk0ZcZUQB0jNdgAbCB3GzDf7cxa/TaAUIUsoQAUyFCBFtQxL6aMbMzdoREUoSFsQDcbsBjZLBaKiiVi38sw5iAZFIACQSpQcot5IBVPo+KSZNCXJJE/bEwlG5iMediDjMzIGwrkoAAtI6dQRlYC7BhpwgZgA83YwJo4M87OIdTgUCgABcJQoFtpuzaUmUMpI9XNOLRKowy0BaNm2EBmNlBDmTGuc6J1+zBiEcqAAlDAJwXirKALtY1FgDpGarAB2AB1yAKLFcR9Ci/IBgpAgbAVEPMuiwdeKCObENQR1GEDWtrAJmqbpVjmNOzoi/KgQEAKiEts+y7DY7GXzC5N4hIudJLdBqrF5fWi3oX7BxRWkC0UgAL5VKC4T+HhlJFXMVLTcqQmO6BQ/4xPsow3aal5VD5jDcqGAlAgJAX2PQ2/FGAH2GEDStnAV2JeipDCCIqBAlAgKgockYj9aN/99S0I6koFdYxkMx7JKtPvldQhiZJErCAq8QX1gAJQIA8KxB1ykGWTMXjNTZngDqDrA3TxaupoMbFUHkIHioQCUCCqCuy9v26MA9gBdlyxibwN1FBGJuM+eVSjKeoFBSKiQJFT+Pt908iKoIHRHjSADUTLBl6PO+RPEQkXqAYUgAIyKBB3zCMxPzxOaHBSFxkbeL3IJn+RIXagjlAACkRUgSJmdE5e3ovWKAWjRvSHLjbwnpj1MaLhAdWCAlBARgWs0gJKmfEmRmyRGbHpAjQ922mT6XHHPE7GWIE6QwEoIIkCRbZ5AmXGVIAdYIcNBGID/6O22U2ScIBqQgEooIIC4glb6pAHKSM7EdgDCex6jkz1vJWwWzyvEi8zjlEhNqANUAAKSKqAeAdWTGpBGfkWYAfYYQNebMDYKtZYKC4zfiqp+6PaUAAKqKiA1adDq30zz32JoO4lqCOthvayZu/Mbm3bqhgL0CYoAAVUUSAR+96+ueJnaBiocZlcz0vmmfb7Z2KudbGssSrujnZAASigiQKWU9iVMvMpysguwB0jcU1tYJfwgWK78FhN3B7NhAJQQGUFShJt21Kb9KKMzNE0qGc6gkM6ZUb45ufUNkuxHrnKkQ1tgwKaK0Bt0nHf0/GVgDtG7YrZwM7k7Ip7Xztrobmro/lQAArookC30nZtxKjdYmSWYkEdo2xlRtkZn3DNF6PxY1ir/XTxX7QTCkABKNCkAuL9W8shD1NGsDa7fjCU8gTIYmSzuNKE+dWbdGl8CQWggO4K9Lgu1nLvE/JiGVfxjm7GIyQpoYD2Sde/25PrGogn1RMxoru/ov1QAApAgYwUKEnECr6DO6kA/KSDnyonWbUQL0nECjMyXiSCAlAACkCBphXofGPMqAN3PEyHKxdBnyzscEfiYsKkpq0S30IBKAAFoEBOCogAG3fMC+OMvEAZ2YaRO0buPtmAOFGcRB3zfIzEc3JRHAwFoAAU8K5ASSL2g+Syro4xiDLysU+BPejRH/KPzhWGpclXKMvIKeIWj3cLxBFQAApAASgQiAIldsHPkxPYOObE5FPI0QEHIB6NvhBXdF4Xaw4UlRX8LBAjRKZQAApAASjgrwJNjN5rMILX8vL8UrGimVhjXLxF4a+VITcoAAWgABQIXYGSPsZPqG2cF2dkOGXkU8pIFQCvHOBFn35iMTIs7hjndi4zDgnd0FAgFIACUAAKhKvACb1jZvL+u22WJp9oxnruMt4WEK8zvkeTLy2wAAABp0lEQVTFMxRl5BRqt2kXrhWhNCgABaAAFIicAj17xr5fbJOj445xHWXmBMrICozgIzeCX0GZOd6yjWuLHPOPos8iZ0ioEBSAAlAACkRPATHf/N5RvFgpzhyaHA0yTHITwomOWG53PmXGODFHuhh9d3LMA6JnIagRFIACUAAKSK2A1YccvPcSr7hcL6apFfDBPfksQb9m7yQuxiDqmBdbpYW/iyVi35PaQFB5KAAFoAAUkFcBcU+elppHxRk53WLGv/c+WU1e3LsGvNbz0osFd2YnJwKyzfvEK2PxUnJa3DGPxHzo8to7ag4FoAAU0FaBkptbdbDKyJ+pbfSMO+Yt1CEjqE2mUEZmxBlZIuN786LOou7UJh/sa8v9FjN7x5lxtlj3HsuJamvuaDgUgAJQQG8FxLvzJbeYB4rLzsWlBcXUNs6I2+Qflm0yaht3WzYZQx1zImXkFTFBisWMN/bNkCdmyROX/Zfu+9tI9z61X3dRG/H5W8qI+M1NJ44Rx368L6/Xk3mLiXlEWaJMZtqiDnuvPBTE46zwCHE/W9RV795C66FAtBT4f72c5lXDYJqCAAAAAElFTkSuQmCC;" vertex="1" parent="1">
          <mxGeometry x="444" y="234" width="50" height="50" as="geometry" />
        </mxCell>
        <mxCell id="gEV-0_07iIvLEzTvhgMC-12" value="WebCocket" style="rounded=0;whiteSpace=wrap;html=1;" vertex="1" parent="1">
          <mxGeometry x="435" y="287.44" width="70" height="20" as="geometry" />
        </mxCell>
        <mxCell id="gEV-0_07iIvLEzTvhgMC-14" value="" style="shape=image;verticalLabelPosition=bottom;labelBackgroundColor=default;verticalAlign=top;aspect=fixed;imageAspect=0;image=data:image/png,iVBORw0KGgoAAAANSUhEUgAAAPcAAADMCAIAAAAgU6JqAAAgAElEQVR4Ae2d30scyb7A+18IgbAQnzIwIAPKZUVEkHAJyduVEzjxwX0IkZ3RKM6IgY0PEUIYzlty4ZLxKTAGlgmBnLjkIe4585DFuASyB2TYBUE5wmaCCGIIJoqRQN/z7eqUNfWra3qqZ3omX2mkuqe6uupbn6r+1re+Ve24+IcS6HQJOJ1eQCwfSsBFyhGCzpcAUt75dYwlRMqRgc6XAFLe+XWMJUTKkYHOlwBS3vl1jCVEypGBzpcAUt75dYwlRMqRgc6XAFLe+XWMJUTKkYHOlwBS3vl1jCVEypGBzpcAUt75dVxfCT8funt/wPH5sL4bYxwbKY9x5TQ/a7u/uSXHLXrHk3Pu7m/Nz0IUT0TKo5Bqe6b58Q3w/SNzFB3307v2LExNrpHyGnF81Sf/+puE8t8XOkAmSHkHVKKlIvzyvfuQ6ch/dOB0NWsp9VYmg5S3UvrxejZSHq/6wNxEIQGkPAqpYprxkgBSHq/6wNxEIQGkPAqpYprxkgBSHq/6wNxEIQGkPAqpYprxkgBSHq/6wNxEIQGkPAqpYpohJfDxTSQT702j/NM79+ObkGUPdRvOCoUSW6tu+vNn8DMh3lTLFyyz0gTKP75xf/rWz3/Jcf/8uTmCRMqbI2cbT9n9rcbPhMzGW3QbjJryty+gibJOBEUHXHyj/0PKo5exrSeIFJJ+fX3RzhPE9C36sfy+UNNEiefjQ8f95Xs7mdemgpRrxROrH5+cq3GLpS6yRUs+Vb/O1XS0pN/9dc6CDFazEsRJ+v/4i4X0g5JAyoMkFJ/fxb6WBX35QqOre96+4FksOo0upPh86CviNKtswOK7QltNSLlWPLH6ce8PnkKOmB8bVnN/nYNHPPSOouM22JHv/cEr4myGibrVFGMLUh4rkIMy8/aFjyCHCz192LDh4u0LgPvXOffti6DcaH//82de/6GZpGNQi0NnbV6Qcq14Yvjjxzfuk3M6gIqO+6+/tTjj4rIjDvEn5yybQbUFRsq14onnj58P3X/8Rae9FJtku5CL559/DcjbP//a6BBC/mDlVaRcKZq4/0B0aLaPZMOtAv2X7wMQb8V7BimPO8y6/P377wFINWVsd5JDcRcAtuE9dNx///0kchNDSHkThR3Fo3Z/U9oxik6jI8h6M/znz/JWR+Y7mzLNKc0yUi4VS1td/PRObpMuOs0c4YHIpLbOogPZa+m+Lkh5WwGtySynEBcdGKGa/30+hCbx9gUoFfR4+wIu1rWVHDcstjUva14QWUykXCaVNr1GfEWIx+Jq1ojOT+/c9UX3n38FtYfcKP4veRab9UWj/vjzobt84SQpWz42jdUIUt6Y/OJ29+dDmJM3UQ8+vgFPKcI06yfIjhdp+OGXNvDL90ZehB/fQDbqeglEKUmkPErpxjPtz4ewYxaZyaccGwYI7r/OxYdgExkj5SZS6qA4gT4CJriTTUMbdAFoolCR8iYKu+WP0k+8m/DNxik6bpvsFYqUtxy9ZmVA5eTNgltvuHG/xaaUHilviphb/hC9O0C9cLPx4+AcFiRepDxIQh3w+/oijDVZNO2Giy2bujesHKTcUFBtG006H2mX8iauhwhXDUh5OLm1z10/fatzRreF+0MHJoPi+oeUx7VmrOQrhK5CJ4ACp4q4FhJjvQUpt0JTXBPhQNScErh/+hYmjH5fgGM16zuBmeP+5Fw8BYGUx7NebORK733OEk9cu6SesXt/BKxL4tJp1nZZdQkIKa9LXNFH3vsDHANNDimUbAb/8RcjjdxE0zDUfB4GOUISNxuT0hF3SLY4DYSR8gaEZ/dW6iYuegWqrmj8tj+9M7Iemq+0MHwzFB2liwu7yaOqRNx1SytEkXK7qDaQmn5lPqsY0PBDB9bzS/9Uy3bovcT8V9cqTBMHAVWzCWfQrNdLXioK10XKFYJp8mVxXysWR01YRdW//hasrjw5p+x3VcXX5IT89FCxT4a4PV1gUiSCjRVPSLmqPpt73VAfEMlQadXLFwIoD+drFdh4VBt8rmYD8iMWjVLe8OZESHlzaVY9Tb/6XUUA0Tqkw9BS0JR+uF2VTRSPn76VlFK6562mXPQnjaIveYz8ElIul0sLrobwGdRsukIpUQWKoar+07vgLlk6VPh86Ja8BUeq/Eivh3vhCJUXqqhCKnjBjgR+X4DRZMkxOp6cU7p3fz4M9s0KTbkUR/ZiSWFm+fQOZpoMS1fyVv5b2r8FKbfDp81UPh/CoDDw0DwyUsoDdSEV5STDgeWiETQFrPMnpLxOgbVF9DhT3goBIuWtkHrUz0TKayWMlNfKozPOkPLaekTKa+XRGWfEoPGjehRL9skPUdhP72D4qE9Zr5eHeGjDtyDlDYswBglUNqqra5s1x//9z6r++N//ronP3a46/W0tIFny0NrbKxvV1goJKW+t/Bt9+rPya6dv2kmknWSm5vivWSfw4G4xPA1M9r9ma3KSzDiJ9KnzN1bXNhstbdj7kfKwkovBfatrm87ZMWcg5wzOxP3ozzrd4+tb2y0RG1LeErHbeejl3H3oyOOPOMlh7+T120U7Ja8zFaS8ToHVRn//4bD2QvPODo6Oz1yaa4+OnFDuvXOaJyDmSWEo39nbr2xUVcfO3j6TfmcGd/b2b957nBye/+bCD8nh+fzC04Oj4yYXtf0oH5xx+qabLCXyuDCULy6tOKev8iMMMnY5ffVZ+XVLStK0h4I2nEg7vZPQjw7knP6s0zPl9E5Wt3eblgfXdZFyc2mHofzR81dOakKuDnaPdzbl7z8cgiosDvj6ppPD8+ZybzwmUm4uQ6TcXFYQE1p497i8hSczzWzhSLl5zSHl5rKCmPmFp6CrSM0afdMjs4X6kmsgNlJuLryvkfLKRnVktnDt1gPpoZddoVQGLVxKeX+2mUoLUq6vKfbXr5Hy5ZcVp2sM1Gvu6J10khlWOmK4slGFe6WUD+SQcrlkqLjayMbS7qNPoFylW/dMiWRzV67degD2JXEA2p+9mL7LRY7uFPtyc9l+rX15A5SfaOfEnkg7qt7Jm/cem4u+wZhIubkAkfJaDxCDvpwKd2dvv2Yw2j3+6Pkr+mvUgQgpF19TtCU3GECNJWosaPoNaiw0Hdd1k8PzvuoykHMS6WbO+9qnfCAH0yCJNOjWvZP+zFeDWHO3I+UsPfrwwdExOfTRVL/aovxi+u6JVbFv+tqtB6onRnHdMuX9WWcgt7i0QrPqv6mSmYABJcex/hQpp/KVBiob1UKpfDl3P3XlzplLc+QYGs2PzBYKpXKgS+f7D4fkODg6Bp9slV7eO0lj0gDno7Kzt//o+SvoxanhfCDndI1JZ/grG9XFpZVrtx5cTN8dGs0PjeYvpu+OzBbyC0+XX1YacfaySbmnokjz78vKlg6DlEvhPjg6LpTKgFQiDYbqvmnwG/E6Ht+HpG8a3rNdY6krd5ZfVqSJuK4L7ntnx8AI2DWmRJz0Q4m0H41EPn2Vnes5ODqGnHSP19hYEulCqcw9ulAqnzp/AyKnJk6yTTLfNw1l6R53Eumh0fzi0grXkLikpKc2Ke8e1yxxuHnv8Ul71nfVgb8i5WJdgsmSKIsmfUl/1klmLqbvSpXj1JU70DYCq0GMUKuKAOWDMyeIe+p4fuEpm/nKRhUaVfe40RO95QXO4AyrLbCpqcLWKO/Ppq7cUT3FdV1w3SHKuiiceq8g5ZygwSydSJ/wZChQb6JHXGhon/L+LHTSPVOc7wp4LCYzRnyzJfJay+XcffNO3RrlBgZQa47sSDml/ODoeGg0DwyxHJiHve6f09RtUu75GKeu3CmUyhyU1e3dMC2TFM0DXaM5UPmQgDXKe6ZEdYt7FlRHuDchV2tIOZUs2C5UviIDOdBxeyehDfROQpiTIzntz565NEcTdF3XFuWu666ubUqVItd1IeeqLJGck3GFmOc6EbfpX27gZFajpImZN7+ClBMowR1Kar0iCvrgzPXbxUKpvLi0UiiVr98uKllPTbDqMlBO/MLJ0gdNxZAI9H/vpKGJEFxcVPqr914amS1cv130F2uy49eBnNM7KWpZbCsVw9b6cm8hCPdSYh/nrxrRSMz8J6TcdV1446sUle5x6cKznb19ZQ+amqCmuqHR/KnzN7658AM5lOr+QI7GIYFT528YrslVuiv2TrLtjXTDz8qvQdntmYKc9EzVi7jNvtybA9L4JoR/DYr0I+Wu6yqNVom0xkoIdg9iW+TEmpqQapzrW9vy14VX35peje3hxDAMl0V1ReuoCO+iRJobQogpS69Y68uJ0JIZEfSdvX3QyOm0ACfeEKdIOVispAI12OFAvoRH4fDtjxGllVSPHwsHn/yVosgDvVel4tMIqoBlygdnnLP8xJZSe5SKzuQiUi4ndXDG6R6XTsux1Q8tRDQCDOSk90ZE+chsQdKXf9EHQr8i2GKyYfuUJ9KcnIFylQJpwrQYBymH17fijV/d3t3Z29cc1e3dE8cpVripCdFPMCLKlXo5cX7qGrucu/8fJ4XKRpWOFlhq6w03gXLYrAEpl1jxGljDL8eUTDQS62HvJKg00kNsHoR1YeTnj3FVxpAGNBawsUitQ7TVEWeEZObU+RsX03fDTezTxoCUU1EEBmLkX847h1A4GgnIjMER9eWu68IAVDq04IpAbOeeyV9qOAqsNss2FpI9QWPBvlwxMRm2Lwc7iWo9JYdIXaeyVWrRUX5wdPzNhR8kepcmz55KYD7lSRuA/b48meGsPTVrRDRFMP/pK9fLo6NcdEWKjnLXdXf29kH1ki4MVdHgTXxqTKWUbDZgn/K+aXZm4ODoWKlDqgoSeP0rp9x1XV1fTjZqI26rdf2XbXkVKeUExMWlFUCEeAuLxh8pDWfH6rIq2qfcM2eNzBZW1zaflV9D/lWjHWn+TS4i5RqZpq7cCXckh+fFdfVNoJywTlZ++M4F3eOgsmtciA18A6PtywmmfdMwQDJ0GzYhm42DlMsd3zz3FSumN4qIjvLeSRrNYuDg6Hh1bTO/8BTWVahscwO5U+dvmJvVI+nLWSKjCCPlyul9xUR9aAqVlA/kAncdCv1QeiMM6VSg17M+GimnIg0MxMiS6K8/kHYhvZOBOuv61vb120WTvlBJ+eCMlXX4gQs65W8t7+mclUNTf0i5RjjcT7YpJ/N8ht9hSmYc5zu2XsEMJ9VcPX9xNiZXDGghZM6lb5pbvMPFJGYQ5fSNwZICMUH2Ctme7tT5G5rcgvOtdEgqWKzZlLkwUs4JRHMaAeVktpL6Z+sDtfUK0xCq6UNvM/yb9x5z9FQ2quAaQC13nlVuZLag6fvB6YVdu8m9PfqmHz1/Rd8JlY0q592hkSY0NuI4/iW34ogC4hCHW+65Xgchxlc9DilXSUa8Hg3lYv2prtRS7u/jI+3nSApkN5yeqeTwvL+COJGWGGf6pp1kRrNeWKkzkKd4mwIAr4m043xnaMmGGf7URM27yMvt5dz9/MLTQqlcKJXBo0vdjEVzkFhh9ApSTkURGIgd5boVN2xTIa8I9ooYPn1VBbq/yEi8hb1CdKfucRPKwWedQ5wmRZxwvK+ySBokjZbMiI5lmvpDyjXC4X6KHeWu64LeovKmokwEBrrH2X1UuGKD2mD4CAPKAfHeSbmqHZhPEkE2e8XlmTttS8qjMdRykhFP40i5DzpVtQ1BodE8g2DgYk1QWkzm9gw8c95/OIQlFKEz3J91+qbNtX9Si5HMwFMZRhHwJgREBJtwJaaUk6XyMIfCrgI2EX3ftHN2TLoQjpMm2BPJLv36ZI13sgX/cvrtOH2a7K/eSJQbUnNZVZ2aukCyj2th2GDNl6qkDV4PS3nXmNzPW+r8rbl4+qq+DwN0vE2zgEiNLk4+R5hIj8wW9Amy8vJXRpPxq5g4uZJIq5R7NikSJt8BBQNOMqOczyfJkon0nilu4bOYpubKzt4+PMjkjdRCuMmjvW1FNIYvTTEb/ykM5atrmzfvPc4vPG38uHnvcWDJyf6dYGMenIERXjIDHXxqAg7icdE3nbpyJ7/w1JxvVnCra5tg+iA7YbCW/p6pU+dvXM7dr3eB/cHR8fLLyvXbRbACEZprk3UGcmQVhbndkM0wG17f2gZlydN5/FcT9xmZeJxezt0PVztsYUOHw1Ae+mGN37i+tb26tvno+avFpZXFpZXll5XKRjWwnZg89+DoeH1ru7JRXV3bXF3brMtMrkl/Z2+fS3Z9a5sa4zU31vXT+w+HmuWCLf+p8cZclzTEyG1GuVgAvIISCJQAUh4oIozQ9hJAytu+CrEAgRJAygNFhBHaXgJIedtXIRYgUAJhKIdNsPqmT52/Yes4c2nOutkhsOQY4euRQFjKyZQkmeBo8L/ngYiUfz3MNb+kYSlXrekKMcdW53rH5ssIn9juEkDK270GMf/BEkDKg2WEMWxJgHwq9Vn5tXiYOPGHzgZSHlp0eGPdEgC3/tNXTxyQiBtS9zj4Jg3O1J2c8Q1IubGoMGLDEgDKpQsCha+dNfyomgQioJw2UMNAMuP0TKGNpaZaOvSkUyj3VtYsv6yIipfmSqQ6WYcC05bF6hTKu8baUvyY6aZIAClvipjxIS2VAFLeqPgrG9Xll5VHz189K7+2tbSislF99PxVfuHpzXuPr98uXr9dvHnvcaFUXl3btLUyoLJRXVxaIauuzJfeNSqssPeTRSHrW9vhFv4oP0rTZqNPexrLzt7+yGzh2q0H4sFuQeEvtezP+qvjyDI5b0Q7NJoPp/Gvb23D1qTeft6QLFm3Sr9t1DNFLg6N5tlduCg561vbZy7NiVtRJ4fnL+fu02jLLyuwZC6ZAcualybZdUh1O0nwzKU5k6XQ128Xk8PzYh5SV+7QFA6OjheXVh49fyUe3C58q2ubsJKabA/YM+VnuG96aDRfKJX1a7Uupu/SbOi3/afRSCA5PN/IolgqZ9ganz0xDIO3lmqG3x7l/rdnxWWLvZNOaoJk1f/wjWpDNm9Z9NBo3rzfrW7vwgJTw6X4XtM6df4Gt1sQ5LxrDNZicoe3PpXkHKBJpGs24mI+gQRbnpMNXrgUvCcG1j182KNvmn86SYrJAyyOPjsGLZYsoqX/k5nk8DzJZ3V7F9aV0gXgdOc9siVTf5YQf/PeY5WVzF/8Sgui8QGhcUggNSF+aNcQUS5avClX4ettgw3drcmniLzF//r+hggF2szZsbqXxPdnnUT6YvoubUtAuXRLo/7s0GjedV1oSN3j0DWyB/PBE9hSVGpX9iA7c2mOq0XuFNRfMX3yrNQE1YuAcqmE+7PkMzXQnRkKxOvgpV9HAsqlO7yyZZeG6/xsAScE9rQtKf/mwg/Pyq/lJEnl1TcdSEbNlqLSRPQXT1+ldayh/GL6Luy9ISWYqdSAfbO6x/XbCih3gvd0MNoaNZQPjeZ1O7NKReFt9sS91lzX7UTKvc/OJ4fnzQ+nP8s2OxoGVqQ9jVTEgRe7xzUvesBCSl5gsuQNXrvFoZLywRm/yqV9W+2nSfXfyNW/yuEVIX1E3zS75ZiS8sEZ2O9J/30YlWTOjtHWTqqyEykn8q3L4/ys3MQeQLm0FlWiJ7nqz0p1x/peC+IjhG2JNJQr+RuccWq3Toftp6VqDymL+tMluu1UkxkWQQ3lNaqUWGTNFa9e6OuiQ/tyTflVPykGrAGU09TYbX303U8yI5pc/IGavs30TkJPn0jD0T0OijuNn0iLu9UFUE5z/qXt+bsFJdLc6x5GqKp9s2p5pS9A13WVH+n0XrNsTFPKyTd4iU8VsQixEmCLQ8I9U+wXFWEQnEiDAD3Dl7L9eAqPH41EPjvGpsPmvN6wbb1cLHPglUYoT2au3y6SvYfIjl9K449nBRNf9KCr9EwpRd+fdTx1eXVtc2dvv7q9u/yyAvCRpVLJjFQLMqJ8IAcqQWoideXOf7bvupy7PzSaZzva/wxSldblwRmHGapyVQ72GekG8LXvCv+bHIE6oWdFuXbrwbPya7If06Pnr/zRs/QppOl2j1ODemWjSg/Q9aXSHsh9c+EHGo0GaCJcGes9bVvKvQ3fOLOu67o668QXEweVEXTkKpPo4Iyj/swL8Nc3LbYZkrIR5V4LCbT8KL8moFhgBVucqrZR7+K/Jxrcl3v7TUvN85WNKijcKtAV+z92ytxnYM8tRgjXl3ePi6oCgQx6GumLXphg0xn+vT0ZNRRqfgqmXK1v0BZIAjBmUA2LZQoYjFml7bZvmp2QIokHUN6fTQ7PS0cy5HYYOZABmFinnpLDlYXsYywvjlA14r2NXImgL69r6DmQc0KMPvuz31z4QVUBSnaF/k/ZHjyLG7Ur1yvfAMqNt4omz1WSxMwi0Rwq+35ZkwigvGdK2ovTZ/lvTpVhXtaSO6Uvp8MysX1Lr3gfu2IFR8PAikprZEzLND4NKNVZgXLlO/fLtAhNs66AjnJhCBiYMowmFbqsk8ywTR06V+k0mVBw8lAd5bU2R00mle2q1jBKUugUyhXqh0ZMqp90lGu/ggKVJ33L11Y2RFOrlSp1SJVb9rqOcmEIyN4oDfssSvuI2u9kgHoj7VllwAWMPmU9sTR7SpOOTEdCynkZ6ijX1oHS0lxLOQzUVO8Kbfp8RoVzHeWhUlaaFGuVFtiFXTog6RqT6h66vjyRZt8SQhFPLiiblufLdRLPCyHlnEDcZlAu7fm8L0lwRj0+c9pzPeX6yXlpwsqJHs/GTMbB0Lb7syeGfNr392dVH1jUUW78mSswaknFKFi0Omj02RyNRdsjWujLu8djRbnrukr194v3lbKbVA92dZQnM9L2Jl5U9uVIuSgs8UrUfTnUcfP18mQmRF/uui4YjrRdpvILpr2TKt1DR3kibZhPjV4uvkOUTbHNLInt05f7LhZS0KOzsYSlHJYC9E5K5mgHck7PVHV7F/yrRAOX9rNsOsq1Viy2S/K/akQVJBqQPRopZ0UH4aj7ct/PWzpc81Rz0emFz6Li3LpeTp6jNCl61gwJ4oMzjrZL1lHuORFoZr5IlmDAIH3DeHNqnFuOTi8fyAW6RiuEbXTZ9qxQW/Xl4FahqiSvnqSmCSpXFQQRUe5DSTtLNhDqjRRIuahy0LKTAKxwkz56cMaRGXaUfXmt+Yt7SuOntin3TLPhvpDIFaYJfTmMU6WWdQKQN02tGobmF56eOn9DqvJGRLnrukpbIUs8Dacm9Fb/AMo9Z+CR2YK0jP7nqqVKlOewJe2blRN23mSz4UiA48Tk1DblZAGs5jO2qp+E7bWaQLnrugE+id7U7OXc/Wfl1+tb2+Q7jIVSGSZNUxNO76ToHOLrWirX8Ab0ct9LUZUyhZsGzo6xft4iDcGUk9ocnCmUyutb2+SLiutb26A76T97rWhgMEeh6lY8mwyXYWkDEwsSeCUCyqmU6woISxyaQzl053qvdE9DBcWGrALmPsqcmhCdb6Pry13X1SkJrMBrJ4ykHBhRTjxpybYFhOzuceVsGsmA9w5UAQqUi6NkcqOX/sX03Wu3HoCLUc+Urd79a6fcN9KZd5AsSSTcNcaNUyOlXGlS5DKmnVIg0JtSzqUceJrMaDQlpfs7TZZ+h1o7dJa2W9VFpBwkA3qLZhhKK0AVSE2w49RIKQefeNK/qjKjVos5CCKhvG9aP2ZV+gaLxTFoqFyJVKdIuS8ZGNhpXqZiHbBXPDsD1Skjpdxvk6phH8mVwj2LgyCAcv2yN7b4NOx1wyrTE3k6PDRQRSQJIuUq04fruoYz/FyV+ysmE2mlaYzWpRjoHj9zaY7WbtSU+2M4lXbrmclN1pLpKPd8J2GQrZpPEIXQO3nm0pzJc0HpknoIc2m2nnLS7dW7YEIV3+sDuPEKsCL1qw7ypvIpFyEwMMpWNqqgOCYzRrXrrcpzhI7Tp1xaWEu6ps6kGKQz0Oato9zzbX7/4RAGu4G6nLeHmcrmSB/HBmCmwjNSKUeijU3Msc8Kv4PcqfM3zlyas3tIKD991V85T9bP0//OdwF9ufOd/MbucapXcIJgT1fXNsEtpGcKEiGVwW5k1zsJFd81dubSnHSXQKDcm8wT5eMM5KzYDZTroTzDs7gcli0dDQdSTmL6mjQxLrEb05GNIxPp5PA8N/6mj9AEqtu7IGSyvJ8ImViZiT0nkXa6+K1dNKnpfwqjl+tT7KRfyZ63N+89HpktkJX21249yC88XX5ZMXk1RycK5Vq+gZwj2GRV2TCknNy+uraZX3hK9hpIXbkzNJofmS0USuUGG+3B0fHq2ubi0srNe4/JUSiVya7FqmyHuI6UhxBai28BOlUDZWMvq4C1QtrVWC0uf/2PR8rrl1mr79BtLpdIszZNfU7r6sv1ScX8V6Q85hXEZ+/g6FjuZOttIEP21OXvUZwj5QrB4OVWSwCsKypjefd4XbtrIOWtrkx8vuvu7O1fv1189PwV2bptcWnF372fsyvT056pusSGlNclLowciQTAIkm+FZHM+L5iKmduzxte9BvTZwsp18sHf22GBJTL42nnTQOeAdFkKoDNN1LOSgPDrZGAzpZC+SYBrRugKvdIuUoyeL15EgBPSdVAk6VcsZgjMKNIeaCIMELkElAuj69FPHXlDuccYZgzpNxQUBgtQgko7eKEcu8bD5dz98MhjnOfEdYcJm0uAcf5DjzGiKPYl691gg6TmnAS6dDf7KUZOOnLRfdJnOGnYsJApBJYflkplMrXbxcvpu8OjeYvpu9ezt2/ee/x4tKK+TS+JodAeSINDUk8zvLL/DTpxP8nnOGPfx1FmMP3Hw4Pjo7Fo16jZIRZtJE0Um5DiphGvCWAlMe7fjB3NiSAlNuQIqYRbwkg5fGuH8ydDQkg5TakiGnEWwJIebzrB3NnQwJIuQ0pYhrxlgBSHu/6wdzZkABSbkOKmEa8JYCUx7t+MHc2JICU25AiphFvCSDl8a4fzJ0NCSDlNqSIacRbAkh5vOsHc2dDAki5DSliGvGWAFIe7/rB3NmQAFJuQ4qYRrwlgGHOIM4AAABVSURBVJTHu34wdzYkgJTbkCKmEW8JIOXxrh/MnQ0JIOU2pIhpxFsCSHm86wdzZ0MCSLkNKWIa8ZYAUh7v+sHc2ZAAUm5DiphGvCWAlMe7fjB3NiTw/wD0jZtCrgbIAAAAAElFTkSuQmCC;" vertex="1" parent="1">
          <mxGeometry x="285.67" y="264.44" width="72.65" height="60" as="geometry" />
        </mxCell>
        <mxCell id="gEV-0_07iIvLEzTvhgMC-15" value="" style="shape=image;verticalLabelPosition=bottom;labelBackgroundColor=default;verticalAlign=top;aspect=fixed;imageAspect=0;image=data:image/png,iVBORw0KGgoAAAANSUhEUgAAASQAAACtCAIAAACWU5UfAAAgAElEQVR4Aey9d3jV55XvO/f+ce+dcybnzJ2TTMaVDhISQkJCDaFeKcbEBtQQohjjBqZ30zvqvdBsJ7YT22ADxsY1nnTPyWQSF0Bl9/LrvZd1n3dvLMu2NjFYip37SM969vPTu/dvizj7s7/rXWu9a/0DjP6E/gsYYNsAivVZUDzqoR7HyX1k8GDAvwbHtw1pQWLbkObHNwSxTTi+I+jbYeutptwK6ilQToN8ypDaTKXB2b8eC2zB8M1+/6YAvtXpenx4zLnWOZT53VuIwC5QmiWyJti/h/Ed5nwHeP9+zntwaAscpr0H+OAR2nuA9R+ivQdw5x5bbAK5TSJrdLYBlHabazKpemCbgGuWqVqZqlWZep1rNIVmW2oFuQ2UdmRqB2idyOQ2g2uUiJN88JjXtSXg24YFtgV8m7yedT7fUyS5QRC2k9QWjlhP91aJ1xdDsBrIZSZeanFLAasY0uxAGZAVFlmqBh82yQpgV5u+ldTHi4f8P+UWi/7A0wS5mWF3ktQ2v3+T17shENhKkrsc19Ya4knQ20FsB+1ZTTwb8Dc7PY397tY7tn8YZS38X0C1eRvAsjheueRndniJx4PYBiwwNGk4PjRpQWLb7cIWxDYMjwW3BIeykYZNZepVpl5jG3Su0eCbTKHZElssseUmcmHYlHZbbNHZBoWqDXh3el1bPK5NAd8WmtrOsTsYZitBbKSozWxgLddXrfQuAX8lkFU2WWnREWFDBOJlNlZqYEtsogqIVapnJXWt4hZcDfkUhm8kyM0ktY0gtwaDWwKBzcHgNhzf4XVsNYRa0NpB7gT1nMh0uTz1/Z6GOyat3906CtvNbxvV5i2wwQbLxFnxjItc5g5WE9jBIWXt28DmcmzAg1sHlI1mtg2P0bvooWykYTP5psFmcI1hs7/Cm9oBchtCTqnn6CMB706Pa5Pfu5nEtzP0DobexhIbafca0bXcdFWCtwzwSmCWGeTQsoZIo6qsYJnhXwREJZDLtcBywbWcc6wckqhbLJLUFpzYFMSQ4fg2gtiOYdsDga0Mvh/BprSCdgbUs1Swtbevpt/TNArbMMizbYNhK2ADmGConwSYPU58ZYDYPWywKadNud1SG8Ow4UToS5TYRpCbh8eI7cRQNtKwgdRqiy2W0GzyTQbXqLMNGlOvMfUm34R4k1qRP6l1gt4FRjcyOA12pyHXM/h+r3Ozq2+9372JxLaJwbW0Y4XqXQ6BZaZ7CQTLgV1u4JVD+pBokak2/EsM72IglwG5QnBX085HON9Tt+BqyKdoZhuGb/T51weCG0lyB0XtxLDtXu8mVarVxHqkz+Y5QzjtddVf6znZ62kZhW04YDPAsHjDxMFEvEnyuwFmr4faMOywuZ0bCWzbAGwYvnF4DNuKDWUjDpvYCkIL8M0212SxjSbTYND1yLhGk2+yhGaEnNKOYDNPgXXaltpvImd1atxJ0rfb27fRdWOd5HmU668yfcuBWK57FqEtGVNtYpFhY6utYJnpWwLEcjuwknMsJ1xrOHzLkETdYjESbJbepIr1ltIG+lmR7nQ6aq731ozCNgykobfQwbQUzfAhcdPBNkRWvuDjnxk22NQzltJha01h2MI7BIzcPjyyRm4eUtYIYvuIw8Y2oUjJ52YzjWELq5zONuhsgyU0I4nQOsE8ZQmdltiBkNM6weiw5QaeOBB0bZf6linOaju4HIVGAqVmoBSIKsCrIyobXY1eEFwKgWWau5pxPEJ411HUzltwNeRTkdxIy2jVpEZL6bDk02Sgyemo63e39HjuPDoyumf7AlTbBtsCyzAtw0TiZoFu9NLK8yMBG4lv//8NbCZVb1L1Ft1gM43h+CTwLcC3GFyjxtQrVK1C1ap0ncE1fu5SPgfiaYNtM7m20EqrLTbq3EnhszLLvQzFIVG0ozzEWzmQKyLBZpBLgVkB5ErwVEm9VYzrUSK4GaOeGZKoWyxGCpCoarMqNVtqt8y2+5y1LnejB+8ehe0LYL7NlWq6wArpm26YhoyuQZHM3w07bB7XpsGwDY8PiW8c0ofEsK0jrWw6UasTtSZVj2DjmkFoBbENpPYwbDJZI+InJOKkStfd3MUJZ0B9HsyfgXEOpI7QHq/W4Or4vzwM3hWAV9tYOdCVZqBU9SwGamUk2FSsHPhHgFltOSr46xWs63ES3+4nbxu2SKF/WW7U5BZbOyVQLa7e415fW5B59rq3fXTP9m0o+yv3quJvA9Q+J1YZwDcT5EGMWIsTjzHUriC5aUjDgoiloH87ie3V5SZb6zLkLks5E86zhQMk4T1bMLgFI7dHgnm41gOerWRwN6gtMlWLO/ex/iO8/6AQOMD7Dg1YOOHGeg6wngPcbebZbK5pSAO+ObyRCz9rsY1hs7mjBlcHxrO2+ZIpn0W5OGof+5+R92YR8mxqYKFNVurBaqp/GeZYzRJbWG5XgLztPZs3uE4Qd/mDT1HUZpLY2nvtSTJwAIxulDC0n9X1Z72B1k96a687G53eNod7NBr5V3j5Vk/r8p9o9pSHWO/F12LkVpLaQtObOHYXTmwZ0lhmJ8/uock9LHXQ0lrBOGXIXbZ6dhS2z3k7qrO1htxlaM+j7yChAQLbhU9umU8bijcdW2RgZUqgmnGtIl1P0Ngmit6OUxHzn5E8ST++gWG3BYJP0/QWHNvcf2MdSxxB4RwUhzyrqs96/C2f9tWNwvatKPqmN1tuTf0dybW5sTWuwEoMQ5JFYBGjlC7H0z7PFo9zM+bfo0mNoHdbajeY50ZhC8NmMMc0plZmmnWxG5ROgzwk9T+u9SyL5C5GWrexctVXLnqWc/7H6cAGzL8ewzeTzI5IUEVcJzcR5GYM38DQqKjF49gkczWgdoHcYWunRfG0x9/yWX/9DVezw9PqHA2QfFNs7vB1AoAgye+6sHW97nKfZ1fQc8jjfMLn2TKkeRybAp5tPuc23LdPFxFsttIN+qiy3XQjdfqkxtQKeI3KNILUIHu3sNeqbE/kqONQshYicJnkKmfc1QK+niG3BvwbAsGNDHvb0Uic2hYIrkcVW/Q2r3s95t1lSE0gd4DSqUudDN3l9rVedzbdcKI4pMszume7Q4q+4W062GDo/RhT58WfpvBjAtnIEbtF7uiQBloDaM2GUK/z9aE07ulQpLtzVNnCyhZOeQvYcZU8brOHRNcT7PUlgN2+svlXiI5ltOdRntpMMzu8gU1+P/IkIypYhFpWnNrm86+n6K0ksdXr3siRB221HeQuUFAcEgu2uLxtve72EGzto7B9Q2bu8GWoQNkG0+QV9X1R7NSVVtC7wewEs31o01pBbzeEBoNvQrDppyyxzZZGYftc2bhmg23WqRoNP6AFtkquVYqrFIjySO5ipHXLtVJyrWL9T9DUVpzZ6SdQZSNx+0ntILEtENhM0dsDvk0B3zZVqEGJbPUUqKc4osXraXB52/q9nT2ujj5Xm9vbNRqNvEOQvsltOkoHGLZtgknpygeK2KRLNaCcE6iaoQ07LpM1XOCoiJ9ANazaKVQ2rnSNKtvNPRvXbgttIDQa+F7R8bjiqQ4VNy6JBFWkda1nuep9QsA3YuRWP7UzyKDCuoB3/e0qmx9DteY0vcvlWIsHd9pakyG1gX4OlNN0sNHpqHG62xy+Uwg2Z4fH1z0K2zeh5g5foyHYJHSzDir3MR44jHu3CP52ha4b0nS2weSbFLJepRoQafppkDpGYfs8FNloiJ2hb58Wi9jD9KzQfNXALwfi4UhQRVqXr1XrvrUSudVPbPZSO3BuD0nu8LrW3i5svuBWktxB07v6e58g8d1gdWhCCxjPgnKa9Nf39yHYnP7TPa6uXke7x3t6FLY7BOmb3GaYimVrqKIE1SjLoPzZFJ/T+GdsvtbmGmyuxWbbbbYNXQvHbeGIxTYC3xwumwhX35pyK9oGSN2gntLFRoY8QOI7UaU/uzlAPhnEd42oBTzbqOB+MDsNvoV0HeH8xxn3Qcq1ZyDJxvsOjUSebcjkm801sUQHwLMgHiWuLxX7lwC1DKhKwEojQQXsKiAqDf8iHVuEvE28CjyVem95pGKASLBFyluS5CYC34QFtjj7Nphaoy63gHEG4KcuX0fYnN72sDk8bQ5P2yhs34SaO3yNYWg26Ag2QLDZ6qem+JIuHLP5kzZfjz5SbFsItiaEn3A8Emwa06rxbRJTQwT3Bf1bSWobSW/0E09R9NYRNZbcJ9BHweiQqfpA737ac4TzHhYCX2S0/8awSUwH6F06uYe+sVTzlCPYiHJUNRIp6sisDMNmBhcBXgbYMttTpfUvHS7YCGIjSWwO+Db53Ft1udFU22ztFNjPDUnaKGx3SNE3vM0yzC9gs1Rb7bflN02pKwTbgLi1IYlDtRQNkWCzxS5b7VT5ehLbH/SjwhEM3+j2P0Wzm0fUcP9OpGxKi4DX+Hv20Z4jgv+ohB35rpTNEDssrkbwrucdVSgIiY6Hlt4SNrSps4JLzMBiGyu3g8t0zzLZsWy4YMOxjRS5ze/dTOF7ZL4W9G5D7gL9WZev4yuaNqps3xCZO3+ZbUJI1oyQJ2mCHrCV39vKa0jHbnqSTSFnMqRvbFsk2FCAS+/WhAYS2+9zb/X5Nnu863ocj/q8T4+o9V1f63Vst6QmmaonnIf5wAnehyq2vivYQGmRsN1U3yrFUwV0NVAIJAMri6hsNKpLRkAGl1j+csNXJXtWiO5VwwUbFtxAETv83s0id1TiasE8rQrthnTq66R9GwcyfO/oSe2/xiHyH1GFsg0WSgIYPGh9oP/ha3uSlpA/2R4JNlNoNeV2hasjAgcC3p0Yhg4pun0bfO6dI2p+91akbEaHwbdQ7qN84ATnPcx69393sJ3g3Ouo65VWYCmwy4AsR7AFI57INsmy0FatDIKlpq9C8VTxnlWs77Hhg20TgW3DAjt0pV7m61CJFt8p0sO2TxuM6Chsfw02E1BoJAybBWBaYDBgum2m22Y6b+7WUKSkIYRfSyTYQOkEowu0NkWok4WTptFgWw2aUaOLzSNqhnLSUhsBnjWFVsJ5mPEe5byHv0tl455h+1ZxfaWo8QFVBnipRZTpkTZsWIVGLLGpMiAqIFBuussF51LGu5oMPjVssAW2BP1baWLvzeiIfkblu+lgc9hpHLxJ63O19LlGT2r/NV6+1fM3YVNtMKxQ0wQwTbAEm3rBps8h3rhQaAR5lfW32LOBeQbgLJidqlgvCycNrdE0GiTluCE3jqjJ/BGFPwlwWmObcMch1ndM8B8Vg4e/K2XTsKfZvqWqO6RXwZ/YwYeBqrgFbCq+CMFGVkKgwnCV8Y4q0rsGx58eLtjwICocEdhDptoMerepdOviacxT95UdWpi0Udi+FUp//WYjrGyqATqCzQqZbdjky4g3pvtz2E6GQyYRlU1us5Q2ma0Neve5+ra7HNv6+zZ+eu0pd8/TI2q9157yOrabYqNCN5CuI0LwpBg49h3CJnvXcP0VyIekykzvA1bgIWCW3gI2CX84BNtSCFTojnK2vwr3rsHwDcMH23a3c6MinjCUJrDOaGKHIZ3xO08Ohm2AtFHY/jovI/MK0tQ+lPgWiT5oMnXAd9piiyEeM7hGS/hSnu3mCeVQw59wWwQS305S2zBsK07tiJT/Ga51v3crEdxtaS0iXYs59zH+I6z/IBc8MHTTSO/B4TrPZtMnUS8goUPAGgUMaT5wx3Vst+UvtQNlYUNdfQYsgidp0xU2WQlUteYpJ26UssEnWH5rr/cpnNg0tEXo80lRO0lyR9gGt5Bw9D2N+mpCJyjtCt9q6s9hVLsj8K36Qw7epw2+Ht2z3SmJlmBpf1CEToU9pHPHgW+1+FZDQI1uRmFDak+fBKHZ4tslolGlmkBstNlDsnfTAGmopc9fIw2wCosqB2op4NWSq5Lsq2SDT1L0Fkfg6aFJI1A7uiFtgDSS3DEAG45vc/avZ4i9YHfYUiuSNe1ZP97iDH6rQ6KDARt8PQrbncJmgqVf1+QXVPGYIRwGocHi2w0Wtf4dhS0EWy2wTQbbqtEtFt8KUp1F7Ob7nxiA7SZpEQRtIBNgYEuAXm4EqzhnFet+hA6uxfANPnzDHcMWJm0ASDc6wHYMjHbUXlY9pUhnnd56N/6tKkUGAzb4ehS2O4TNRrAFDP2qobRa0lFUO8K0GvSZUdgQaVyTzdSbTINGN4ca+7SAcEL3b2SuL/uSA/nXSAOswgwsBnq54ltGOau5wFoquAF1DWG23hlsXyENx7f5PdtMpQG0VoNvAe0cx3T2Ok+OwnaHVIzQbZYJlqmA+RfQfmHJtRZ/1GQaLGoUtpstSZCs0Y0604LKjqVGoPao7jXCjaFcR7wSpQEigGf4F9lENe9dTrhWs9gmHNvsD2xghJ23C9tg1zEsa+EWSSS2F8xWW242hXbQzhFY642+k67gtzokOljNBl+PKtsdwojKJW0AmwD9VyCdNrmjBnPCYkbdyM9h41tNugXJmtgK7DHVu17pX2Y4Qq2Og59XQoYxuyVsdnCJ6qtg3CtQW0h8ezC4LRjcwgu77gy2wZiFYRPYY2C2o+EESrelnPO5G3r66/p9o27kHXIxIrcpEC7kskDrs8VXDOaEzhyymJOjbmTYjQSuPURaJ0htOraP7Vml9JZB4MuVImHMiKVA3KLhTxnvWES6VjKo3/NOr38bSe4Q+NuGbWCThqpSQ62jw3NIdKUejDZTaAbjWV086+g90eds6HE3D1ak4boeVbY7RFEBBVVNmgAaZfNvGEyNweyzuEOjsN2Eje+w+A6Qu0Fsln07iU+WyjceAnIQVAOydmvY8HL6xkOEcxVL7fIFdnj92xlm97eBbaDBZhg2W28Frc0UWsH+qcqf7r1+1OFuuu4cDf3fIRcjcpuJTpMyNoihc24OiW1WiJ1AtZl8U7gTMBplFu65HRqYFOmkdqTzV7e7Pvibe/C1x7UB8++09VaFayLcR7hgDeM9SnsPsSjhNoQxvsOM73D4KS5wdMAGxtN85cISmoc0kW0x+DaQW+zgfu6z1YZ7JdCrDF/EQ6Jo8hNZaRNVRnCp7ClVvGVoYob0iOF5TPQ/QRJP+ej1HnqTn9pOEDuZ4G6S2HxbxjHPMNQuitiBkpz4dprcyTHPCNxekJtBa7O1LkVox8gWp6ex19PS6x11I0eEmjt80xBsnA0ygs3wKNwphdwPFBrm8r2CzefZRAR3g9GmcE2Y8xDlPYY7DgT791Ceg0Ma6T5Aug+En6K9hwYs3Kjn648qXTekiUwTkguhwfLvknpXG240MQOFFiMEQiyiLAybiVXpgUo9UGnhS4GqFvseY5yP+b1PufxrHcGNzsBWv2cb7tkZahmy6Zs/+r1bfZ4tbudGl2OD27nR697s924N+reHYbPUTpnvCBJo3OEobHeIxMjdZgAYINmghpQtqAvnNaYeQqOSvlewed0bEWxmuya0UN5jAl7HB06w/iMDkvWVi8GaxgePDdjXMQuvyGTNkCZQdSA0AX1U82zU3Wss33I7gMYXRoIN6ND0Q6LCJqpsotrCl2n+SsldKjo2MK5NhG+rL7DdG9zhD+7G/HtI7z7Mv/u2jCEP0cRBEtuPB/YSwX0UfoAhD3H0EZBbQO0wlS6RbfMHmx1utGEbVbaRA+dO3tm0wILPD3GbrCn9VufPmezJ75uyOfvXBX07wGy31U6ZagSlGzVECQ8EHfJR7UAtwQcm9OpdqLmDHvmW8ETfrz3K5AkQakz8GdX9BATW2P4q3VcKdFVk2JbbZKWJh+pF0MSMFbJ7KXWtFIQakOpspc7UGg2t2VRbUI8Jpd1SWm7LQGuzlBZDatLFRl1sNEPeIxgdaNyh0m7InTzd5vE1hqIjLX2+zuEKigx+n9EAyZ2QBgCGpaPIPypMNsCSQXVZ4kWNP/p9g83RtxbBZnWA1qUyzaCdRj2IzFODx4UOvh7Ykg0shrdkkZRt4PVfudDJE0Af1n0bNNdKIB6BYKXmXQRM5P6Q9EqbqDLxUpssB3q5ja+UnMupz5YCi44vmTxqDaiLzWhst9BmC20G33JbZonoFo1tUplGlWk0+BZLbEPNWFXUj1UTOxii2eWp73U09rja+v2nBkMyXNejsN0hbKalhmADE2R0yE3XQPmNJBz8vsHmcW1AbqTVYcrtAl6nc60606SzDV/xHgd+HexGcoGjA25kpAuJODmkAXXMDOxSXI+Z3mogqgEr1YOlwCyPpGw2sdzCl5p4qUkssYgKI7BCcT0q9j0mBY9LweMifiJsEnFSwZEJeN1tmcY2KXSDRNaJRK1I1MpUvcY2oaoRBfVjVflOKtjc76i70VeP+rGOwnaHWIzMbYaJQiMoOGILoZPcANqfRWnv9w22m3s2q8OQ2rhgjUKjNnsyWWOLLUNaWMcGngKp9a+Y3IaCrl839pjsXC/3r4BAVWirFgo2UhGVzQhWmVilSSzRsYcU3yLVu8zwPWUHtqKxiWI7yoyHh1Gh0cEtILeGFsNPfaPH8Czi8BTicLvBm1O/1e5w82PC39zXX3u9p/6Gs93hPztcajb4fUaV7Q5ZDM9wQ1NKLT6UbQMwrvPyM9832FyOpzH/TlQkoXSIRD3qhS6gQfJhqL7++BXvMTynF50e+nwy/VcuIrmXwJ3ge58U+5YCvgzwxYAhH9IiI/b013xVRrDCJJaogYWCa6HkqrQCTwO1T+Wbda4ZnRJEw00bkPENIDQYLOqs/M0NpGZbbDK4ep2t09k6S2gEqRlt2D6HDfc19fbVXbtRNwpbRCRQZhklly3QTDBQd0cDQAWwdCHk3QGE2qyChdYZUwBNAV0FU/+SGZoJFIAAto46RGqgKaatG+gdIvzYto0mlZpgGWBZYNqCCT4T+sGoQ+0P9J+C9jzalKv1ltpoKS0Q4Tzb7ebTIr1+cG5t8HXAtwXz7zSUJplt5LHaMGxoLmGkuWrqKeCbVeKEQhzT2BOGUK9xdTJ9EszToVlz7SrfrLFNGttisK2oRoSvHdIs7yO2b5Xtr7b9VRAMd4ZcgpCLEPoHbpUVWAz+hUCU2v4q/18qQK43hfZI/87bXQcBtT8Ljx3W2AZU46+0gdYB+llLezaAtaKhUMGuPl/7p311fe7RpPZQn3sDuXKhw9SoK49p6oZuWxqABAJhkn6JlkLsMbwh8RpYwOqGiAL2X5gMwJuWhZMSx0roRoRn6C11A+Sh/ubNZ7/gzQLTkkzATfCYao2ltNjKKWRqu6U2o1/Vzr8X2HSqDsmI0ARiWArQtF6VapCpWpVB00IsocHm6032pE4dUYlDbN+jQ1qItBUItsDSL2BDEvfliq2BX+llqFWrfxFQS6X+ct7xmM2dQF8NEb4Ubnc9ImzaGVM95w+2XHc2OgKdvd62z/rrR2Eb+mOvWSaiLRSssHVDU1TN0A2wCdVvgojKPCxbkQ0JgABwfR4+BM2yVdNWzVAjH9TpQAQElq6h4KJtgmKqMsgKWh76x0ZJNv3mJG4TLFszbc4EUuXrVb5R5Rs1ocmQQpihKQ2n/15gk7Fj6FS10oH8q1AxscW0gtBpMSct9rjNHDXpAzq+U/Zt5JxPUr2rNV/VkBbStLCsVaGjazjq7RPyJyPAhlWg2n/0yhXUtTKgn9GoY38LZVNPq+IpX6D5urOxz9fe621DF6PKNuSnHk2ZCT9hg6HpuqqFpQ4sUEWJpIKqwgOIYDIg+IDog//8jfmHX0r/fpV97zL73mX5V29bH30I//U7jfODRIOmgm2oYKHu/jYArQz5R0OLIoBq2+ZN3izLshHBCtMtUo08dURkjuliq62cAfU5UM/+vcBm8/XAN4LQZjGtJtliUS3At6MvC/oQEHuNwFbF/ZTgWMX3VfH9FVJ/OSJkKLP9VSFNC/uQoXQ2gi1ym/HAEnR2m35E9axkeleDfEKjTpg3W99GdHq/ub5FUjZL7hbZDq+/6YarqcfT2utt63E3j8I29MfeDBUDo0fb0nWkYwgSCyGoIp9Qt4Cwrv+71HyQXTifmzqdjUPGTY8PGx+fEDayaL7ccEh2fCDq/aZKoZs14MMO5dB/WQ65ogZyJm305ywLLMsy2NclqpMl9/H0fjSiQX0BtJ/9HSkbqE0m36BTDTreZFMtwDYDXw/scb5vDd/7CN+7QuytUpyVlj/EGLUUfOVDW7ASeY/h0zRI1kLttG4xGsq/SPcsAW4t07tKDewEqc5kkEP7zXG69SsjwWZKXSzZ4vY23HA1XXeFakd8baOwDf2RD3eX08BSUKPw8PiLkCuo6hDE5csXb6x77OPCDCov2c6faWXGioUxQsHUARMLY6SiWLl4mmt+Ip8er82YSZcuwc+fEy2cBYvXIwZI0N9Ahl4wwBsSWeE/NOYFltzH0bt1sRnUl0B/IVT0cNqU27/e8CdSwON21wcHRQZf326AxJIaUXycaESaxrUAd8LGd8iep+jrZVxvpepaavqXArY0pGZlyC0MVg9taFZGach7/BwzovxWc9h8P9E9ZUCsJXufAqEGubJ8o82EpikMx7YtEmy60EEGG1ye+huupk/7G3o8rc5AR6+rYXDIfriu/+5D/yjTBbZkGwoKDSLfz+QkyU/ARx9I+3d6sjLVafGQkqhmJvSVTP/j4kR5frI4N4krTmCL4tmieL5khjw/WV2QCoWp5tw0oXCmmBirJiSrKx9RfnuRAP/QiIedzC+eQ82Swz+g+G3hssAc5JkdptwKxs/BeM5S6/9e3Eg0xpFrNOkWi2y0iGNmcJviWS06y7RgpYmhqkVUjE8sRRT5F1veh6xg2ZAW2qGF/EY8NOuQKAeyAtlAROTLF7b7QdtfxfY9wvt2ofopNhTujxw1vbWOff3ZSLBpfHvQW+Nw1fa4mz/pq+/xtLqxrlHYvvhoD76y0c7JFC1dDQmNbVq029/3H392z4om8+LY4ji2MFYpTrTnZepFufys2VjqDCojWcybrRblaMW5Un4mk5lKpCd5cxOpWdPs7H0jRQ4AACAASURBVBl2caI3e8qf0sdjC/Ng05OD/9aXrsP1IzeXUDfJ0P7NBk0E6QOJOyzyO1HE3/wFGGct7cTfC2yW1ITyxVy7FqzlHdvZvkdFZ5nhXwRMpUWh2kUDK0NzMIilqFM/uwKYsqENX4x0D18MxOfKRlbc4pCo5VoA+ArPnyt1+igo3SbXbtD1KDk2HLJmc02RYFO5toDnZBi2j3vrejytHrz7ewNbyHUyAGRTl3TZ0mSU4FKsQbH0wXH1Eb+WFEwEiwcAEsUbafBDywlIjtOz4rWsGVLWDDErScxJl/MytbxsPT/PLMqU89OprKRgZkIwM4HJSVYLM+ySbHZWEpOZSufNogpnUwXpfE6KnBGvpk4T1i+xbvwGpa1lkHRLAdmyNfVL2H35FxRS+UDRDylMDXDPo0mIQh1IaJLlkG7kYJdvJK6D/q14YJepNqt8s4DXoWnRYrslNAPbEeqdjrJPKJEtNKNaDbnLIJqBr7OZXbyzmupZqLpLAVsF5BORFMkiKoa0SK+PtK4753M9D9v0btBOCUSnRHWCcQ6k8Gyg4QiQ8M0gt6McBlEH+hnQTmt8u62MSA1kJLfztt1InVLARDEIHWzR0m/mlC1bAes7MVQKHCIhCCASbjh0/FrBLHL2VLkklctPpLLjiawENjeFz58l5s0SczK4olSqKAUvSg4UzwwUzySKU5iSNKEknctKZHKSqYJUsiSdLElnilOFwlQlb+b1B9KUzZvheh8CzAaSwAxU7v9lwAb/hmD7jaKdkJga4M+FYGsA6cz3DbbQGJCbk65MvulmpYjQZtF1Kr5P8q+TfctVX7kZKEeDnfBHIkEyJGkWEdFdjPQ+tv8n7I2H1MBmUNoMrluh2kHqAqVt2JSNbwapTaUaFLIeVWOHYLPkbzW2NxJUkdZvGzYkYgboqsUIsqAaWigFbIQnvYRbc/+NH02AoA66QQMhnDgO0Zn+zMTA/Jm+3OlYYSI7N1WckyYi8JLY7EQ6M4HPnsHmJbKFM5niZLYkhStK5gtmirlJUn6SWJDEFCaSRUlE8UyyJJWak8bOyfCmzdBnZnieXAWyRwcDxUR0E/SIyW7Eof1HRUFzD9G0Ubk9VBn0/YMNRdVbgG8Fvhn4ZjSlgKuzuDqbOsB7nmacy028GrjlaJeFIooRj8YMF2yAlfK9iwTn48DXgNyp0c0a3QjqsMEW9iRVqgG9bQg2XegwxBE5SjN8sIVjA4OI0hRVFLjwFuZv/4gqPmSggVBe7GDiEomYyfBALlaY6MqcRhWlaPOz9PmzpbyZbGY8n5uoFKXqs1OUrBQ5K0XISRFzU5XsVC0nzcxK0wtnagVJct50PmcanRtH5c0gClKIolmQV+ibPo7Iju3dvBosEcUbRVNAtV0RfgwAs0cWX5C4elSeq4Tmtaunvm/KFo6qI9iENuAabbbGpA4b1EHF+6TgWil7Q8PTxGpgKkOhjoiHPocNNrxU85QLjlUatgNEFIrUmHqkt8O0ZwsP9dboRpNrCcNmiJ0qNyLtD4YNNgXMmzqmh/NMBtgyqipETRS/A8NMnQdRuvG+NH+OlBTjnR+vzJou5CWLRWlyfqqSkyxnJouzZ/I5KXzxLGF+FvFAgX9errMks6doVk/RLNecrOAD+dSDRUpJplaUZuQnmTnxelacnDmDy06mc9KhpMiTP0XPnexLitVfehEMiwcdAyECaqj6xDaCkvCmxDaCVgdqhyV0gtb1fYNNZ2tNVNHbBkI7cI1AHTPwZ7TAVrqnVPcvA3olOntGlQNdAWQ5YEsiuX/DBRvqmIBXa74VkvMxi9iDCiN5dCJmuGAzmQadqtOZUPhHPQXaaVPqEqkRaTM+bLAJoKAEk2ZqrASGaoCAgfu3xPtXgm99J9aFXfnttVdh3VoxI6l3caI6L1nMiFcKM/T8NGl2Ip8+Q86apczJJ+fm/SU7+b2k6PakiQ3xY47G3HUg6kcHon50LPbuphnjOpMn3yjIdBdksPnJRn4S5CXauclKdqqQPQubN4vNj6OzJsLc7P60bCB8XtC5UHptSN5s27R0SWJ/J/EttnEUdW6SToEesTZyJIIig98zUoBE406afH3ooEoHsI1AHkbVId4nuZ6FQFSBsBqoKiu4BGXGyAoLi1jTOFywGf4lQFUDsUJxVkvuJ0E4CnILE6wZRtgU/CSCTe5EU2BDsHF4fSQwRmL99vdsqDoD5XJNABz48/h7a/59d+pLC//x5azvxNLeXtK8NAkmThfzZ/5mbrScMg1yM8jsZCErXshM5HPSmMIcd0n+r3LSziZEHZ541+7pk3ZMm7ApduzTsWOejh2zJW78rumT9s6Iei454VJawp8yE/C8BK0gSc9PlvLS6Jx0/IEUOnGqVjSbzojnZqVA20kwBT7yls0GzdZAYv+CYDMPINjEM2C0f9+UTeWOhWBrBaEDuCbAD+q+p2XXKggsQQlrshrwKsCW2lilFSxDJHw5LTbw67DBFqxAGQUa1S5zvcsMYhfIzRw+bMpm0PVi4JjBNofP1IB6ypK7mWDtSEAV6T1vHzbdAkGxVJMF7YX+93JfXP3//iz3nj8sjLuS953YXRcTPnkoAVLToGQ2MS+Nzk+BtHQuL0MsSVHnZ/Dzsm9kp16aHtU4ZczumLGbEycdmBi1d3LUnuipe2Ji9sTE7J0asz9q6qHJUzdNuv9kzPgLMyd9PHsqnh+HIpl5ScHcZHF2jDm3QE/NptITHQ8kYOXz4HfXJH1IVUOLNii2ChLdI/Cttr0f9HZDOve9hO2IKdSiQ5liNzoqRuzXvU/J/dUgrkQDdd1LAK8GaqUVWKp5l6D2ISMMm01Uob4JdDWQK/kblaJ7A0hNIjNsezaDrhf8RxFs+mnUiCUEGx2oiQTGSKzfPmwyoKCcRTbChfhXSqJfzh3zs9nT3/5J9FtzJr9eFPP63OmvzY99dV7shfnTLi+Iujxv5vPFMeeyp76QlXC5KP7Nkqnn82NeLZ558Sd3vTJ76jsLYt+cH3/lwUkv541/OSvxlwunvjsn6lJRJEu4UHTP1cLEVwv/7a2CaecLxl0u+MH7Bb8vTf7kJ8lYcbKelQwZyUZWMpePfmULEuzZqX2pyZ3pcdvTYw7GRh2fPHFv/KTd0yYPaUfjp2+KnrA56v766LE9RXlc1iw1L1Weny7nxAsPZ5E58XpRYjBzkjMxFjraVKBv1ot8DTpODZomgKJingVab7l17SG7fyvpzmN7KoY07lrZiJpwo2JIk/rKBkzuLw+b4ogcsifKQiVa1YCvhOAqwKoBR+XFlrjbEvdYwn6LPxaavdoCXAewp5CDKtQAvwe4tTazArWpC5RZ/lI0/4lcFmqhFW6nVWaRiy3yYSBWoWk12BIDX2zhy9ieSu7G48CeCM1PRm1IUHk0qpBuCtvtupcqX89hRwyuDoxOULtM9QwvnhuhGsjBoF5zNV53N91wt/S4W24fNgVCuPlX9x6NfaV4yvm8qNeKJl+cE/fOvCkXC+OuzE9+f1H8WwsnnM8fdyF/8pslYz/Iv/tq5o8uz/rhGxnI3px917vZ9/+q8J7Xc+I+WDj2Qs6E8/nxV+dPOJ879tXMMa/MjkRa1KWihAtF9771BWxj3ii470rBJz9J7n8gmSxMVnIQaWp2spCXTBUm8yXJXMbM/0iMa5gZtSUlav+0qMPRE3dPnzAkabunTT4wJWp3/NQNsWOPTBv/VnIclp8pF8ySi5KlnHh2YQaTnyhmxTEFcUzGTPLpp8EiIsGmmhSKWBomi62y3UuhfzF4dwj+OZqvekjT3VUjaqa3ekjT3ZVhMzxLw2Z6q0xvxBA/2rwRlWg7h1cDvtzGH7HxR238UUs4aPGHQ6TVhsAIw9YFUhMqceQPArsTqHU2uRqwZchRpJYCtTTcItImK0NeaJlFlgK5AqhqBBu2xMSq0KmCnseAOvxV2D7n7XZhU7gGgTiGYkIh2AzlLMuf+RvAdt3ddN3d1ONuviPYNOBBl6S+hAtlk88XRV0umP7ugvtfyZl8MS/qjcIpV5BNvFIw6c3CsI15M23SG1lRF/KjX8iL+lnu1FfyJl/KHH8pZcqV4vteyZx4qWD6+w/e/3Lmfb+YPeO9hdEXCyPBNuVy0fTXisa/URh//qay3X+lIO2lAqwYkcYUIEETc78wdn56X1r8hZiJ+6aN35gw6Zlp0QdiJ+2IGxcJtr3jxhxImrYhceKOhPE1E/714/w0oSRDzU1ic+KoB9LE/BQmPVoqSYTCrD/n5oL/s0iw2SCiIz8WqPxBlA72lQO+SyUW2kT1kBb67FZ/B4/o9HSopBhVFVd9YRHcRfQvJCqBLAOqwqaWA/mkjW8FfA/KzrFosGjo0x9K3HGo2suWTqLSGa7epk/axH6b2GiTqy2qEqgK9A5kOeKNRJ1YLXyZhS9DVZcUavgThk1yVkuONYDv+vzNB4lbSOJuFzaZrZdQ55UmMFDTEU06TTHd/e5vNZB+sIJFuu7xtoRIa+5zNd++sqnAgh5g/3LX2fzxl4qi3i6Je2/+2PN5k85nj7uQef9rGWPfzJn8dtG417InvJybcHnBmJfzMt5dXvHRvsc+qn3yP+pW/uFA8buPxL1cfG976rTzcye9mj/lSvGsj8pjr84b82Jm/JUHbgFb3GtFSDwvINhizyNZW9ZaoGchTePyEW9UYTIbQk7NTmYfyPn3mdGNk+/eEnXv07ETdsZF7ZketS12TCTY9o+7Z2/8lM0pU59MGPf0mP9xMW0qVpRu5Mwks+KoeelibqqYEc8WTofi7E/jZ8DV85FgQ6WaIdhs6cXQyMxyILbo+GITLx/SUMr4O7FwDX64OJisAIRByCLBhlUjWaPLgakAZpVNb7bJo0C02Gz759YGXPvNxJ3QZssnQGhAT1FdFtlsU4cser3FrgopWxg2xBsiDVthYavC7KHuWnipEaxQvctUz2rTv85i68MWlribziR/20dvJKZBZUKZTx2105K5Uxje+TeArc/b2udt7fc09bkbbxs2XbRp0B3kH+99qWTC1ZKp78+dcqUw+kpJ7KXC8eczx7w+e/qHC2a8t3Dys9mzXvjJ2j8e/Cj4e5foFDXBUgxQLdQbRMddzCcHr7c++PojKS8/FHO+5O4X06PfmpP4/sPjXsyJBNvkN4qmvV4Ud6Ew9jUEW8yFgrvfKji8vyC8TxNzEWlhiRNzEX7UvPyXE8bvnPSv66PGbIyasCM26pmE6O0xEWE7HHX/jqj7tqXGromf8OSUHzdF33Ujd6aZn4pnTaPnZggZqUZBui9rCuSlsmmz+OP7IsOmoxPcFoDyR4NaDNjDgK3VAmgrMqTZwcXfid08/DL4pFm4MP+WsNnUMkQat95mD9hMs02ftZlum+kGtgtt1bj2UOKuDVX9SidR6Qx7yqbP2dQpi64zud2msAG5iyTqx2pTZTZZjpQNwbbaIsrCFobNDC43Aqtk14rQqbYv8Xbz9M1tJrsFqg61Q0f9Z7tBPiXQnV5fm8Mz4klth6fV4W12eFFj89uHTTJp0HuJP4y7uHDCO3Omvl8y4UJW/JvzJr6cPfPDn8RenXP/i7OSfrFgxbtbz/S9+hm4RctEfYMt0FBNFcoahA0H7o9w/cC1lpk/XzjxlbxJlwvHnM9O+mBRJNgmhmBLeqUw+uJN2H58teDltQXhfZqYizSNKbjpTwp5yVhBXkfc/U9G/9vGaZN2TpmyY2r07sSpu2PGRlK2gwljtk2++5nEaeumT96cMHH/+H/5XXqsXpxB5cYzJbOFlGSrOKs/e4qenQCF+cHHqyLDZmgmp6GMPyPTDwC+APxrZM9iiywd0r50FCV8lvlv8mgHl4QNnTobOHgWuT24jZWHnL01Nr3J5vbZfKh3kHjmc8xCpPEdN2FDtc4NFt9qcV0Wd8biukK1zsdN6QDgTwGxBnnUVJlNLUGAIXFbZZHoy8imyiyiQg+UA7UCiFVc32KTQadIB5Ab2MLdrhvJE/WoCFsLtaiQz7BEh9PV9LeBzelrcfuafYE7cCN1oEG9gf3u7pdLxl0tjH6naMr57LgL+eNfyJz9m8ppb8y7tzOt8p0Nb4sfSeFKQgPANjQQRKAEIAWgNUMO937TQHcAfijQmXh54eQ3iiZcLrznlexbwBZzsSj1F4VTQrBFv1bwr28X/K66gMtHEZGB3RqXf1Pi/LOza2LvXRV/z+6kuANTYndHR++ZMXV/dMQ92+6Z9z0TO3ZvTNTu6dN3JcQcmPJvV2aM4+fOEopTyPw0YWaKmDfLOS9eyo2DnDRyxaKIsNmWahKyZoMGIjMXyAUQWKV50Lf4kHbzlNeAOzfsF2F38euPN09Sf23nFkHZbHyRhVejrRd1yGYaLbHDUjosrT1cWokeUTFKyFCbx3YLjYxqR7yJLcikJiNkENwC2DobX4n+a1CLUCiSqEC8kQ/r2ENfwMauBHo5eX3eV2AbtIW7vaMAHB6qP9bPgnIKpNM01tbX3+j0jnhtpNPT7PK2eAOtQbz1tpUNDGBBvY79+gdnMu6/khd9tWDaxdypL86e8caD0y7NH/fT7OJ3V71kvIuDCApAAJH5a+6Px//Y9OjbT1VfWbPlw4MvON78s+lHxzI19PzOP9UkvDJ/4qWCuy5kjbtccGvYZr1UOPkSUrbo1wp++E7BZ6UoQEIVItjUbOQ9CnnImQyWJHtSM49MvWdF4pj9qTOPT47fPSVqb+K0I1MjRiO3zLzrcNLk/RMnHYtP2h039cT08een3UfOTVPmzcKzUoSZKXhGYrBsllgYJyXHio8ujgwbqBamhGrZJH4u0AsguFL3Vgy5YUOt7SN8uIdtPdKGEAUVPzcCjZhBRq6I9HdtYiGCDd9h4w02c9oWT1laq2XWoyiI0ABiOCgfGuordKIGQdwZi+8wxUZLrjWVOlNpMuROUz4NgZ0Q3ISCmWS5TT9kkQ8jwScqvgobtwrYavxasUHXRuDt9mBjsdDJGuNcGDYq2NbTW/83gM3hbnJ5W3yBZpy6A9hsS7ThY+qzf7qYE/N6RtSrc++/smDapcwp72alvlLwDz/P+7PjjwEAUlRA4D6EPzz0zuOTzxckPZ8848yM/+OVmf/0VsHdr2X/Xx/Mapfe8YHjyau77nv5wZhXH4y5uGDMOwsnv1ocCbZJV4rHXi3Oeqno7rfR5i36YuG9bxX+qaqQKkx2zE+GdORG+ksQb+65yfbsZH9e/uFp96xJGnMwPu7Qj8fujZqyPzNhW+z9kdzIjVN+fCxp2v6p0TtiY3ckTjsxfeKv0mZohbn0vBTf7BmQmu1fkOkpjoXMOP/Ds+TKB7+WYBtYUAwbBPjERucDzmiBpTY5z8QizoyO9OH+vq0bWBnQG4CrA7HL4Nt0vt7km0DoCslX+zd/DEVTDgD9OMoloC+CShTkpEtvdg0Kf/UM+oKgetcAf8Ji0cxrS23WhRO22GTSrRpTLxEnVbou3IxZZxtUus7gUE8HnUWHzcP2Rc9ZrgbQWd5ToJ8WuE5foKnXVXfDURcpijhc69ccDf2eBhxvVoX221e2CLDddTHthz+btcHdaWksDQCadU35ZMGVNZOvlv/grbwpVzJjXk3/7xfT/+1SYdTPs8e8lfW/ni9Y9cv1Mc8X/eDNwklvz59yueDuK7kTLmRFgm3KleJxV4szfo5gm3qpaPKlwruuFr69phDSUZ7NykSYYcVI4oIlKMEdzM09GXP3o3F3H0iOPzx56o7oyTuSorZPvS8SbDti7j84PWp71KQt02O2JkYdjx37+/QZVkEeUTgDz0+F7FyqIL0/P8rOi2cKkuUnlw2w9dULWwvBdg3Bpj2vY0uBfPBvoWAjrJDfFWy+j6s1/IAUPCkS9RJ7kicOyOQJ0V8rYMcZ32E+eCzcklnAjrP+IwMjAUT8RHgCwcA4KysMm9Fta6d4tsMXaO51NdzoH5FeI4NBveZocHoaSbxlOGGL/mD+//lcxmfap6Dqmq2DIiz785F/Ppfxo/Pz/+ntwuhfz5n6Vt6975ZMfmtBwoWSuPfn/D8/jc98tTj25awJv5wTfzEv/YWM1JdnZ72WGwm26MvFE98sTn256N63i6ZcRgm3H79T2LG9EKYl9z6AQv+QgfxJLh9JnJyTzORkd8fc81TMj3akxu5PnL556sRNU8fsiooI28GYCXumTlgfNW59YtSmhHGNcWM+zUq1c7IC2XH0nEyrKF9PS+rNjRKLk5SEGfLJXV9l7Ivf9RBsDlSrrLyiYxVAPHwHhylHlS2cEeFdT4FSf7N62O4ErQH0DhBCI6ykUHTRPgP2GXSUSUST1r6wgYFYoZFXNl+LlE3vstRTLI161/W6GnocI9L5+CuwuX3NDNVuiJ3DpmzT335w5turFdaPWoKA+qfrV//bT7Pv+uCBlFcWTX9jfsL7JWN/kTrl0tzJL8+/90zWj15I/x8f5t97OeeuNwr+53sl//MXs6f+Ij/pvYXjfzk3EmxxF4unXCmecb7ovqtFk98oGnul8EfvFq6rK4RopGzBkmRIQ6RRoVISlG3Lm30lcfLumH9dP2PC9uRpW6ZN3jL5vr3REUP/R6ZOeiZm0rqYsesSxm+bdvfzSZN9RZl6egqeFUfNz+Ln5MCMJGd+TKBwhhmVrL9x7gu4vnplGKhPJYaa6klX9VBs3SIingf7vkEV6d/zXSkb0/84iDXAt9pSJ+itplSDRgezoRFtQjMa+mF0g9FtCc062xB+/LoPGfJ4G1Bnf63bkE7RZJvHi7LMvc4RGVQ/GLYeR6PP3yoyXZbcPWywjTmdcqLnrKXJkqhJwG3+1f5/PJN033vzsl9dkvba/KmXc+9/dmbVr9Zv+ujIo796Zs1vdj36v3es/OXmx/9wYOlHBx9+f/uG3x588r8O3X/54UiwTX+9OOqN4mmvF417EynbhMuF//Z2YfFzhZCS7JsTgi0dCRpehCIlVGGylJ/+aWbi6fhxm2LuXZcwcfv0yXtixu2NGx/JjTw0ZdLe+OiN8WO3TL/vROzd78+KE+flCcnxbF4iVjKLKJoNKcnYnCRndryeXgJ9v/8qYl/8boVgE1EVifBbg0AVvTY1CtvNfd3t7tnCbqSM1YTdSIE8GHYjVbou7CsaHDpmygWOUp6DrP8I4dofNjI0r3hgZDGqqFTaQT2lCV0k3uZyI9j6XCOeZ+tzNgWC7apwBuRTwwbb/T9LveR4PfQ5AwaCUa8uiH41b+zrBWNfLZ5wIftHl2eNfTH3leAFEgIkEBpQYOAADFio7bcAHADDgWv1rw7fArboy8VTLiNZm3oJlZKMvYJybv978c0Mm56FtmpYMUIOlZIUJdF5ab9OnX48btzmaeP2Tpt0KG7SrsSJkWDbFz1lX1Lstuljj8eNuTBjYl9WkjY3m06LkwvT/IWpdF4aZKXy89NcsxPVx9aB6vsCrq9chSZ7SOEuLfyfDfIhwB6xqYhHVCIpyfdt/btSNuLGamCPmUyTzrWaSpPGH0c9ZMlmS2hW6TqNqbfFFpNvCm/hwshRoXHhdGggOOM7HDYQmxFsSrfCdeGBVqerqc/V0u9uH6xCI3Hd52wiiS5TfhbUM8MG24/fznz+05+CgbrjC6brrhdRqCPm4vy7rxROupz3T2/N/vELBb+ifg22gXoEqQCKqCJPC30qWTSGRpaAmPf+rlvAFnO5eGKItLjXUClJ9MXCH75beHwbio6E1czKDNX7h7Lb/sJYJTs1kJV5PmPm0YSow1MmHIqduDk5Imx74mN3J07dFX3PCzOiejJThNlpal4qlTdDzk/1FaSoeRlMQZI8P53ISFPPdRro2yHCTxg2VLKlAttjUj8B/PFR2AbClberbJFgM7jGcPDD4BpVuo7xHcad+8KYUZ6DYdJo76EvYJPa0NxDqVtiOjB/i9PV0udqc7i7RgKwwe/pcDbTRLetPg/6uWGD7R/OT2q4dhZE4BBMwbR3l9x9KXfK+fnTLpekXSn58Tt5//pC8YfERwY6cgqGBiYvcKFOj2ChhBywrGYGSt7YeGvYxr2J4v4JF4oSX0VFkv/tw8KqOhT3hwzkTFqZyI0kQxWSjsIpWvoMI6/gP+YUd6TOODZh3P6osU+nRMyz7Zk5Y3v8lF3jf3w1ZbpaUmilo2JIel6KlJcSLEyDvCxncYJckipnZqu/vyJFHrgRnlkloUbJKjAuBBv2lE1FHpU0wlHE4VLI70rZwqF/m2sJh/4N8WQ49D8Am842KFQt7T2EOfYSrv0DI1QHxqYK2HEBOw5fwNYV9DU7nMiHdHpGvLuWw9nMkKdQC/phhO0fL8+q/eVhFmSkWpyx+XeNUS9njns7euYbZdGvzR/zetGkt+fP+NWS3F8vW/jh6soP1xa8X77yneqc3675QPwjOFFzuP+EYMyF5RFhe37xhHfmRL+fHv96avz54pzzpemvzf/nq4n/8mHeheolROoD7uLYwIL7+cxpZlpK8GF0NEYvTDHnZXHz864XZl5Mn14z7b4tk364K3rc9phxW6eN3xKHbFvchJ3TJjwTM6F97D+/Hj/+L/nJzAP58gN5THGqPy/elRurpyWxWdP7Hoj15kbrGRnBXTtAkyNPkkJCbQBr2oCmJdqUzm9W/Q/b3iLwVwxtdJUaeAjYRcAslNzFKN3ErlN6qi3vYmCr7eDDinsu0A+b2ALeVQLMki9K9Qdq9u/sgqgMlUcuBmIJkKWoGJ+sALzCFuZa1GrBsQroxcDNBeJhqf9BoJdoeIVFrgFmO/An0BBQrttku3W2C4UB+W4Qz6LyEaXW5g9bzEmTaDLIQ2j6mdit050y2aIKLYp80rZrbWyLja+ziOVoH0suAqIU/S8KrrDIxTq2KFyarAeWAvcoMKvwz+ZZXE247dfnFcmNodY9zTLRoDMtIHVIeK2vZxftPaAxtYzvoITv4/17Cdce56ebZaqW9h0OuvejTmfQait1EtOAhh7eqPvLjRPQJQAAIABJREFUJ8fd/s4AffZaz8lwhce1nuMOd1NPX6PH1+1yd3/ScyhAnPH4nr/e2+b0NbkCdT3Ok07vbbudPuchkQmdWNVOD5uyjX85Y+GHT+vAgQ6cZVzxffCDlukTf5cz4ZcPTf7gwanvzo26nD/x1cwJr2ROuVgc+9bCmVfm3PtW/uzOOTxQ4eqtD9jf/OtzEc+zTfzlA7kvzJ12Yc5dH86Ne6No6qvZd1/Kn37xwR+8l7GsYYY9NwVyUj4piIHMRJiTKWQkU/kJXGGSUpQuFWWSBVk3cmb9dnbi1fTpdclRRxLG74q5e9OkH26a9MPdsfccS5zYkDr1o5zk6wWz8JIcsShbzAm1kcydwRQmBkuS+zOmGLnxkJf6pwey4bOPwDCEyH0jQy0jBmBjVH6b6iu1vPOArBrSDF8F6s1ILwOu2vQvEvsWWr6lIK4F8QnAlpq+MmBXgfI40KuswFLAl4eObCIqvq0xq1BXH2rZzWJ/1K64Ep03Y0tDp2lWAFdlYQ/fPMCGlepEuUmuBGYzcIeAbwK+02S7DaaL9R+0EWanQTolBY/rVANwZ8B8XcZq0NwpOGNw9SpTr9BNhnBaZU/Z2AYbf2oo2Er14OLwoRs9UAnsaqBXkdcX3AI2k0OT7PnAiWD/Htp7QCKOc4HDOn0c69tJew9Qnv1s4Ki/f5fM1gKcscQO0M5Z8s9E+nmfpwOnzva6Gv7r+uEbvQ0OV6vX3+UNdPa7mnv7m3DyOZenM0Cc7nN2/eWT5k+uIYez34MKKf3Y84NdxG9yHXAfkdgWdDx8GGFLuVhw1ytzP5Y/AdMK6CIH7Jpf7/mXSwX/cj59/OvZKW8U5F0uzLyQE/uL9PteTv/RhVn/8tMZ//f5zEvOX9ggagA86913vWbMS/GRlG3yh7NmvPWTxFeXjnv1wXveyox9e1bUpaL/fv7Bu9+efua/MtVDUTB9Ap1VKDxUYGZM57MzfCWJRGEinztTyUoxMlPNnAwjP1srzHEW532aM+v3aQkfJET/csbUP6TPuJY32z2nQFw4R10wxygp0HMylfQkKT1Bzk1SilP+XBzLzk+HjCw2Zab753Wo8bIJgQj7tfCyFVI2w1TA5hR+t+xbbrqXqO7SIU12VADxGOCPW75HAX8csBWIPabKClTLzjI7sBKIJ/gbleTHpZrrUSDW68GqYTGht1zqr1SclZqnUveiZqyINFT4/6jQk6d7ChCE2BrAHgH2UQtfZpCLTKrKYp4EdjdwJ4FtsZlOg+myJdQGC7UZhp+B9RLARdQHmv4ZqM/JTLMpNgjkQVCbUK09vAbqBRtfZxOPW2S1TZYDueRzZau2SHSSLXwOAMFGrQRiNddXegvYbKFDZ5oYL4pDMr6DrP8QHzxi0I3Bnj188BgfPIK79/r6doDRBnanTJ21pJ+r/Ivu/pY//+lwkDjd66rD6E6Hq93har/R2+TxdV7vqe/pb8DIU5/dOOENPPvp9eZeRydOvejHnu11tPf0d/T03/YeD/cdV/g2MM6AOnzRyIlXcif/rGD9x02CSYCpqyB7lJ55722f+s78sednj/9FWvyVnKT3iqa+VTDuasGEDx+Y8NqCEz3dkk2g4Agr9li90ZcWJLwVUdni3sr4X7+eO/7iwzOfmx/9WkH82/nTLxf+4FLuzj8kQmAR/HKmr/wuIyMHm/OAZ3aCf94MvCQFxSSzE+WMeD0t3s6YAVkzITcFcrPsvEw1Z5acky7npGu5GZCfBfk5XH4mGgCQm6llz9KzUA88KW+mUJjsKUqA+UUwcxa29lHQHLRGgIn6nEf8QS2akbKFYBMl7pDofUJzrWR6Vgxp3PVl9CfL6I8foT9dQ326Cv+k1PeXuc4/ZZE9ZVRPBX1jGd+3WvdtMH0bZccTzLVV5PXlw2LUteVc7yOi81HJtVpyVsueUFcfotR0LAVyHqjzAV+suVeY/mXAV9t0uUkuNMlSi1plMxssdm9oNmKzxbSh6i26XqFO2kKbjDfT3hoeOwlmmya3UXiNQDeiruZqm8kcU/E9lPNpm3gcnSK9CVtolBRyg5cNOmJTbgSXoiM2/tWya0Uk2BSy0RY6ZKKOcqM6EtZ/iHTvE7CjcqCR954UsRrSvY/w7CW9+8BoE/4/4s4DLIpz+/9DEVSMmsR0kxiNvQLSBQHpgi32QmxJTNTEHo0NC9J7B7FGY4s99sSugPS+u7C9l5nZ2Znd2Xr+z7C53tx75f5i/t573+c8PMNmd+PD7mdOec97vpo0sBy1mY6C9ZRCXtjJzRZJSxqak3iiQr6kQIEeau/I6uAzR84E0lyRIqeZnSAQH27jZHJFWWJFEaszh9VRJJQc+gu9lBp5hpEsAfNhm+HV7bM5XfSY/nTF22Whv5megomp6RtwOYvgzXy4euzP0wb8FPjOjYh3bkf1Oxv0/qmwCdfmFSquAJAyiRKY4Tn0D61Fn16I+ehmt+fZfO589uE5/76XvcbfjPU/O93tfMCwO97Fv0YbOqZAUxC0hcnve3EXDYWhU7DoaFnEQCzEmwjx0YV4USGeZLA7ETIeDxmDho5RhoxThbmroieqY701cT7qGC91uId6ygR5oKcyaCIa7EWE+ZGRfrpIPzTSRxk2EUImWcd5sz6bBaJaMGNgYSqodPfTtbq0TRnYTBYj2GgST9eKtur56ynhjhcaYHtw1ndWyR6gcknBdiVrLaXYqFd9B8YDYMs2o4m0Yi/TNqHdZ5RsAP0upjvx1VgikMlApQC22yT5lhLE60VzzbJZoFsNqoVm+TTQLgR6FeBLLarPQD/HovrMoppnUS2xqldZ0E0WbLcVT7Xi2WbVIVqZA/quLWPbCTNVZDYdoE0bKTLZyAh5H7Roj1HKHCD3g2ENmJfY1Ctt6uVWNTOAhHGkykX2LLTr8OhC5n/xT4dHu8nZTFiBRVuklaZqhAdIZRom2a/k79YpkrXCLJM6XytLVvB2EspElWiPjS61UKV6Y6YaO4ATWW2cnVx+ulhWyheU8/lHalsT+PK8DlFea2c2X1bClea1cBNZwkS56qRQnsuV7uFKEoWyIqniJE9Y1tC6/8+Ejn98jladYzEcBMsRq77sleVs7/0a9unVKT4Xp/v8vIAPrUCptGAGmYEE6UP1vcym0vXVKV89TNj04MBp3nkecAxWHZiZYgoYDT+pbgw8GRlyduabj2Z1F0YGnZsz6mLIkGsTh10L7HcluP9tvz2PJ8GTaGAFSKrcqQ5/myZQ/ZMHTPaFkX662MFafw9dkCcZ6k1FMRPI0Vgf1VQvebSnLtRDG+aJR07EorzwaG9tlJcuwosKm4hF+6kjvFVhE9XhXliULx7tp4nwVk7xJD298chp5G+XcUa+lCkx6khmCEu3ixFjxG1WO2xmLZ6HCffqeLv0krQXmrZzl4a1VS/eS0oTUcEem64EqEMdzXushrNm6qxOdRzo80xsZirVybYBtRuw4ldjRA7TwksXA55ulGzW8ZYzh+4UsyjlEsBTgcgCwzeKTj+LegGg8UZluE3JYGBSLjCp4k3qryzoRiu+C3SJoP0J8AIgM7u2jM+adCcoMhXXrzPTSWDKN2gKKWUp6MqBztJja3VovA1dYkOXWDXMTASmBZmBjeHNpooHzSKLijlla1EspgTxFO8rUG3vzrPZdCUGdS4qSsLEyXbYVIIErewALkgnZWmoeC8uSyDVSdLOBKCPW8kTZvjRAids8BNKlLE6U1icbLHkKJd7REUca+3IVeHnBZIzSs1VrvBEe2epmjjT0lrO4qY3sNezhbs1+Gmh8Fw7u0yjPfFHkP7MNYUX2IyHwHr0VcI26nrkkDuRw4/5jro5PeDC4lpgCYAEiR60eqBpRvQGdIwZcSB1oDcCRqJWmgvUj7LLnxz3G3LFd/gx3zEVX3QHm+/J8OG/Th99PWbQGf8hd32S6sLphihoD4IafysrkMMdDewJwI2hin0h4BMi1psM8mT0a8J8qCh/KjpQFz2JiArQRvrbJnmaJ3kYAt3JSROoQHc6yMMaNBGCvAxxk4goH80UD80UDyLCl4z0I0O9sUB39aL5xrOHAbQKmgILo/+LaVFm4nl3ixmrafdszFFZHC/WCFMIbjIu2vdCU7D2G9XZWvk+Ge8HEstTyw9dOf/9tk0xgwY6vf0GMmFU/w3fRPx2dY9RewrguFaZYNOVvBLDxGkGdR5gxRZVFiXcruOtZI5sahc0NE0d0AN5A0Haa+YBzDQq4nH2UjAuscnjrfJFJvl8o2I+rYo3Y19biU1A/gDag2DKBzKVUhZn75u7apFvbuZMgJNWbQYp3wv6LDDkgvnQ4fywtSs+2vDVSBu60IYu+hts8aBc8vvmhPpzQOPNytlm5WyLciHBXURwvgJ0b3ewgaFcK01XCxJ18nRCnoKK99mNkKQoO3eikl2Uep9avAeTpAN99valNdNjRy5f5pWUNFMqPcnpzGeqjqISPr/wSXV25NR345f6zZsXsHBh6LRpE2d9NnHp8sD7v5ULRMfEqkwOP/3Kld0L5vosWTSxtu6lZ5bQumIwHwHbMQv16nojx5wNHXslbOT9qPeOerz7ZN7IW6urOuoNzFxyZhuNOW5iZgIwc9eGtsYAYKKFVjSx9ujr58MHXR496tSggU/DvX7q1rMNvz95wumY3mfj+v8anfsgBqpigB/Ox32gbgaIJkP7aFujO3ROtrX7PS4ZJ/Tw0kf4UOG+RLiPLtRXF+xHBfnTk/yNAQF4hJ8m0k8Z5aeM8VfG+Kui/bHoAGYyOSN5M14VNFYb4mEK97eGB5gnexu83eHCEQARBgTQQJCMsoANTCqbvDvWumbYEl2erQs27KBGkIV3Zmolu19oqCBXr84T87apVbs1aHZ6WszA9xBXZ8TZ8TUHpFdPh54uCNKnB5K4K0qPH7MYSozarFdienWRTXcUDCcBL6WlCZTwa+YcELngWfNnvRGkP/K2oG2zROhJS78E2V6zZDbIljEzJGXzDLLZtHKuCVtm1a0F/UZmKAh5wITtA7i9dHqAG4IMGuDcWHsYbKcw/nawJdPEFn77xg/fRF5DkIgJ4TZsvg1daNUsZFwZM6vrOWzLAPvcDptVtQjvWKBlrwJtUrewmY5ohMkq/n5KmdnVOLLXnrYRkkQJa7NWvptQ7hZxtoL+MFDnV8x/vyfSzxlB+rshtdXHudwjEtnBTl56Jz9Frrrn5Iz0dEV6OCAuDj2cEMfXevXs5YK4IMj6dcG1TftQ7ZnDB7e5IEjfXkhdzUtXI5mEzXL0FcPWnUdioTwpIdUbMEZSykZbrBRmxsRG5VL17oCnC98/6ffeCd9hl8NHXYv+9OKUj84Evntyxhu3pgz51Wf89YDhv0RPuPiZ1+XYjx4Exh2aiVwI7HXPI7faD9q8oHMY3TbC9MwHmgZZ6oJNbQFW8QgQuUPbBLg3mj4TZBw7QbPQj/b72BYXwA6frPcON4eHKCKGasOYfuV/NTrMEyLDKf8QZaC3MdpdOtMdG+utPPdvGo5fjJvNClZG/IBJ2cBGatVnNJK9mGgPJmEqZv9qClEGKkxAhatIfPPTpykOCOKMIFGh/X97+EUjZ+8vv632DECcEKQX0vfHI+uMsBVUhwxoIm3L1pkLLeZDNH4Y4LwC22cw5ZCSXDCeB7LAakgk6RSSLgLbcbM5w2QpI4hiSlUI8kKz+AcblWA2l+i06SbNIYAyK3UATKd1kr1G3lzgLX/6IK63m4szgtRfnQnYclWnN5jnmUXfk/QXMvk0gHkmLByweQbeCtDttkjXmBVfg3QDiLdYtcuWLXnbAUEceiBff7HYRoeC/Hsba71Js3bHfh+HPn0RxNHfCwHlRjM620xO06OLdKqFFnIm6Odb5F8YVStN4s9AGE11hoNhlUK5iiR3gC3FDDlSSR5YjhuN39tMu0n5ESCuABwG3Qkxe59UsE+L5xHaIh1WjCnSMMk+rWivWZVvwfeqBVtl3ByzLa+2eUcPhzdcEeSd1193QpCCss1S8iAf3c2Vpbe1lbCkhY6OiKur6/a90xvayp415Px4+qsVKyb3cu3tgDgfO7mnQ5F15fZuB8TVAXGsay/pLnQUCAs7BQWdohKutKxDVMjqSBMI0lBlTlePGNM2DXTJK8vZuoPtg7Igz7MzZz1c/U3TrjUtCfMq1gVcWTD0RNSYG1NHX2dGsg67HD7s8u8HtIddDu97PTjsdJzflRlv3w4ffGny8KtTBt+J9b4ww/Hi5MCbk0seTZbWhUDbJAvLi2BP0LLGAWsStE4w1AbrGydaOt6B5kCoXAjPhsu3rMYnjKXjPJVho/Apk4jJoeDrK40b96+Y2R8xTPHSBfqJpk/Bwr3xqLHq0YPFadtB0b3M74tZg5eFjVDnW/BMNW8NKv/h61UeDgjy0ft9WxpyVKIyjeSkFj2rUp6eMLJPHwRZGx/IzIdSpwBd3tKed/DQmvWrA3asC0rbP62iMom0JNroVKsqCeA0pTnx47H1qfuXLpwxds+OSWfPfIMRJwBOM824cIiQFR8//N2Wbd47t8SUF8ymdKf375mdmRrc+CjSzFkqZK9GHBAnB6T17jwmp4LVuOab6utfbv1y4saVI9evGHz+2AwwJoB1iQ0PpwTBtHKOUbQY1OvB+MWiuQOckF4OTsj7b/SvezLdgk4HKl7Wvs25B3MLcXFFJoxwBsNmnXqOTDyvrnJ1ZmLw2pVvJf4wIm9/CL/xO6C326SzgP72yk8hCTu8ap6m3L+26fvNYeu+idn9/Qw+O9Ooz8LVyZgqFaDkzKGVGXtjly4Yun1zwNWLX8lFyRrxdlK5jZSk4sI9lGKnTpos5aYAHM0qmO6AuEaFfbJz29p+bj3nLpzcLjrElqQIFSXtbYc6FCUIgiAOSFbRYq60rIGTqKZKeeJjDoijA9Jj7kIvCVF69spWB8TVrVfv2rbC7mATioo6BQUdwmKutIwjLGB3pguF6bi6q/uZ6clk7D8OW79rnm9f9/74hv+wW0HDb0/+9NfJA3+d9M5vAf3Kxn16cYrn3VnjbzPj60Zdix5zY+qoa9Gf3Pbyujwt+NSS0edmvXd90rCbPqMuR7x3YY7bg4mlj4Ohdgq0BxnZIdAaAewAlWgEcMKhzd1cN46ummKsDzXzhhn4vlTb5uZff9YExhARvoKokeZgd+Mkb2ugr3KqV3ewWcImySP82DO8ZbETiICRtogIpbKeiXpfcr0sbMy9WbwfE2wF88EZcYN7ufaeMO4tgDOYcK9Ve9hmOAxwuK1hm4xzVNZeBKZiGvuhpuLAhwN7OiHIO25MbNbbAXmtN5JXFgVwjJDtxERlkYGfOncFn/2ckLfdEBcn5PPlY+WqXDClE6Ls9Ssiejo6I66IswMy8D0keMqniAPi6ILU1yw3KdfXP17s4ID0ew3hVi8GbBGFfb9wkVtfB2SwCzJxUI/+Dogr4rj2K09UsRCIaJAvp1WRen4sYF8BfD1n+pvOyOvjxrzVE0E2fjmFMATYzNNWzR3XvzfSqx/i5IhEBXmYzO4YGnXhp9nv9erlhvTzcx/WE0HecOk5eABSfy/epFygYH0+aTzymjMy2dPTDUHeH4C4Ioz1RJAHv+1CiX0Ax9atGtXbEenpiAz9sHdvBBno9tbG+KmCun1WbBPGz8BEGyn5XkyUI+DsRNHi4OD3nZyRW7e/r6w65uSAuPZG7leW1rbkNLPzhcKTUt1xhHHHSOGh5QrieBM3ATfnNXPSJvkHOCA9ln85hYQzhYe+6O3av3cv1xsPdv6fsHVKSu2wicWZOqzw755NX/Qfh23I5YhPL4YP+zls5LmwUT+Hj7wYOeJq9PBrMYPPh4y+HjPhzvSxN2NHX48ZezN2zI2pI3+JmnBj0oA74aPOzgz5kcnfProeMOxi8Lu3YrKe+YhrJkPrJAPfA+f5QXsEtIcSHe5Wjie0+UGrJ7SE2VpnEaIJEv5MdvX9Jw3PeHkFMv8gdIaPNvBT8B6BzppkCA3oDja9vy8aH0FMGSeNGm3wGEMfzDIDTb4kacys/5cMI3F1CirYoxXssRJHZk8f37dPv0mT3lWhiXLhN5V3v6mv2N1Qv+Xp428ba5MErGywlhjItNDADx0Qx7BQr5rHR4XssgN7Z73m+nrf3r2ePEgE+PnAjujXeji6uCA/n9vRyU45WrRjwJuMYzl36TuAgoe3Nr/uwtyzt+0KY7f8cuNqppMjgiDvII6IkJ+i5q29d3lmbzfktb5I/cMZgC88e2aGgzOTwLQ/nSOXfn738eoePREHJ+SXy9F60Xzo2GhWzzSKZoLsczCtnDPj7V4O/dd/G+I7GnFB+jR2RLY0x7+JuIwZ3GvHjknvvYG4Dx8K5DJK/MOED5nbREpSoMa4vqlz6czPevZGkP1bx5CKBTS+6bOYIc5I/9dc+m5YE1tdvf+3u9vGj37DBXHzHD8A4CSLlfNR3/fe6ut880aqBj99++YBj0/f+bgnwnmUaRBvJ4T5mHStjP2DqCUdrKX37+10ckAQJ0SqTm5m548a7YY4ISWHt/PE5xracviCMpY0n/FsiHNazhci+UWJ+rRUc+TET5t79ECcHZ02bJnZIki7fGtPVxiJ3H/WbelfJC7uFBRwBEUd4hKOsKCDlymT5Rh0pb/Dpi+ykX9h/Hg3YxG6CyOHXIsdemPa6Fszx9+ZPf7O7NG3Zg69MW3ItVj3X2eMvh4z8hcmnhxzgzkzOvxKxKhr0SOvTx18afL7NwKZAzU/RSBX/T9+5Jd9Oxya3aHRR9ccoGJPNPLHQacHtAbZ6qYwsHX4QOcUEI2hxWPFDekNjxse1156UFn3rO0Zb816U1iIZvIwMnyEZhpz8ro72CQeY00Lw2CKB+05SjxnJo/9BPSg/jcl/m44fFnYZKLdRnUmLU8xqMvjokY5II7hER8p0d0Emnr1521uzoz/cXJA+vdxer0vIlMc4XfkuiCIgwNS05APcMFiTkS1xQ5ID0fk47yspWA5MexjxBlx+HbDPBOcAMiwma7EL3VHHJDQqGFqIjsxIcIFQXwnDSHwFFxWDJafz/64tY/zB84IohAUgjn3yY3PHRyZb2dz5RwgFsUv+dCxR58138Tr5At1lsk0rFm4cnwPF2TTdx8yc5GVn9uUX4F8pVG43EQuXTzvQxcEOVgSc+5YiAvSZ/a8N5YvDnNDep06NDf9wLjeCBIa5KVvXwXGndK2hUBvscEyhW4Sql2ZtHtiP+fB0SFOPFYcTW5ZudTdCXEcO/ZNs+1ngBy9Kf3UqS1OSP9erghTHuQUuCFvuCA9Dh36oaZ1mxEOiOVrter9Ks5+PS9HK8kz4Ds0ov2C1iSAn75a6eeEOK/dsNgEBWryaG7Bl4gz4uHznlB6RYmfFEgyWbJcR0dnBOk7Zty7oaGjAgM/GTvmNWeEuaH0dkMeVpZ0KLIO/vi1E9LLyRGpY3V7slssKekUFLD5hRxRMUdY0MnPUirzzYZDDGz6IqAKrbq/MMruJWEbczt81M0pw36Z/OmVwCGXJw29GjT8WvDIG6GDz4d88nPwsMvh427Fjb4e88nPwYPPh4y5MXX8hVnDr4WNvOM/+EYg8ksA8tvEjRV+8DQSuMNNbZ503WRoCALWWJo7VN/qCVWRwJoGvEkgGawTDxU2fdt4r7XygfpRw69VlXW/sRpZ925qI2cRkd7cRe60/yhzeEh3sClDvax+Y5VBo6yjvRuP5bNVAtCD+T8PW3P9d1Y8l5IkAnVk1rTRDohjcPBAis6RSreyWvP27FqSm7972LBhDkjvdz9ALHChpiLbGXHt0wfpFO7CFNvM9FqhZIOft7sT4vbDDxP5/F3vD0AckB63fisjdIVm3QGTPm3TJu+eru849kAoS/mKpaPdHF1XbwzWqb4FUxZAJqsh2QXp0d+196NbG8Fa1PR0I+KIODkjHfUrTapZwf69EeTNAP8PvpsX+NUyt7Xr34wMH9cH6TNpNALoBqsszCZdA6o1ZumXBmLpkkWDXRGkrNhdr/7ygwGMP3zH7ZMBLohVtzUnYYQbgvj4DQHNLNDFALny54Ox86YMCh772rD+yFsM3e+ET3bTadZbjAfmfDa4bx9k1WoPtW6PQZNGapOb6sudETcnB0SkShZJEsJ93+qKLR0HvTVkerTnjyfmtLWsxOU7AS/BpCmUKkWnSFUIk0SdeQNeQ9x6vv7LrZNWuCCUnbj3oOy9D10QZ+TXewUq7ekW9g4+WtgFW/9+/R3793VwckScHRFnxDF+pffDpydrW0t5mjR7gaSna4+q5m5Vb57DxhYWsQX5XEG2RlME5mN22GxkgVn78kNa4WVhuxA4/nKwx/WwiTcjPG+Ej78aMurngOFnfD/4yX/w+ZBR16LH3owdcTXy04tThl0OH309xvNizOA7sWOuRg2/FPLxI79NT/1UTwOBHQq8CWSHh7nNF5oCodFf1+qBtnlamvygbQpwAgnBeH7zl3V3q548aKpsuFPXKGipeXb32bNaHkuckIzPihZOH0dPHqsL9e0ONv30SSaPoa1+w4TffN3QWM2VYMxRIROz6/5S62U9m1qWblRnqrmbMWnSkoXjezg5jxjuptOVoLINem2KULhXbzy1Zk2EM4KMH+tshuLrVzYN6P2GixPC4WwHuGTDE3F0T7CfpwuCbN44zGo8NKAP4tajX/mhDWZ9KRDFAAU7tvohyDs9XB01dNa82Z+4IW+t+NoPoNSgOGDS/lBdtbmHk7MDglQ+3QlQymve7+SKODn3rL6zkBLHzgz/0M3pXU8PZHrQuBlhb0QFIZ+FfzQzcOiWZaMsqu9N6jibNB5US0C7Uk8smT+HgS3twCAwrT11LKYnwvB2/dJ0WjE/c8PIt3ognoEfAPyACrcEjEL6Ir0G9Xl3wdRPi9Jjtnw1zgHpFTqpDyrdD9ZTCz7zdHNF1q8PACgG20mDOvvB7aTXe7r1cECeVG3GiN2kJu9o+dyayr7dAAAgAElEQVR509xdkb6uyEeuiFtvB0TATheyN+OKPYLWJBF7O6baffns5p5MiOg4cvwnA99BBryBjBj2jj1D2779c5nqvESR3yJOQhwQF+d+366fdff+wYdPC2oa8hXKBy28UqHilw5ZGUe5p+TYMkekp0sPp3tVid3lbBJpaaeggMUrsMPGE+ZgWAnYTthhs89r+I/nbMNufDb0+qzB12d+fG36h1fjProS9/Gl2I8vxQ69FDbmxtSxNxntm+FXIuzB5PArER89CPS5OPP9i3PfuhmVcWsKPI4AVqhc5A6scANvoko0guhwh7oweBZlafIj+SOh+U1jq4eyJqn10YPHj28/qLj1rK62pb2OVf3ocW3Ng8fVHZUPRAtnG9w/VS/wxXzGdgebLnQcIwoV4lvx9HRzdVtrm5qZEWbDXoq0v5CzGbQlat4esyZBq9y7e2es/c5aV5Og52do+fs1ki2o8sCIj5G+iOu2NYsxRVkHJ80VQfr0RDhNyaCqBOUpsBz/+K0Br/d4My/jMwo9M+Tdt3s5vVZ+eKnVmGGTpQCWtW3DJAdk4ORQPy0c2LQu2A0ZHDR5kIJXBNRpMGedPr+QiVN7OLVwcnBsX0PFNidXBEF61dxZCuSSOREfuyH99+8bScJCGlaYzV8Ytcut2BortgYVxem1k5kptKoYMMZr8Xkz4z7qjfRO3PEJ4GsJzdptGwJWrxmGa+cBtTLly3GvI8g4/wE0LMnKHtXTEZk9Y1SbcKkZIlF6QcI2dwcEiYt4Vy8vN8gvzI0OdkaQkMD3Ac6DMhXgxN3rzE6XM4I01BVKBAmEYr/VXEiZfqBgx6WrK5g/COLy/bfhFJEj5n4rY5VSmjQc3fz1Up8+Dv16uDggjogr4trbqXcPBn9XBHEe8skbj54UdHALOMo0px4MkXuS5qHkVZ4ir130A0uYwlUWtwuOiLAyjnrH2avrezi6OSDI04b0fwMbV1jI4hWwBIVsATNsXKstA/iJga0rhjThOf9x2LrL5fpdCut1P3r89ejpJ8O9L4Z88OuUwb9GDb0z1evcQsdzoW/8MvFAlY+W7QGcYdA0EqoDgP0xsGOBG6LnDjawAqA9Dlq9oHagihMjadnVUvHLk4fVFdU1je3VzU11NY+bHz9sePK0svnp/V8E95pvnFGPD4foSG7scEXoeGOMHx3mpQoap4jwUscEaEJ98YCJlrAxivETRUVld9kNd59V4mKxGYxmS/edIt1QaGMcYpc4K6OGLJOJCwhlIiZI+dcdNvsjtDxZ3L6JQg/wOnbevbfprXcRxBFx9/C5/Ns0tjjzpwu7Zs+LcEKQAX2RyjvZgF1S06tGDEP6OvaJnzOjvSObI93505mNLohbb8S56mEBwKWvvx7i5owMee99dvsFg+1wIyvPxRHp64Rk7F1p0Z96+Nva1xyRvsiI9V/Prq0uO3/xO+ceyDv9Xuvfw6GxOhdHd9bxCp2RN/ohbz24uJDG486fCOrJxHjDWZ2hWtOK+tYN3h5v+U94K3X3ENAuB/VikO4zKKIosw9Gfff5/ElvOvYpSpupls2j1J+BZTloF1CiBbRqe+q+AFc3ZLT3CL15waY1H7znisyOHIriiUpi1fVbK/r0QByQt2ZE+qqlpTY4Om/JWARx6+niWlq0XKI63s665O35qYsDMn4solJduHA6cYrvxHVr/dn8DRR8p8LTh3/4+luuA374PqxTttKkzhNwtkklafW1ZW7OTA2zOHsZp3X7pUvbr9749trt1QcPrnJBEDdHp9MnUnn8H/mCU716IH1dHb7fsFgiP8GXJYsUee3skta2MjlazBElCKWlF85luCKIiwPS1nqqO9jaWJk8UQlPUsbiFTBHB+QFJvIgGA8x84ioQhrN0qsz/mewvX09MuJsXMDVuIG3wwddCXnvVsQHd2ODz8a5XIxw/3XK3qpgdm0Q1AZA00Sa5U5w3YEVa2UPMjZNNDfFAc8HuP7mllCqdaC4eSen+njDk9qqis6qusZnDQ/r6ytaalvrKuof1VQ9rnlQ21zR8PimbNV6GO8tnjVaHepOhXvTYcyBAHWoJzNNOdLPGjlJ6zNCOncO/+L5J6yWh89qNCIx2EyU6VXAptqHCf7eT/S8sch+oRMnaSX7KE2ynsgi8PLkA3FDBjk4OzDfkn4ubk5IDycE+WSgS27mdCudC4YfAH795Uzma4hrT8R54JuOvp5M9uKCuG1eOwbgiBWyBNyMwe8yL++JIKOGMnf0XgjiM7Y3iZWZzPsBCuZ+NtAVQfoiPXsiSP8+iI/HeBfknZ5IH0H7BYCTtez9TC0eQe6dD6U1ER0N8QunDXPteiTad0Q/R8QNQT7oi8jY68G0EiQzQL7NpIwFiNZg3yz5bFBfBMna6wn0F7R6IeBLQLMQFEtN0s1J20f2cUFGj3mNxr/mPNv5BoL0Q5AP3JDokIGvuSIfvevYwwnxndCLJg4CHJ29aHgPl95DPnmrV0+kTy/GE/Xr4dzTAbl1a4MGS3/08OvBHyK9kT4D+7kunx84+J0eb7syGwCXz201GAtxSYpem4Ghudu3Bbk6ID7j31eKz5j0BR2dR2WqQzxxtlB0euGcyS4IMmfWeDV2rpN3xKWr3Lp181y56mSnOInDTxdLT/D4P3L46W3cXWr8+Omf9rg4MDsodXXdbmq3s7Oew9bBy1Ypi57DZiML/sewTbwcOeVCbMCF2HduRbr9FjXi6lTPn2Pevxz+/m3/AzVTtKxwZnu6Lghawk3cSTrRaOgIsTRMNFf7QkMcsINN/Pe1/Ak67mYp60lzZcPTe7yKKkF1Y2Nl/b2amoftta2sutoHjRU3659IK5rrGmpF509Rw93V00ajod54qA8V5k+GeqOTxhHBHtZof4gLUnhN5GcnttQ+qW1qq65plHcKwGTDmLF0L7cY/Rq7Z7PYPVsewcCWjEsTX2ySFBrNkHRuVYl26dQ5OtWRq2e+27s1cmrwmAlDX4+ZMnLLutjfru8B0zkbmauVbMbExwBuPb7z/d5toVODPoic9NGi2SOuXd4M5hQjuQus6TbDYUHrkYQNcxbFeYb6fBAXOO5U6feY+EcTUQ6mgwRRjFPHb97ftGrl8HXrRh07tpzddqM34tAbQfjtRUr5+k7B3s1f+3234GN583QbHg36bfyW7YW57rO9R0d69Phq4dsl2VNE7M2EZJFNPpdmzwbFF6Qg0oTPIFRflWX7fL3A7dJRD7NmrhVlpGpAPo9RqJN/c/d02Kblb+fujzSp54Pp+9q7C79bPHhWyPBw749T9n327Nm+1Ws80pNDwFwGcDB22kAEQVZ9Of3R/XWRQR96jXp7yYzJ187upLTFemq3SPhte9Pa5K3xC6P8/Yd/Mi1w5L7vp1TcX4epUrWaFJVgr1y0W8TfnZcdvXFNcEnulwC3CW1iU2uWWFHA4iVJ5MfPnGJ6HePjRzE9H4KiL7/0WLks6Mjh9R38QqE8kyfOF4pP8IXHOwRZ7by9fEnBnTup8Yt8ly9zb2judqgrcwhVVMQVl7L4eVxBrkZdYtaXAV0GpjIbWWDQZP4vPVvgpYgh18KGXAoffjX24xuxHmciPE8FuzwKTqnx76gPZqog7R4Y1xcEEdARCi0e5o7B0DAN6uOgcaKpfrCa/S4qW04rFbhGz27XPH7Kvf+0qaKuorr+Qd2zisanLazGqnv1D3+tqeI94dQ1crjNz7hzpmsDhmmDfPBQPyLCXxfiRfiPM4dMNEf6oqHjlNMWtD68fI/dUF/V3FjXKmZ1gqFrEtHLscbss9lHqzBHBMwSmTiPUO3BhAdUgoQXmpiTQCjSVaIEnTJR1rkddEUGeZ5OVCATb6urXiYWbEVV+210MViPo7xUi6oM9Bmo/FuAXVrVNgNezJTv4SiGMYVEnTQViMO0uhjgnBHPozSlKmER0AUmPAuoMjCcAMvVy+e/i4oasHV7LEAmQKoJSm/f3t3HBenvinBb0wh8m0VfSIryhFVfgmqBRRxrEa8CYqPVOB+I1UpeNIlOwxTRYFqk6QwFzVIwbANqKchnA7YMdOto5Vq9bJVNvRx0S3SiWRb5HJDNNHREMkqL6Do97zvQpoHua2mrH5BxmGyuVrFLpykBuKDGDojlqQBnmGlZhsOfL3bv6eyw6btZYP4JTIcN+DGz9hzoT2PSFFSSgImTVdwsCl+nEu4Ut6YpOjKlnVvAtBeTbzHhmTSWrZImyMV7AH4G4y9G8qLVcgzDdvPE+Z2iNJ40RaI42Mn9USq92NyWL9eUiOSFraxCHv+ntvaDrM5sBVYilJa2s8t4giN8SQGbn9zKSWNxDra2HmltL+GJuu0g6eDl8sXFneIiFj+XL8rFsBIrXc7ARpdYdfn/Y9iG354y8nzI+9eiBt2MG3My5J1T44fe8/62Ko7J06r9oTpAzfHCZGNB4AHN/lAz2dwWAFxfaAu2NAzBml5D2V+TUhFtAMpo0hAURyB4Wvv07uPbjyvuV1fW1z9l1zU8uVd1t6ri2ZOatoYKVkdz45OjSRr38YS/hy7cH4vyRYPcjf4TYIofEerZ4jdYmZDe0FF7sam66lFtS1Mrv60dDF2TiP4KbF07BhYAi0gmybXD1l3OphAmaeVpNJ4JVB4m2o2LdurEu/WyvQpxgplMB0OySryOkG8GU5pNl0pjqaDNtatYWIli0JVbdYfMZKlFX2xSZIHuJOBnbWiJgrcOLAk2w16AcpuO6eU1KJKBztQqE+7eXMvEhD2HlBctuHJ+U3PdiUDvYe+99lqwx1CD+hqj7G4oB1WygbeM0ZGSfQ6y9ZRwjkk7ScuLA2o1M62AXEHwp4HuC2aEiTTOKo3S86cZ+IuxznlGxVwwLgViMeBdI0bwBYDNMwkiLcI45iiNZLFFvFRa9ZWOs94i/x5sacyBOnORTHiAJkustkIwHCKEGQDXZsYMckGQLWunWYhyVL0RU28Ha7FKkIBLkzBBMuiOqdrzSPVatehbqzYNFSSa1UUmVbGCnYTxsxSifbg8UcbbwZwcp4+D8bhSliyTJ0iUhXUtOzuEqXxJXhsnR4Of5ouLeOJsibJYoTmqxk4pNEdF8mKZ+iCbm8/hlomkh1md2WxeRpe02kGJ/LgS/VHC6Ce+mDeeMI8vLuoQFbD4uUJJPkGU2ozlTHXEUPx8NtH/LGf79Hro8F8ix16NG3k5yu3ihJ43B31b4amvm89UROo9TPXBFk4w8CZA66fQMB5vDmX207j+5s73cNZ7OPsbWiAzokDQelyvNAFBmlUcXsODx7/dv//wWUVDY23H05rKZ08eNldU3Wisa3rQ2FRVc6/lmmjGXIPPGEOMnyrKSxE01hrkDcEB0ikTm6Z6dVy+2shpv1pZ9fDJs4am2k52C5iBUcd+ydXl2f4IWzahSsCEL2hB/h0/aRIuS2acG3+/tGO7RrDTiCZa8P3clmRCVqQVZqHcAwZ5BpDFNrJMLckA40HQndBLjujl5RZtsRHPwRU5JvwUmLKMilSLOt+szgFjtoVM0atTSWUOLttlVheB8ZKSlQKWgyZdWcaBGV1ZWY/Bb7zZuyu1640gwtZzNuokKtsBmmxe1TyjeB6QK0CyAnTbgVwFeBSQ82jx52bR12bJYlAvN/OWATMpJAaoeYAuAc2XVuVSo3y2QRSrF8wCdA2gy0yS+UYx81ZExyxVS6ysKVbePB20qaA9ZFOc0QuPA1wAfY5WuRugBGxFOnEOoIcBLiyc+X5PB2TPlmgrVmgic426HFKdAvp8QdtmKWubonM7EFnqzmSmzU20k5KnSlqSLOpDio5dQB2gsCy9JpNUpjD+3FAIlkMWulyrLRHKCjqFuWJFiUBayBPndgiyapv2SFVlHcyYrfwOQRZXlMOoFoqKOnjFQskRkayUzc3p4DOPsLk5rM7sDn5ee0d2d7AJxAUCaSFHmN/OyxLL8ymKCdqZgef6IhOeY5+69z+DzeNSxMe/xk64FOtxNnTQfa+vnnnyKwOgJRRaxtAsd7rDH9jB0BIAje5ky1ic5WllexvaQwmBu062jBaLLBqgaVpr0GCokqZxi4UgUFUHi19X3VJdXVvbUPWwqpH1uLaxrupe/ZOGR8+ePquubKtg5xZYfYebYifKosepQibAlEDS15sfFaj54YtfG56wa1qrn9Tfq6+pqH/I5TYyqddf2tTuOkVkZcJIi0AmySbUuzDhfgVv1wtN0rkVlx9AJakKXrKYvU8hSlSIExSSH3RYpkacpOYe0HSkazhZKL9Apz5k1P+klewRs7eb8UILmWsmU1WybXptikyUQMkTaNU+XLwLzCWUMhuX5qj4mUasVCXdpRbt18sKQXOK4JVRklITXtRY+01+4sq1K/2S98WePfM1m5ViIAvAkkaiG8zS7Rr2PNAtBt0SijPLzF9k15EyavzAuAKweMCn6nhBoPnWIvyKEsTY8AU2lJEvtCqXmMQL0faZ6raFaNsKnL1U2bxY1b6cEm2k5dtMip1AJoIpDSDVps/RybOAPqZXp4ExE6j9NLqTxFJAWw66w4Bna2R5AvZxSnVSJ91Jag6D4RhN5PLbtmrESSY8x4inyDq/BbJMKztAqRMV/G06ZaJGvF0tWSfhL1XLUgTtO0lZmkWTCeYiiy5frz0s4pcxGhqCUq7gYHtHLk+c3SnKaOtIFUjK2tklfHGxUJ7LEaRxeLkcbpFAXM4VFncKM4XSEr6IcXQdghyhjJEpbWN3O0FZJLXDltvOy5IoCgyGcjCXM7BRhSY8h1Kl/y9ztlE3Yrwvxr13JfyDa0F7bsfg9fOY3KzxY2gM0fE8COEoaPeCpgiKFUlwvKBlENU0UMv6kOBtsSqUVhL0er1Or9FbhDqVCZPjlEoHJBhxEPE0NfWVD59dfVTZIapsrWyraKi611hV8VtTbcuDJ01Vj8F/iDnWXRQ1Sh3pCZHB8gkTOqaFwY+Zx7lVggeNwqft99h196tv84QNZjAxp/FecnV5NpoB9XfYMrtg22vV5b7QjHgS6PO1skw9WqZTl1noo6gqHcNTFbIErSoF4EcgiszqLObeDxk07DWjh4E6aMDSwVhIE7kAx63GQrDlA34C6MNA55m12UAdJxSlQB/SqvcTqp/M+kyAbYzELpYH5EWr5phVl29hDuCU4LpU2pxttuWZ6HwjngeGQ4rWeCBXWFVTSf4UwBeDYr6BP5fmLTPJVlrEWwDbCGgE6GOZ2USabTbVUr16AeiXGhVzDJI5Bn68UbQaNDsp3gZQ7QEiHXT5QJQCXsaMu9OVk4psCjtq1BdYLcl6chuN72OGcFnOmxVHgc62qPJAlWlW/WA2pJvpn3SKXINqI4kXWegiTJ1IqFNRcZZakCNu32vQZEo6t0o7EzSiTFScIePulvF2EIpUQp4l4e9V8pNAfwhMZbQqkcay9fhJmeQcpjvN4pTyBMck8uNtHcktnH0ieTEzpk5wqqU9h81PFcqz1fhxdmdxB6+4vSOLI0gRSBgXJ5QcEsmL2zvT2th5UtnZ7jybWFYolBWwBTnt/AypsoCmD4HlEBgKbGSBXd3qvwGb653oIdemBpyPnnxqiu/pkAkXwiZcn+Z+Z47P5WXOl6L6XvHccX+Cum0CiMcDx4vZT2uJQNljUdFIaIqEJ6NMze60bATF7Lb5qtqXo9oOhRbkCrBZMJziYqBQdy0Mw0iSpChKo9F0dHTU1tY+ePCgqqqqpqamqqqqurq6qWvV1NS07Pve4jXONsXDEBhMhgfr47z5C+Y+q2p89uxZfX19VVXVs67F5XJfkrLfn24EMzMVmiENDPorBpI5o2nRpdplxP78Txtd/EL78+/wfzzTmA/mEhNVotXk64kisJQykwvUO63S+TbZArvZdWR+/9nNMFmzahoz/lE6H6QrNM3xgB0AY7GRLAZdwe9G5AOR/1yV16TKNKkyzeosiybbiubYsFzA8xgjC2lVBq3KsL/q79dUvl6dphHtVQkSUPE+rewAJtmvEiR0lwPLxXuU4r1gKwNrmYkq0lNlAkkOT/riRKs7cv7C42xhAV9W0iHIEoiy9FSZlS416nLAVGTBcixYTtesy/98u9Z716N8L8cFX4z99Gp4vxshH16P9rg80+/i7J5Xpg67OmnrAz9OYzi0hEGtJ9o0huBPZLbUhNFQM8fI6QVKX2N7gPZBLEgG11StBlpLa1RKZa0ZgCsykkYCx6VarRbHca1WS1GUwWDQarUSiYTNZtf8bVVXV1dWVlZUVNTU1DQ1NfFOH0Z9vdRTx5v8vcRT/fBJYzsy9zyrYb062KwMbFamJGnUX6J1v8NGY8z4xD9vBm3OC80uR/avPyl1xkuZGUsz63L0WD6mzCI0ORYyx4TtQ0XrnpNmky34O2zdkAaKRVbNLJtyjk22SN8Zb+CvAZSBjdYW/pG0P8IGVDFjzJjXfBuWa9Fkm9VZJlUmGEosWI5JkwVEvhXPJWUpOmmyUZ1pIXIoVepz2HBp4r+HTSbaiymSmHuHqdhiKKF0B3miLL6s2/DvL3D1wpewhQU8aXGnMFsozrbDZiFzwVj4X4Vt3OVwv8tT3a/FvfXb1P6/xQ2+PnPExWkDf47qfWH87spgnB0FLZOhNtjUHE5y/FSdQwnpOKidCW3DdMJJpGQYNPubasfX30rYdFjMUutsGGGVY3J1gwHMzMFO3ERRFEmSOp2OoiiapvV6PY7jSqVSKBQ2NTVVdq2KiopHjx5VVlY2NTUJqp/ypk7lxo2D0PHc6e6o78SWyktPqzivCjYzWC122ExmmjpPMzf4w1ZtmkGT+XKGZhleaN28z3OdpD95oVcm02gWheYRmlwSzaaxZFK+Vd256jls/96h/X2qOTrPKp9nkS5BWxcCutOGJYOh0KDN+7vW9h/cmhXPBaLg76YrZKjTFQJZZBfKoNEsC5FnL99RqnQjlk2jGaSSaQnQiPbah0Nikv1qYbcn32WivXo8G0xdvfZdIqMd/HSh4qXnPb6QqH/zIEdYwJUU8YQ5MmkeTZaBscymzwdDwX8VNt+fQwddDX37VvSIm7O8r8wZeSH2vSvhr18L/v7uWHZDGHDCLW3uknYP4EcCN8zWMA5aplDNb2L8sWTnZKicAE0Dah9uXJnTElUEK/JFXCVoJRiQNEm262kRjcJz2Oy86f+2dDodj8d79uzZ48ePKyoqKisr7fFkW307e8sWbuho8/TRzCHu2XNq+DX3H7S+OtgYqaguz0YbqbM0kWsjDtm0ac/1Zv/khZnIe6F193J7lfnP/zSq083aXBvFjHljpudjB2jZRoK/8h8CyO4d2h9gWwTKJSR/iaZ9BeiSgMyxEHlM+tcVPT73afY4yornmtFse1hl0+Yx3o8qAn0xGErsQqEGTSbzryKZIh4ja2g+yEyn6wod/xg3ouJ9f/z1j9dyUaJFzxzZtOjywXwYR0uYQ9P/HdiEBXxRrlJRaKQOgrEM9AVA5f1XYfM5G/Tmtcnv3ooJvPiZx6nIPucnjrzl9+39OJzrDVV+UDUJFQSo5eOhfRQ0+gF7GjyZCKpBeEcAVH8CDUOe3dj4Vbbct0QaWY6Hp0J8GiHUA6WUGiQcPSmTm1Dt3xbetQiC0Ov1NE2TJKnRaLhcbnV19ZMnT+z5G0PU41behbNS37Hq6Z8a3IdhScnPmhseP254VbBZmNqIjsnZTDqaOmkisphKN54BZOHLGVXIKP39abN/qH/+J/PtJwqBZjSmQZ9r1ewySr4xCpe+IHRULmYUCLoDTx0PqpUaVrxOtMGmTQNjiUGTyYgP/qNDs8NmwXJsJFMzsOry7bpqNJpl3/DVa5j9aDORx0CiLwJTGaN/bSm3c6WVHbAjZ+9x+yNd/3StlCQxZUB9kZkoANNhtbKAw80SyP/jno1pRuHnicT5mKa0q1HrIBiKbARzZ/nv5WwTzgcPuxrmfmW6z8+xb/zs5XpzyLpHvnTVIhCMgSZfQ0MoM+OgYxw0D4FmLyN3OnBGm1vmQseH0ORe++vqZXl6z0xjbAnE5ipD8hQRGbAyi27kYRQqBhuILFyNRmPP2XAcR7uWnTe1Wm0wGEiS5HK5z549q6ysrK2traura3jQxm6tUcSE8UIGUu4evCtXmx7WVzVXvyrYumb9E12eDTdRx43adMDKbWgmaPNfyrrzYFYdI032r2bRZL+U2bQFZrwQyFLQF9uwZINonYG/1Ca0i8ov/B0tO2b/HjblMpB/qWGvNGv202gGGMr06gyr7u8VkeeY2b92doF5poKPZXdFiVk0ypiVLABjKdAlFl2+mcgDfZGNKjTiOXLuTo1oLyFPIuRJuDTRDps9c/snzOy/oooMMB+xUcVWssRMlculeTxhHk/abU/jv4kMX+4/8Zn+Y6mkgMIPmZkW5HIwllixzP8qbKNuRnpfifM4H/vxpdBhd3y+qfBubAyG1mhoHGPk+tC8QGjwh3ofYPsbO7wVTeOtSm/iqb+5KqapetnqXLNnFhl90LQ8FSL382bmwfRim+9W6bIMulkHQm2jkQS1Wq3VavV6PUVROI5rNBoMw3Q6HY7jer3eYDCgKMrj8Zqbm2tra6urqxur2h5yamTbv5VN/Eg9d07Vszr2b81PeA9eMWwWAKPGpD9s0qbaYbOiOS9lZjT7hfb8y/pPF39PhP6YFP276xILWmDFCoHINyn24JyVes58EM//Bw9mx0y1hDmx1p1nUy438JbphOsseLoRz6OxfBOWB7o8e/nRTpoVz33ucil1hl6TaUCzjHiOmcizkgU2qhD0RUZdHhhLbHQxiWYS6nSDNkePZ6PyZDF7m0qQQMiTSCUzY1wj2vu8JvlC2HRoHpi6ZDQY3cMSiShbLCtl5vB00/nxyh7nF7A5WTJpoYE4YqHKu2ArtaAZ/1XYhj+I87oy/aOfw/pcC1j+OFJdtwBY0Zh4FDSGyFpGylifAMsH2NN07Bhl8wRL3UBD56fAH1Zzc9MX2Ty/MgkLf5UAACAASURBVGF0IcQnwTephnnZhjkphgVZML0IJiS2zMnjNnIB5GK1Wq3T6Uwmk9Fo1Ol0KIpiGEYQhNVq1Wq1arWa7Fpisbiuru7hw4f1Da1n6++Kz+QaJ4yU7tl2p6WD86D9Fu/KK4TNZuvybCaViTxkhw00WTYs96Xs+bfzny66q3+81JszBXd9uQ0vZmDDc2jZToy1zMCZDfI/yBE/d2v/B2xfaFlLzKodJjzTpCvWSNOBqfszsP0raWY0+/essstxWckCe15q0uZiihR79RWVJ6PyZD2ebYdN2P69fa74H2Ej5EkvJI2RjMILgC5nNGtMh0m0UMTPkinL2fz/eOmfyy9gsTMV0iIjecxGdgXnpjKLOv0/Att7t6cOuR454nLokKuBH9+c/OntSI/rsX6X4sbemuVwJeSNi34HbgZTdcHA9wbuOH3TWKh/T8sKwDhR0DgJ6nyB7U/LPrBxA0D46Z1fkr7OUcSkwcwMmJcMM1LwiHzu9HT9nByYnmqbmQ4zM8zBu7lLDqFnNAA0WynGcQMQeqNRLQJUp1FSMhNt93gGg8FkMun1epVKxeVyW1tb6x89edT6hPvrNf5bwdXXf2x9cvNpy5Pmrt21V7TPpmX2tQ1g1j0yURlAZzA9BFjB842m/88LCsuyGoqMeA6lZt7ZQuQxe1N/SJD+5PuDvtyCFgCeA4p9OOsronOJVb3U/G+0vzWLmHH8qnir8nOLIt6iiDfLF5kVC3DOl7RwM6jTQFsCWKkRzaewDApPJtTphDqdRDP1eDZN5JrIfDNVYNEXmrS5LzSzNhcs5VZdfpdwYSHQJaQyTS3sthCCSfaj4n2EPMmuFKXg7VLydxNypkMAjEU2Y5lBV6xQMxWLDlFBh/g/XvrnivI6eelaTSHTWkCVMC2mdDmhyvnjx/HK2rXeuB3m/Uts+KXYEZdD3/wl6KNfwsZfifO4OuONn6ePvhS08ZFfY3socILNDe5EwzgLxxdvm2RpHQ1tgcCfYhN6m1geULcYxB/evvXN3kPnpqYrQ7LMs3LoRamWual0XK5mZpZ+Xj7Mzoa5ObCwEGKSVeGJHYsPqe9WY0YALa4yYBawgEjSrkYFuEaPokztxF4ssW92i8ViLpfbVlHzoLWq88k9+aTllQ8u1j65/aDucXPFK8vZ6K5B/2AAk+4uA5shE8hiC/Z7WPXHP/1fu6awLIueSWb0mkz7ZIu/BhvTx0wUAZZpkWzXsVdSgi6K1H/wbP8UN/4jbGb5ErOc6dIiOr8xircxsGFFZnURpcwmlMla9QEzVfBCeyFpJm0uAxtdYu9ssh9txqVJ/ydsTMeWKhWXJip4u1SCBFLJtFCCschKl+qJErmKOTH9X4ONJ8gk0KLfYdOXguGgTp37x0/5lcE26Eqw39WYyddmjLw+9aNLkcPORX96IeatX6IHnAzZ9zhazQ0G7jhj23i6LcjYFkw1+6hYAVAXCZxBBqm3RTIZ2rzMT2a1P5m/qqA2NlPok4VPLkJnF2Dx6ZYFqTAj2zQ9E/ssRz8jg45Npmekm2bnGqemKibvbvs8V/OQA2CmDSqNTm/FrTqFmgNaTKvVEgRhbyshSVKr1Wo0GpVKJW3lV7CaWmorVOvSHzXcral/eq+6ovY+49peiWczgY5pXzaYTOQNpm2fygJdkRnN/uMf/f/nWo9nm8h8I55jQLPsNT2TJusvvKERzWWKfliKnvcd1bnCIllmVS5hZDT+ibG//dqlMrPYqlrEPI1xa0tMMsaU7at0/O+tSgY20JZYiWKbPt9mzGMK912DpaxkgUWXb9LmGpm2xpzuwuDn22tMsUSXr1dnqIX7ukSxu+3hRsX7cGmiPbxU8ndrRHsNmnSm4E6XWAxlJF4klefzhDkcYf5/wbN1bWfnkHgJczqbKgGqxEqWkJp/uMm+Mtj8zgR9cjXk/V9jRt/8bOLFWcPPRrxzIfjNayHfPvBtb4xiJvY0jcBaRgAvBHgxVLMfVIfY2IM17YEYZzBwBkF1fMUTr9X5jVPTICwHQkvouDJ8QZ5+cRrMToPYHGNsmnJGpvazbFPMATIsAZ2dY4k/CDOziEl75IsOCCvZYLDpcVpEGS0aFQ4msa5rEV3Lfm0Hj5brmoXChrYmcfmFu22V9Z2tj+vqK+88eXWwUYzUrxGzUJfMZCpQeaAtsaAZf4GHF77EoM0x6vL++MV9vm31wud39yCtSmM0CtV7tJyVRv4ykC+1KbqUZf5G1z9RZ1MxIk9W1SKLciETQMrjTdJlJskXuPB7RtRKmwtUKejLGZF4SynAQTORZ3di9n9ql/gos03fXZXVQuRRqnRSmWanEZMcUPASuuTnXwybvViCSfbb8zclfzcuTfy9099QbNaXEmiRSJLbyc9hBstJuj0a86oKJJ3CbKk8nxkUaTzISB+TBSZtPoX+Z2CbeDG4742gvjcjJ16cMe5cdK9LPp/c9ll5N0oqHmur8YSnwTQ7Qi/wh5YJ0OwFgnCo96HbvfCOodA4HCpnNNeN3VRMj05rn5kGc/JgXjExP4dekArz0mBmjjWmUD8tA52RqV1UAvMLIDpRNz3NuKAQpqXpZ+dZA3/AFmQpajCgwSDndpr1FhWl0el0BEHYN+HsLs5gMBiNRpPGINMSXKWc+7D6VkNlDauttqm19lHNq4ONZmAziS3UT0xLJFEA2lIzmtzdl/5lH6eJXIM25/dgDM8x4UxWwOxfaf/hc/0/fzWp04BKt8g36zhLzKIloIxnlEfV3VYdrcrPGZ+mnG/XTzNJPzeKvzCKvgYyB4xFzAlrY7lNV2REc2ks20Rk69UZBk0mjWYZsWyzNtdC5DH7AWS3uatZm0sq0/TqDHvnrka0XyXY+3/CZq9MouJ99oqljbR71FIjWYKp8gWi7A5eLkdQxJWWvyqounufDkGGUlNo0pcxsNFFZm020wD0jx/KK/Ns/4+9946S677uPOef3T179uxf6+MzY/t4NNZ4hpIVbAWKpiSLkiiKFEEQuXNCgyAJkgCInEM3OofqUKETAknZ4yTbks21LVva0ViyIhNEhO6KL9TLOee75/deowRCXSCaauhoxujzY/Wr19WN7uL7vHt/N3zvb3/rkV//x4fv+6vHH/jjR//9Xzzwf3z7vq4f/WHhtW1Q/k346UfNtx6TC5uC0kNw5YPw9keg+BnAPuG+/WV4+wPw2sYrP/nc8/P2A2n6iyOwpd9uTTFtKaahP9jUB5tTsCFrrUs7W6bcJ0a0zRPe1qlg3ZDx5Ki9ZSJ6fMDsmkJ27xM95FNz1nevgu3obqAyJtzIdaPPmqbV6ks0RjEcXwtCAiO/+/prP/rxG5ffunr1rWtrBVsQ+RAF4C8G1oVQGwRlDuT5QOx/16v/Dl/g6tOmnPLUqUBPO1LKUyZBS78HNxW00YA/bRO7nEorUC3ANKJ0ttR1i0GrPQ25zgQ2n9vmMY0e1eUSz7r4bpS/NlHFRqK0YXAjJj+aYJb8erUXoDSaN79cdpwUH9/0mDR9hXFG2+RH5Wo/ahWtorLjFVdi2ZIaLonsFfCzJj8MTg6ZVnvB0eZEJl0qp5aKEygU+UuBTVLnQhd1G4CTc+Vxgx913hm4WjPY3vetr3z0b5/46NfW/cevff6//sOnnvneAz9+8yG49ii8fl9Y+KRR+Zx79Y9Qz3XhM+HS/dobv+eQH4ZrD8C/Pv/mTx459jL9qQnjs0PwVCpc3282jDNN48KGfnhiBDbOop3bxr5wcypcP+w8MWw+Pqh9ZUDdlHIb0rB5wt866G+YMDbOwMf28k9n7B8xUBYV2wZZlpNkd+JJJvXKsiyLvGDqhuv6vG5SeeLy919768evvfHTNav698MAIhf8twIrG8O2ANL5UDh3hyy968s8I62LY546FcbKFgg2I/setm3gpHTsRaXQEdFtwDZG1S2IK7m7RtctByHXGbCt8bDCLWhKW7XTJZ5zsBcVdtwSp+IM24QVK22gUIeZrf0hqG5LzyxXz5i5epn9xACiK9We0RiksmqL47eBTaX7BfysgJ9NyiaXN2z+HBrebS9YygxPpYul8cX8xFJlpkxdqmeR1up8HhvRzAUIL6E/wc050qjKDrg38o3Ju7FmsD3wN+se+tqG3/r6Y//u259b//1Hyj/YAm88Ctc/HLy9kbj6+/z134BrH4DrD9mLX6xe/aT21get6x+E4odKr285/FL+45P850ecziH/2QH3y2OwKWtvzXrrxuHxrL/pEt4wQW/aB+uHwoZpFIfclEImbmPK2jzhPTlqbZ4WtwwEzSPQMgcfO8ZsHGB/sASgXU6y24lZ0zRNlmVBEDiO001N4TiVF2XXAdHB37jyxr9+/zs/+t6aWbYggsiG4CeBPR1q/SCfj2HrqV18v+BBApuvTUdm1hLGEGxm7r3AFkyLhV3SYhMIncA1BPiTiC5l5y2M1Z4GTFfAtvrcNp+rwfa8UzlgyRlXy6Hpvtq0LY/ZIiq5RKm2G501ST2kJ6ZcYdwV6lbSOFIKlUTCJXBmVXrQEsYCbfpdYUv6bkSiRyR6UP1KMF+DjatOF4qp60upXxpsunUeopfAnwU3Z4sjCtPvGT+rpInU6dXDFoII8JZ25df+4lO//4373/+dTb/1rc0PLnzyQ9/8xP/z9S/++7/e0P3tx15/+2OA/S6UPuJd+xz8+D+rS/dxpU/A5fvhx5/x3vyKnn+/f/V3oXjfd7599Lns0sM9sK4P2ib8prT22LSxcdxZ1Xp8wN6cgidHws0p2DzhPXS60LIg/QkDEOR5SsQ50CzTEUohy9mGT1iKruuWZXme5/t+Ul9CkmSxWPz2t7/94x//+Ec/+tEPf/jDn/zkJyRJIkFkb/Wt2iGEumoZLwXOcZAvBlzal45HYqaW4b3Dg+UWlVpXWO3Amze4EcRYcD7pAkZBP2e2HsOgzIKKsESdpt6cI08Z7ATYLwfEUyH5VEh2R1QnMO0IKq4JuHdWkNwcLNGeipgGoDcB3xhR7dXLzWCmfC1X79+td74GYfKC2rshV/vRX+TMytV+kTinMUPob4wuxsPpBySyL45MIt8yWTGH/ZYwplADxOIxiewDMxsn62ZCb57mUovYaIWdK1ZnrhYnitiqJ4bWs3hFLFcmZrEq0gXCqjNFLL1YGr+aH7GUCVQA7S3LabnyhCembnHvVw2bA2HoAYld/rW//Ox/evUPf/tvn3jfP2x58OuP/frfPvp7f/Xgrm99+luLj2jEQ96Vj9hv/l6w9KCT/0PkPV77SFT+kL74sHH500ghC/+d//6tI6N//qcb0/hnBmHdUNQ6pjeOa4+N2qsibeO4s3UqbEzDhtEA5QMm/S/304/0lzpf0r932VDdIAgMQ7AdLaDZfAV/O/Qg2bzZ8YdhGJIkMQxDkuRbb731+uuvf+973/vhD3/4xhtvEAQBAEGAJFdX9xGCr7G2dsG3ToG0EHBpTzoVStOotn2ldUuBSO3pirVa6KQ6pTFDJj8aGZlAm7bFcRQjqR94AFQjkvGUSUeb8s2Mq0x64iRocwlpYbXrHbDxdUP/IHciGultILaZpWat/GyoDAf6TD2o6p2vB5vGDKGQvTYt4L081qNQA8nfCGbWFseTeIlE9qn0oEIh9pJNncmPKtQAXTyFUuHOLNo9ejOBO0exE4vYeJmZLZC5a6XJIpauB89qz98CWwnPLJVT14tjP4PNnUtiPGsAW4TEAiK88Ob/9jcP/c6rX/jYn29+/981/Oa3Hvm1v1j/4r98cSn/SaTSk/+0vviweu1B+6e/axQehZ8+CFfuE4tf0Mj3w+J/hh/sqL7Ztnu2uCVX/XRa+vSU/mRKbRtTm0btJ0bD1cL2xIiyacJG+bchZBW3TNlfGeI+e2LxqRnj1dd0NBrD9klaIRTadnlQkGVLPpJYpSzLkiSJokjT9LVr15K2tzfffLNcLochUqVb9Ufoh2bJMc4Hdg+oc6GYDZVBVH8YRw5//jEpw/35x3r5KFShayB4kuCejcRtULi87sUtpUHJRHrs5kkpJJqgTXrccEh2L5NGdyxbNr4Z+BslyDfbtOS4Vo7Md4vXm0A86QiDa2jZ7DhHb/KjbPnMjThkv84OJx1uSfRFIvvY8hmROKezwyJxTq6iF0hkH1c5ayPFkQUUg3FnHWO2ykwuYuNFKldA2nLTaw5bhZzBqrMVVJiSKWCTS+WUo00hyxbXUie9eb40ESrv+P+yassGnuU54Q+pN//d17/w4W98+aGvNf/HVzf+769+rPObj35r8VGgHoArH4DX7/fz66LKQ9G198GbD0TXPia8vV7Mvx9Kvw5XHn/rjQ8dXOAfH4KHJ+ChnPNYVtk2YbSN+Y2Twcasv1rYvtzHrB9Vt0y560fMR/vkrVNB6yw8MWx8+jTXPSZ/80eR4VmyRcmaH7jgqJhhGMkWThRFSZIURTEMw7IsTdMoinrrrbdee+21n/zkJ4VCIXoP2lpIoNUA9w3PnAN7EDVrKfPoXm4jK7TiQjfjlVY92JK9jStPoMvLyvnqlMmP3hyQuJU6cTqS02DPB3pWZwcjbRyMURM/GlY7IqoTjcVAPmQbaqLhWm8HWxKulHc6RLdc2AnWiCMM+8o79iS3/tPvDHwnX61n2RInUKUH46qRfpUelMg+HuvhMaQ4klzEjpSSq/2JfeMqZxPfkqucFfBe5HPGLlxooXQ2SU0tYZN5Ilsgc3k8XcTrjnparWUroZrmmTKB9H/KRBYpSRLTJWLa1adDO4d+z/h/iiPd6kO+tz2bxULwXeHt/+tvHr3vG1/4rW888r5vPrTu//39t5c+w1x/EK59Gq59Dq58Hq48CPmPA/ZBeOM+88rDWv5TcP334PJj+fxvHnlZ+uiosGkENk/A5mlza0pvGAq2DcPmdLDhgr5a2DZPWpsmzOaZcMuU+/BZ/olhsyWHEgbrht3HB6B9Wv3a66IPYaTbVIXTAzeBTZIkQRBEUVRVNamfTIQVKIq6cuXKD3/4w3w+v2qblnxDKATWN2112teGQE+F0qwvz0fW5J0LIiSvRJG9lRZXOWvyo8lOJtCmEyt3mz0bkvpQ0mCjJJjFDoEyBOpZo/x8RLehOCTTDkzrMmy3Lzimt/lkI2h75MIOhz6ONmwS6h+5E8Bufk1d2Nw5R0op1IBKD+rssM4OK9QAVzmbUCdX+x0phRxFd84Wx3msJ4GNx3qowkmJ7EO7tXjvGpjnFT6HE9NL2PQiFteOVHNrDluCaJnIVsgcRmVxOuebGaSl68yizqD4VhjIk6C/I6+4asumgVOF6Fr1+vv+at1v/939/+erv7f+Xz71xg8ehuJ9sHi/cvVL1pVHYfHzaEBh/g/Cax9BEnRX7odrH4e3u7ClD+z7Knv/tP7Z4ahtwm9PmS0jcsOAueFcsG4gfHzCXpcVVwvbtulo/Yi5edLZOu2sG1aTeuV1g17rKMq/fXZE7khrr/6r5zhWBA5jQM2y1foDLMtyXVcQhCAITNPEcTxxI98jbHbJVl9RuEGTH/LkfovLWtwl1xjVuZEVVz3hkNDIrLhQ2spF8ywTTxIsJChwGzdyGTZzAYw5Xx6LxN6IPWCVtv9MYgSFRhKzdttWGmqzRzQBv1sovAD6WKhMROpkKK26UqwubHHEX66imEdyN0msXOIxsuUzEtmXWHVUex2buKRSmSqc1Jih5eZue8bTLgp0FsPTS1j6amk6T2QrdA7JQq5Zi81MEUPjs+OgSwarzpDsLMXPB1YWwRZ3iCcdsQg242cpkPdi2QIIzQiuMoX/++uf/+jf/0Hrtz/1jctfhOtfhLc/CEsPGosPaW8/AIsfB+xTUHhQeuN+lbgPrnwRXmu6fuW/9Lyi/OGE+8CQ1jIEjdNq47i2bcjYMGQ8Pmo8Nm4+MWpuGjRXC9uTw9ETQ+6GMXtjytgwrm+d9rZNwfphr2HEXzcqPTbhfeGM2zRA/91lywRQNdROektxia7rSVu367q2bSuKgmEYRVFRFL2XAImz5BozOj+IGpbVPlectYU/993R0M6tuMCdXXGt+GLkqPgLEF1EK76DJi6owY3cbD1uPo6NTybUZlGfqJn22eNm+SkPb0eCx8srhg2ZtQ6UBvj53VpyJp7lq5Z2atUTCHUZla1A/b3izb/Dzcf1YHPlCbZ8RsB7bXFcY4Yksk+hBkTiXHJQ8ypF4hzyKuO/PTIyGoPE/Zd9SGcWvHlXvcTg6XIlncdyV4pTeSKLs0j0am1hK1TS+TLaCmLVmSo3x4jnYx8SlYOiFEicb0SCK+Y7orWrtmxo9K0P3zFL/+7vPvnE3//B5R80QLkByh+FwlfU1z9hvHEfVD4MlY84lz8gv/mAU9xgLH0O8N/E3r7/+Cvfv3+0/EfnouYe6OgXH89Y61LeE6Phuknr8VnpiZy0dcRpOQmrhW3TGDRnoDkHG8b1x4eEjSlj23S0OQVbs1zjaPDk2eDLA+aXxu1tY8yf/lMeoJC0tyWPN1OnqmrCoeu6sizzPO/7vuOsehgihHnwZ1x1FIkOuMNgXor0VwGQQ7/iMqTxFZfCDa+4ki2KwY0kN37kPsXdKDdf0DcfI9iUnCdnkdy/O+PTh9XFlohsBbYBLRTub4p3a22ItPqwRfgG4LuJy62eNAj2QqDOICUsY3U1Ykh35Eb+Lfkla6F/jRnCrx9ly2csYSwJhCRbMuWmWH/tDApd2jMQnE88T1RRDZfQbSg478iXaGw6ge3tAtq2EdzcGsJWJmaLWC5fnk5gw6lZWljg5IvIrLkINk+dSvSPEWzWO6K1q4cNBA3g/6MLPX/yQLH8H9w3H4Rrz1iFD8P3H4ouf9Jc+q9u8Tfg2vvgp59xlj4k5z8DS//pB99uezHz0y+fgnX90DJhbZmChzPKaqFa7evXDTrrh52N4+6To9Yj5/jHBoSdX4WBfwUIOQLXCgwYkRVZGIisZ0cSIOEgTdOSvZwsy5Zl3T5A4usAEUTg+OC6EdIcQYIIkXXzqJqkzijp5E8Sr3f+uGKNEhKWwvr4yjmlOiTi/Vy511eQrI0jTiJ9uLhuC9kcHYkCuNqMJWdAvxDLpE6C2BMyL3pEt13cYuSfqGvB6lk2sVPHWoTiTpM57asTroSke0BbPWx6xhVQcxCYWVMYc5VJFD/Upur9vfXOM8WzAtbnqWlw0Lc7xiT4M5F315tECfJCoTyTx+Yr1IUKnisVxwRqAuwLvpqKjCmw0oE2aQmoZi25D7ryeG2tGjYfPMsHUv7+t358P8d8nPvxZyIkkvVhuPKge/XBIP8RKH4guPaQsPSAf/0rgL/vx/99Z/bPvtacW/rCmPbkMLRN2o0Z5tHUqi3YamFbP+xsmYgaM7Bl0n9yLPEwreYZ/x9+aMs+EhZXeM0yXN2qckLJNsJa4CQRNbFt+/awBUYCm+eDl8AG4PuBcLdhSyybxgwldfEobODOecqkLUwFag71zqkZi0+Z/Gi8u5tHevfKiEkekfPPyEttVrkFRUSk+u5iHdhCutMmdhrVfa7Qj8KqKkrTvxc3Us+gmLieRmX+wlgsPTKri2P1oKp3niv3ClifLU0iMX0j7dvZyMt51vTauYsrc0tUF4qV2Tw2W66er+C5SnlMYqbAvgDeLPhz4KGZNZYwprPDFp/ylXekfFYNmwqxlL35qkx81CA+zb35ufDtD8HbH3CLfxAsfcxb/Jh9pSksPgiFD0VvNqqXv3ho4bW2rPiFHP1QjtyYCjom7KYpYd34XYdtw5izbTqK6ye9rdNeY9ZfNyx/+mipI+v/+feRxwi2x0oGZfGWw4eclMCmKEqiquA4zu1hC80abIG/bNYUx87Xgy2xb3f+WO8iY0qnJbLP5EdVepAtn0liA5GR0YW0yactEal9gDoByjjIQyD2W/Reg3peI3YaWKeFtwRUHAsR61b317N4ZrHLp14E6VykpAI1gwqyjDSoq+7TSwJ0vjqFVDTjO0XkzPBVJL26qiXi/XzlnMGPI20fezZy50N3xlDWcG+2Mmw4OY/cSGy2RM5hZI4kJlUeCTGAPQf2XGjkbGlSZUZkakhlRkwhdXMAbNWw2QDgAlj/5JYfsi7/Dlz/FBQ+Hr71X4Kl98O1D+pvNtL5T0Hpw/DGpvLr7zv41Tef6INHpozPZ/VHJ+0tk2TzmLVlHJ6YWXUgZLWWbfOEt3HcWT9iPjlqbUv7zTOwacL+Ui/3RwPWtn7uT/9ZlWxDcVhOsi09ciS8tn9L+nFc1719NDJyE9hCL4IQDbvxAw/T1O/dbdjo4gm5es4WR3V2kKucFvCzsaZVVhczGj9pcuOBMg76GCh9IX3YLD0vFjdpeIPHtqERamoXmjjDNQZUXHZcx4ityJt8dTuwx+Je2Czq8rbmwMpGyqr79JIyNFeeQEVnsRSCb2aq5dOrIi1+cT+P9ejcWGTOIJFG/6JvzUns2N22bBiB8mxLlWwBn8HIHMtkLGUGjdryL4F3EQ1ks1D0H20j3TlUgGblamvVsCHSInCdgov3hK//Nlz5XVj8vLz0UXj7Pv/yw971B6D4Ibj6KH/1Pwyf535/gt44CBsn9Y2T+uYRb8uwtGkoXD8Bj1/gVgvPal+/Le2vH9XXDaubJ52GdLR1Ktgy6W+bDr8y7j8+Ag0paeafS4JpREbAkZpomQlsSWTStm3/XWeOxru0CCAIY7sGlme9JXB/XQ+21V9MK9/p2fKpRAtAYwYE/GwihgN21hJRFxnoqUDqtakDRvkZG38qIHeGYlMoNCYLhCY0d1dohttojdQhcG1hQ2LM/GgiX2dI42Tp1Orfn34B7zWQbvkcao72Lrr6PEfWHTC/VhDGsGWXKtnFyjRezcrSfFzAMBfZC76Zs9VpS5mw1ZRrTHhmyrcmbG28tlYPmw1OpCkRgHkFStvgJx/23/ySwnwWLj+sXPsMFD4Ml7dIS7/54p9jn8zaj5+D9rTRNg6t4/K2EfbJc7BuEL6SZtdl77pl25Z2fJ73KgAAIABJREFUN4zrcb4bmrKwYQy152ye8FunUTPBA8PSlhH5v33TUBUzAp81Iel5Mwwj6TF996B/PLoNwZbERkCx9X+hidm7DZtInNWYfpXuU+k+hTrHVU5JZA/qB7fGIq3f5o5o2HNKabtWbnfItpDrBLUdzbaWWhBpfOMyb2jUdcuq1pq5kXE0MinpBGfW16b5ah+N1ZUTrwdh0l/jyBOxPbkQWBcsZY4l7robWYmrRpaw9LXSBEFlDONC5F4Aa9ZQUhKHZncRlaMkdoTEDuGV/eXibhI7VFurh811rSCwAaLQBfUfvMVnrOtfcKsPQP4TcPUr8MY26q3fHn+J+lTW+OS49nQfbM3x28Zgy4i2fox7bBQeTdlPpKiNg6uugVytZds0oW9MaZsmzK3TqN9047j7+ID5WJ++bdJ+ZIR6bDp6bBiaBrU/+RdZ8sGyA1VVawMDfN+//YYNeZg3YAt9pIEMEW8q/0CU++82bBrTrzH9An5GInsMblDAz/DY6UCbAOmIS+1Wy91qucOmOwOhy+NbbaYhJBojugXl0OQuUDpAbA2ZBo/avCrS0ACNtQqQaOlAnkxqzSA4r7HDeOGEQNVtEq0HG1s+JRI9yDaGL4fWBVtFA7dYvO7M67WybMmE0cXK1NViiqAyjvMyBJeQ7qU5qUnDHH2KJo+y9BGOPUhV9+D4LpY5UFurhk0H10chb9B00/fA0v4s4B8Jr33QWvws5H9D+cn9R776/U9MYo+dibp7oHGcengKvjQhfnkYHhmDL81ij2WZDf2w7aS1WnhW+/r1Y9KTY8q6YfnRfvGJYWPrVLhxzH+kR/vC8OXmTNiZhY3T8MUR2DAgvPJqHqCYwJZUkwRB8O6wIcLQbm0ZtpAzpL/BCqfuNmymMKCx59jKcZE8bUtoxjRbOe6po+xbm5V8i0/vAPGpUOryhRabb3DEBrvQ4JWbodoGXCdCjm+N2MaA3rZa2GCtQv9xfgLB5s1DdFEgzhWuHlK44XpQ1TtPFY5JZC/KtsFXA/O8Ic2p3CxH3PVoZA22K4Vxks563ssQvRyZWVMbkfgepnqMoQ5L4lFVPaoohwRhL8/vr61VwxbFH+GNj+DGh68fKhcyX//H756bkXYOQdtw2DXDP/3VYsuM+Su1tg6SO2fNp2bUpjGiYaTUnCru/qo0/t3bR0NW+GoUQARiALrrQYi63l4DN6dWz1bzxxIlQ7p4ItF+qk1gWfG6UclzKy62dFCoHBPJ00jmnhmRmTGJTvHVMZ0YMaqDdrXXJY/b+B6rtMO43qxe3bxcclVTVq0drNJdrAuh2glcs1Hawl3bYmDPgjoA6pRNT4CXC80pVx311RRYWXDmQEe9DvWS12BmVRoN0EmqHJMakbjMf+U9apKZrEVxa++hUO5FGgpoJMAChC9p4my5MFYp3XXYFguZCj5bKE7iWMo2L0XeRd+ageiC5wzhlRex8m5BOEZzB2nuoKAe5eTDDH+ktt4jbFEUJbjdYC0Az4YwdAEUAA6AjR8FCKIITab+1VmOHSYeoOd5EXhhZAFYAMYKPN32VIR+jBqAEaIZGhGE3w2stMWhCGEyAiIZa1QbB1G7Sm45WJE0lTynUOcksif2ElHLCSp1p4Z1ZlQjz6r4SbVySCu9YJR2OlhXQLYDdaNsv8ZY7WCtYGOTQpN2n+408B0qvsfhzoI+AU4uMqY9JeUpqUhF1YCxIvJcPdgSYR+UA7RyBjciEucUauAOYbv5rZOwvmXY/HnwL0kCyi//EmBbKmYr+GyxNEUSk7Z5IfIuBvYsBAu22U9g+/DKHp4/msDGK0dY6VCNNIY/8t5hu4U3zwY/ABdUF7AAigAUeBoYPrjhr9by0ZhCFFONh4OicbyW4+qrnueLHEjQI0BaWpEvuOartjrpqymdHUyEMTRmoGbTbjMIoi5s7LhCo64tsXJGLJ9SKqcM/JRFnJTLu6XyLrm8Uy9vt4n2kG4DoR2Nuq7RdcvBWsGGRIFaQekG7WmX7uILbSr+HOhnkgqsWOFr2pemAiT0nwF7th5sydQ1VLAbqx4k/TK3EWOt2bTamKhlR706FOlxeN1b8O0FgcuUixOl0po1idbb4+XLmQqeK1emaCptmxdC7zwamOzmdLWnShyoEvsS2Bj+ECcf/kVhS273iTNZ4y0MwwhkHzQnMhzPDW0AE9BAahV9/pVaRmzFbn6UwCZN8bZmbIUv+hD4oRODa4B/RZf/2JDGIwuNtE4EQ5PhtGwZ7eJ+fsJY7SZdDzaeHJYpVABpUL02edIqHzSKL+iLz4j5FqXcZhJtHtMe8e0olC9uA3HLXYdN2I5g41pQsk7Z7jHtBtFh4NvNal8gjMVjPXKBPO2Jk8i+mZl6sC1X6DtostSyxV7uYVvZjUxgq71dtS2xxU+GRg68hdBZMPRZhk6XK1O/BNhQpzaewfA0x2ZtayGBLbDSAnecoQ4z1EGOO0JzBxn+ECMeROsXcSNr192tvLmO70DgohV6SM0N/RepEfKxfoXWDacxwU2Pbwl65Au1v+sODwKwvMRIAgX+P+tiThfHwE6DmU701SxhRMDPMqWTCtV3m0EQ9WCTiCGV7NerPTZ1yiUOuJVdVqHLWmoziSanimRSI6E1Tpo1ALc5ZJ6867DxXcB3RGwjyh9o7aB3e3Qrd329XHzRoU+DmopFfhBvrjzuKeP1YDO4EZTkNbMaM5T0iSbV/TWcbnOQkJbMavOUnG/MRu55z56TxGmiOlXGM8XyymUf9czUezhfJnIlLE1WM7I8G8M2HzgZR09R5EGePcazR1j2cAIbxe+nhQNrAxuKft/0gbyyOL0bge+CY4KmAi8BHblI2e1XZ4ETmzY79iTNuPTMjY/vELIbL/NBRXlvG8B/G/yvOtqUKU86egqsjMkPa8yASvfz2JlEqfc9wGZXey3ipFk5aJR2G6WddqXTw1sjsgXk7SB2RmxzQDf61NaA2RpxDQiAW7zH2tM1ciNdognETuSv8jFvyHFtM0pb1HKXU90D4lnEm4YKJl153FFG6sGG2mFiXbDEgVTpQeQqI42Dd1k3k6bS/ZF9PjDnI/e8bc3RdKqCpyp4rlC+66OhkBQCNkUxGU1bsK250JsN3YwhD1VKe0T+hCyeYJhDyKzxh0j2RYrfv2aw3cxb4jWGkeCFjBtKHjhufCU74P1KrQAcOzB9cANUQGwHaKfp24F1A6I7/eyCiBQidQjM74TOBDgTrp5RxaFQnwIzbfLDXOV0IrQmV8+9BzfSrxx0y3vt0i6rtMMqt7kEogsZFnF73AjTFtEtIdUcMmjKLggddxs2h9iGJJPFVlSAwjYgRVeuE9gdPtvk0og3hz7t86OoZUafCgwkHXvzbJ1aK02i6pMI+NjiuM4OJ42ht4Gt5jomNi15BP8V35oP3QuWOUsQI8VKqkLO5Et3fVoNTs0WK5MMlzPN87Y1G7gzoZtRhf784i5FOq3Kp2g69iH5QwSzt8rtW0vYarx5UVy4FMS7GC9+9OMgBFII/pVa4LsobL+8QmSQNXnVfWsuCFEAoQau8veRMwjBpG/mBKYPKer4c7Y4Ws0f47EzKt1/++F99dxI6+pT9tIOv7wjILaHdHtAN7rMFofeCNVWoNuB6wKxG4QdIHQD1x0xXXcbtohtdYgtbnVTXO0ViyjT20F6AfQGNDiq1CkXXzSrfagVwM6CWz/0H17wlEmqcJKrnE0ik3TxVKyWtbJlq5GWbH0T0tBoqPCPffN86F4wjbkyPpIvjWHV2V8GbHSuWEmxfM62L9Zgk7lzi9eeUeUzmnKaog4klg2n96w9bHdqC/4nfV1cKXLT7x5GURCB54cQhLJv/mOkZkAZRZ1d+iySmK/2o5C0PZMI+ia9jzzWI5BnxWqPwvQp/IDCDYpsP0f1MmgQ+4RKjenUoFE9Y+AH9NKz8mKHdLW+fuMq3UKP6wr5bkSmtAOkbhC6IqYd1f4rrSC3gNQMIqrhisdltHlUx8/ybDVH9PbaJGwn8J0B3SiXNimldpc9Bsp0JJ4HM+dLU2iSsHsRrDk0a4Y+YwpoolrNQN0MUj3LplX7DBrN+BWJc2ylVyD6LTmNiiGNCQjnQ/dSlU5fz48Xy1mCmCcqd32cb7GSWioMBfYrYJ0PtSzqYYuy5fxejjuy4lpjy3bThfi/4mEd2IIIwoAJjFdj2MaXYdOQdDbqGoz79pOuM4nsS7JJSC4K7+XxXoE4J1D9CjesCaMq2a/gZ+XKUaW0Ty89a1V2BsSOiNr+s4t+lXTd+o0CGojhMy0BXfM5O0FCoUU0toZtRs4hhwZBhVxHxL+zzy3h7fawCd3AtvlUg1NttKpdFr3P5XoDcQLMRJc2DcZ8oKKUmiUMgzVZI02lf1baVo80NKQmhi12EPo47JxUHUSwOecjcwK8ec86T1LTi4VUsZzF8blfAmyF8jiOpTzzJQSbno6s6cBO4eUDK5LGcT/LaL+XPNv/ijzd9m+qAxsgsdpF3/jLUImbx7RMqM24Wi6ZKZHMbUk6/AW8F+mKEkMiPshXzvGVc0kUTmcH0SC/0j65uEct7jJKO10s1ifmtyMT9AsyVvt2JHLcENJbA2prSMXTMwQEm1HuMCudNtHpkB0e1RGwiDSUS2DiGfbJt9eMG9da9/cRn4roloBuBKk9ErYb1R06ucfjjoOaipR4uLGSc/lpg4274OBSDbbErN0Gs+RLWrVPpxCWSCmZHFCZEUfNov4xMx05c4Y2T5DpxeJkoZLFiDkMu+uWrVQZE/kZR1sA+wJSN7MmNamXolY2a/dguy1aP//FerAFVOD8wNNfQWVKWgr0TKihgaCBNo20vmPlel+dSsQPkV5NZVDGhpJiK53s0/AzcuW4WDosL3ZoxU4H64qtWSeKdvDNt5MBr1F0hwf0k8BsBhSxbAauNaJbfLLZxZqU8nNK+Tm9ssvAnrXwp2yyy6FaPTom7Wbeatpb9f45Ls6/8a2gdoDa6dJtBtFhEt0+ezIS+gHdiTKekLb5DJgLAH+SwHaHpKHYUlzOJldRoYnKjKBOIn0mtmwzjj4jCTmMzOTL04VKtozNJP0v7yGgf+ffgmMpR7/oKPPgXvD1Sc9Mocpj/uQ9y/bz6Kz+TD3Y3NdC8+9cbcbXRkCfTPQIXBkJPyXiSpGRCfV0IsujUAMxZsMWNWBXe038uF7aLy3tEq897WItPtESj5JpBz4W3Ge2ArWxriWpd9HXO89vAX5brL7aHlHtDtamFdvkpRaNPKwSRzTssFY5oJd3a+WdWrlVq2yL6KZ3qNzV+7E3zgfVFhQdVeK2VLEFxDaXalLKm/XKroA5DNIAyKlQzATKXGScj+yLtX1azabdkraunU8OFKJXxnviINOgKaQ8NR2YqHksMud0MUdT6TKBusuWKtkilvklwEZXpyLnq54+D975wJgy5IFKZR8n3YNt9WSt8B31YDP/PjBecfSUpw+hXbKBdJQ8CYkTu/JEIpqdWLlEm97jhm2m1yCOq+U9auFprbDdKLZZxVa0fRI6gWkOqUbk6aF6/Ia1tGxyOwjtEd3m4u1Gebta2imXdiml3SpzWqPOaGSvip1Vy0e10m61uEMttSWw3TlvDrEFxHYEG9eCltQBXItZ2aiVWtzqMyF7yOd6AnE80md9dU7jp2+2aT9finULaegp3iNhaDSUxgy5yjTqg7YXInshMM9LbKaCoZ6aPDGziGWXsHSsB35389oylwX7ZTRj1T0fGJM8c7JY2cMqJ+5ZthXYWfWperDpX/W1jKP2e/pgaE6BMYfyuSJSCw11JPOCBKjjiZsGN4KUfYkjGr5fKT+nlbrNUquDNYTkFqC2LsPGtYVxDMNnUKwC5c1umI5f8CCi2wKy3cK69PJOpfyCjB1SiJNq9SxPnxCrSPlUxYb0yjkDO25jL1rYrhpsP+ONuV2nqU9vCZkGhBnSMG9HXTxcO9CtHrHVr7Zb+NNqeY/F9kZ6zlayDP6OVpoEtqSufwXMkjQ33iNWzgj4WZ0dDvQsmuvpXgit+cB4iatO5wvjeTxTIGevVzKLlWmseteT2rZ6PjAuQvAKePOhOYFjB0v4i7Ry/B5sqyZrhW+oB5s252tjjtbjGf2RlU5g88SBpJ49sWmuPJF4lXTxVPVqN7O4XSltt4hOFHlntwK9HpjHA7o5YltB6EJBERnF6EO+y+PWDDbp2mZ5qVkv7zCIPQZ1XKd7VXpQpkYo8jBDnBSwAQUbNfBRh+zzqeMhczCkGmu8LQdLbtnCvfMuEHFbHXKjS24FVM/VDWhMRwfIO0HYivIBhRb66nYZPxbqU5acrlZ+JuxTM2vvCptQRuUBOjuMiiF9pIAQWvO++RJFTC0ujSIHsjqXwFam7jpsgXEx0OYB/gQ8pCpfLOwtVfdT8rF7sK3AzupP6ZEPLirvN1zUIwBgVDwtFnLR0yBP+ELK48c9MYUk9fWcIcxbQs4RpyNlDDV9CcctbJe8uGbwBPS2gN4WMk1xBUkr6golO9DiNwC/KeK2hkyTS7U6ZJdFdJvYznpJ83rn6SvPStefcUrd6Gey7SC0BWK7I3Ygw5WsZP4GH2uZoGqSOvIKYieILaHQ6DGNDtlhlnbpi0e0qz0aNyhTAwLRz2HnGLyHp3pkrkeTeupZNk/O0gU0XgNFIww09QrVQxoLdx7SeG+vrJRTFSJdpmbz1Nw1PLtEpCtMhhZmAP7Y1WNZfz8nsGcqlX0Mc4QTj92cT6t3vOoWm9VfrP+Tf0fkRAHq00uaciAKwXot0GbRaBglg6YxqRnQsqBlwxsL9XRpKY89jdy2/Haz0hXRT9W9KOtdrHXOe9TmgN6G6raEFtRck7htbDsY7SC3hEyTgTUoxVa52KWUn9WwF+pBVe+8UD6slPaa5WfcSleIIjdxCk7qALbGWwsKt7wrbEJHJLSGQqPPNjjVFquy0yjs1RePKBSqFJHIPoFAoXyJOiexvTJXFzaTm+TKfTI1ECDSpgN7NnTOG9Ld3ZiV8GwNtqXqbAIbwWQ5aRbCl30zFzkzvj3N0acIApX516PrlvP3YHu3ewHSgDB98JCKFloVcP8aZTP1uUCd8ZGyd8ZX0khKMREws0ZA6rGpA1r5ab3U5WBtAdkaT4qpYwHqQFUXzli6J2S3LZcgi82gdYDRhXRXuU4Xb1dL7UKhmy89L2IHZfJ4PajqnUc1LtUTKrZXL3bbpTaPQCYU+NZ43k08XCqZL5Xwdpt5bkJXxLeHfJPPbXPpBptotyo7zdIuGT8mE6fRv04Nq9SwTA1J1Dlk3+oUIov4oFQdtKVUYKXj0Z4XXHOBq959rZHKRIVIl6ozcfQlXSCmaT4nqXPgLkTOXORkDXWYJo/S9GFRPE6x76juv4Wx2tN7sL0bbEhqREUNsG5c4+/9j8jNRNqEry4g392YjxuTM6Ga8qRhmx9wyGeNSrdWbLPwWPZD7IgHdq5aYKcubGITqk7kGyOuIeDRCoXGQGg0Cy1mscMo7UDWjDikkKdkuk+kB+pBVe+8zI0qTL9SPa5he4zKU065PcCbI6Ix3ozdGOaG/Mkb9q3OzSLil2EL+AaP3erSyL45ZIdc3q1hB43qGYseNJlRlRoWyQEGrwsbXerVubHQRsYkdOYi76KpLBClu64PWa5MVYhsDFt2CZuuVKdFMWcaSIkVvDnfnBbYnip+mOePy8px6p0FxzW6bjm4B9udwGYAeGBDZDCh898iawDUcZNPCv/mIJwHdzKUz2n4fm7pWfbKerO8DTldUgfwzRGzBdjNIKxeYKfORRzrqzYgrVWkuNrp0C1yeQu7uF4rPqOVXtAq+xT8sEKijlWJGZbY8XpQ1TvPU8MiPaAwfQZ9yqT2W5WdVrHdWtoaUShNt4zc8v7tdrY65FCZWMi3JHcENPmeRSXLWqkbpdHJQxaNeFOqQ8n+rZ5lI0tnLGUKkPbBXORf8O0LIj9TLtx92PDpMpEtkrklLF3AJonqpKpkQ2cBNeN5M5Y6RhHHKBKZNUk+wryzb+0WxmpP78H2LrDFaschalxw+MD4l0DPhtogyCnQpiJtPJAHAv60yxxwqs/bxE4b3x43wsRbGr4ZGR9mq09v8ulNdS1VHajqvl5EU9RCus0mWg2sU650S5WdUvmZSB3yxD6dPitiJ9nyKQ7rEckBhR6uB1W980iBp9qvMkMaN6Azpwx8n17cqV1vi8eUxpNKl8cCJ/GSurwFbGvAtoZ8S7yaQn5ZK9bBG+Masecs8pBRPaOSy/u3erAx+DlXn4ZwAYJ5CC7q6gJFpLHyXZc/iPUhcwUCmbV8ZZyiJmwtntfl5iInK3PniMpBhjosiEcE8ZCgvEPYp0bXLQf3YHsX2HzUIhvv1vzXAvM8GrfJp0BMgzro8qd0fK9c6FbyLS4W6+HInWDtALnNpbe69NZQbAalLRCabHrVct91YUMzMdocrE0tdCiFZzXsoM30+uJo6M27RlYTUwLVzxMoC6xWe3W6rx5U9c5reA8CoNrPV/vEaq9EHFOxfUZp9w3YbkwGro0srXOzCLjmgGuO65vbUMml0AFiG4gtEbXBJ7fZRKeBPadhB2UiFh6nBurBJrKDnpVBMyvCC2FwSeBy5eIERdz1aGQ8whfBtliZKpTHGSrlGVmIzkMw55mTDHESLx8QuOMcf4hhX1SM47dwteLTe7C9C2weeEjiAYVG/jGw+l1+2GdmQczy+V1S8Tm98oxDdMf+VSOwm4DdEHCN6KpSOkBu94U2X2gL1S4w1ywaqS+tc0pbg+pTwB8AsQeEMZedtOkpWZtV1ZyqpHVpwhCGLa7fYnstGpmOVS232qMTvQLeW62cq1Z6OPy0Sp6wqWPJtPvlMdyJcWNuF/jx2YYbsHVEfBdKJKJkQCewj0fUBgdv1Erdcnm3jB9TqHMoH1AnQKJJY76dDdyZBDaams4vjnP0pfcW0L/z76qQM6gbFc9cL08WKqM8PY6yfHABogVHT5Hlw3j5gCyeYLmDFL1Ht0+sSNctJ+/Btgybj6SyYqgCANsILCYWJrFCFwLHDqzvRsY86MMgnvao/Qb23AoJ36RGvs6dvq6l4lCO28GbfKIl3hF1Q7UzwFqt6pMeuxXF95VuEJ8Certf6bCXWn15JFBGkxWqY8mKtHFXQBOu0dTp4LwtpajiKapyxpDGaxfxHSaR65Gp4xNS4Zia74qqW4F5Mqo+4ZJbA6YLpFa0UAd37FIyzUkLed2/V3gKhK6Qb/GYbU61xax06/k92uJBhx+R8Z64LAs1vLHlk1zllMENgn8pshdC53zoXhLFXL44vFhIEdW7btmW8FlKeLmEZ67lB1gh47nnfSfuy/azAtdL4Ec47oQknWDYfRS9hxff0ZF9C2O1p/dgW4YtRIm0GLYIIs/2PC0MbNTNjZSLGHD/1ub7xNJz4tIOE3sG+N1rBZuNNSA5OjGZ+onEDlC5k7gdqX0IbQHd7OAtVrnNLne72NMetitQ0JyaQBkP1VSyIm0CLRXN3V0eaa9OqcwQX+27Rdb7Tsqj6sHmK1mVOMNe2S6+vTnAtiG3UOj0yFgoISEtacOJYUN/Rb2bDr8z4jtDviXOvzVaeIdRelrPv6BWe2XirEqeM5lBieyliydE4hwqx3EvgHM+dM5b5jzHZoul8XxpEqnurNmM7JVTdnlsFqPPFyrT+fKILOdcZ8GzZyJ/znMmBf4sSRzmuBOieJzl9tPM3nuwvYt/eMuXYzkwdC6eABX6sT5YgPArgflNixuUyzulfLNRbPOIroDpXivYLGxTyDShQl6tCwGGpOmaQWkBriui2u1Ku1roUAtPmdhejzkWib23wLZMmjaRjG9OGg58bTo0MpowWi2fXm3hbz3YVHHYFAYU7Bj70x3y2x1A7kT2FlWTxGPva1Y9qe26TTnlMmxx/o3ZYpNNFt5hVrrF0lEZP2FQvQbTL2G9TPGszoyDeyGwZsC7EDgXFWmWqk6j3BeeKVTueoCkgM8UscxScZyoThnGguvMe3YWonnTGOa5M1T1KMcdE4RjLHeQYffx96KRt+D0Lk+X5615ASxL1CUSKg73kkH1qXi3iW+Nzc52YDtQr2TtqqpdWLULrt5Nvc75iGlAFSFyKxidoLX63BaNWGdcbzbybXbpaa+6z+dOhcogGKgBPJBToTKRrEhFIo1Ip1GbiqWIs46U0pghNNvFnXO0KRo7u9qWlnqw0dQJmR8w+VEN79Xzh93K81Ddjt4EVFnyzvqSOn9mYusirju2bE0Bv9VjNyJhFWqbU21USnuV8n4FP6oQJ2W8R6mOeEoOvFccHdVnueYFhs5UsGmCmsWqM9dKE3fbspXwmeuF1FJxnBdnPfeiZ8/5dhbCeUk8y3OnWPY4xx3j+aMcfyhe95La74LXO7/sAIRBBJaPpPiQaHIAhhfiYn6PXX0a5bXkeNw7HU98l5rWDDaxFbimkEEqIKHY6rEtKr6Zy69Tr+8wS8+H9BGQ+8GaRpsxeyG0Fm4hDWEWL6S0Y+ZCPW3yo8n4XM9IK9zwe2vW/HnkWOYUTZwRqVFfyYGaCZnjeqlDuv5kWO1YjpowSX1JS2zu6tZM3si/IdgCfrPPbfK5LT63xaFQG6uQf5YrvKiRZ9GscOtiZL1kG9OePafKcwSWLpSmcWquTM1cLY/fbdjKRO56frxcmdD185H3UmDPBlY6cjM0fZTjTgjCCZ5f5g0hd2cVW/f2bDeQ8wAiz0eVWYg0CKPQ/aln/WXE74r1EreAuBnYRqBaAnqbx29aM9iYRuSJCdt9ulOvtAnFVrHSqeBPgdAL8gCow3Eb+HSk5wJ9xtVmQmUqUpfHxidycckjGidvZJNuOoMftaWUq0/7Zma1MgQ/j1lyhsVOs0SvIU6heWh2WqEOs/kuMd/i410B2Rkj145MHBdHSsS6MgrLKYEbabdQ2JYsELbb1Q5hqZVZ3KFVT4CVAfeSr19w7WldyzJ0plRKF0szJXKuSOWuY3dRlzAjAAAP50lEQVTdsmFkrlBMMXTGsV4K3QuRNxvY05Y0VKnsZdmjknSK54+z7FFBOCGKJznuXiHyDY7u6HMIUWS5YCLoQgBHjoyvecoB0HeB0BxSj0fkk8C0Ab8DGR9q/ZrBRjcB04qmn+HdSvEpubzbpE/4Uh+4M2BnIwPpmSfdqI6UcqWVSNMzSF5fS4fKlK+iZUtolLOjocKLGmx3KLBTDzalNOhwk6Gdc6wUx53AKs8z2PM696KHbfewzoDsjKjOZdjEVhDrBkiWS8z4ppBPRJ1R8i1eyGXQsSZ2qU0mX0R6Pj6q7ve8rChMYJVxRBp2IY/NLhHpxbtfG4kTOZzIKPJ5z3kpsOdRCYudFsjT+fyzLHtYURBsDHNEEE5I0hmOuxf6vyPIbrwoDKPIcCLDQ1NpAAw6Fs9Yb2MNqEKK2wRMQ0C2utXtDt/ua2vnRgrtIdGs5Zvk/HYL3xfyfaBOgT7jGjOunnG0tCMnsI15IlqRivoMaq0GoOeWlz3rSxOWMBZo0742bYnjCLbw/Gql4+rBBsICqLOGPIJXDxSwZ6vsXkk8LAtH3cp2D9vu411hNd658W0oDSDVtWw+twXVc/JNIdeGxLxq+TdxAyjbXKaZLzbzlV2uMgDeXOicD8Icy43lC6PF0kwZv7hYnr2OTRWYux4gIcgsRedM46XAeckz0ZwasNNU8cj1xR0se1hVT6MBGqgK+fQ92G4gdOefQwsiH+3TInAMHanKKE8A8R70G7uA7YiYdp9pc5lmh222mQaTbQilrZG8DZRmFAgRUIjfxxqd0lbs7S7i2tMO3wveDGioeyAyMpaw6sHwNd/ylgM0LjBWakjUUAS8VyL7JLKPLaMx1pYwYgkjiTq6QvXp7KBK9Chkj4z3cJWzPNajsaNIygr+jGWPrrhk4bBA7RaLO4xCZ4h3AdsFYhsqnZHQioTmkI9FKdkmn2lBgkJ1wicB24EqvOLSap9p8amnffKAh53IM7OL+PRiabxQHMPwKYxKLxFTl8trVhtZqGRL+AxWncWpubjRO7NUTl0rjBbz/bo0FxivhNol8F4Bb0Hk+8vYoTtpEq0l1m45uLdnW8YR1WSBirJqDrjmXzjy3pB5JtbJqesRrXzdSF0gdERsa0A3+1SDxzSiyAffAnITSOjK85kWl2q1iVabiJXkhDMqedzi+pPJZoGa8dWpeNbZ8sbsFnhW+9QSxsCdA3dOY4YSoe9EXt/ghlS6XyRQHjmZBKLS/RozYHNIypIvnUFyzuyAq6Y8Y8ozplYkjWWPcvwBnt2nVl8wMTQszifaUOO52BYJiLQYtpZkn4YQYuq+mSHXeQO2rahkmd7uV1/wyQPlcl+lMlyuTKBAfCW7iKWXiHShumaWLYGtQs7UYMtXJhZL4wQ+aKpzoXkJzEtgX3C0CY49Td6ZZN0tjNWe3oNtGTYrTl+jzLZxOVB22cwTPvU0UhGucyeuex7pTMXTdOkmpNNIN8WvjGssuBan2qxjLTLWLmM7FHKXRu2GaA7MjMWnHHEaaStoWVcej4yf7c1WS9ctr9fZ4cjIgDfvq1Nytb82pcmRxhQK2TemdFIkelCXANmLhl2V+xUChfjR0AI36xrjPHWqlN/LsodXXKRwUJQO6eJBk35er3QaxRafaAMW1Yigkv+4QvLmx3rvW8huR4WUQmMcpdyKyKS3+9TT7NUX2OLxKjFeIOevVBbeLs8VyFyVWzP5gwS2MpHDqrMVMocq/fGpfGVCFFKuNQtOnFI3MiLTQ5KHeOmOtEZqdN1ycA+2ZdgM8CMPwKyAfhLoxojcHHIbImnVNY0R6jdrQfsWMU74sq1ANQPZHNLtbhXNNJPx7Ty2k8Vf4Mh9LHUQrFmIXgn1OZ2e9JVcqKFMGpiTtzDznp8G2rTODiM1lOA8mFmucpYpnbaEsbhdurdm0xSqj6ucruaPMcVzKJts5cCf8cwxkT2JlfcWllBUYMVFyUdY9YgsH9bYvSqxU68gDUwf7/KZtmQl5f+JeUcWvs7NK4atI24O2BbwmwM+tm9Mi3m1Sc0/R2O9BSJ7Fb90Db9QIucoes0qSIpYroihn1YmchUSrTKZLpNp05wOvXnwFsCdc9VxsnKwUtmtGHekonULY7Wn92Bbhs2B0DftUDoPwqNAbQbyGeAbbfGJehdHvfMuuRmpTUkdoGxHAj5sZ0i0OKVtWqVTxbv16jMqvVuiEWbV6kGMOIgXT4N3AfyXdHbK5CZ9JY0klg1UfrUmC5xZjRlS6UGUqfMXDG5EwHt1Fg3ZkchenR3UWVQELOBneQyJWCE/Vpu25TGR6alih/DKixS9TxAPsdzBlZd2kpaP0Px+jtursXtN+nkT22kUOh2yza22ezRCLum1iYTWqL5mSa3ZNBQaQ2FbYt8CvgGKm61iB1vYX6kMlqozFeoCKhGOFezWJNWWwFbEMjFv2QqZw+kcwcy4bgb19fjz4Mza8ihR3l+uPKea92Bb5uUX++QqvvmSzTwdkuuAewyYPUC/aMp/WA+qeucdbHNQbUJBcHEHCE959A7UdVZqZStPC8Quidmr8Acl8TDPH60yhwnq4OWfPqcpoxBcsJWMxo67wkQkT4C2ZpYNzKyvTpn8KAq6GBlwZj1lUiQQXUlERKH6Esx0dhCN4HGztjzMkieI8oEqcYhhjvD8UV44vDJp3EFeOknxhwlmH83vl+XDurhfrb4gFndYeIdNtDtkm0e3BWw7smlJiL+OZYt4NEg1ATJpfkuCJcA0uFiTjIQeDnJkP12dqGCTi2vXPJrAVqik4xKwDFadIdlZWlhwnCxEF8E/H5lZRxljq8cI4kVBuSOZ8Zopu+XgnmW7gaj0jUh5zmU2oS0H0wDCduB2+eKT9aCqe55oCYkWl2g18Q6V6JSIboF8iqs+TTP7GfYAyx3khcOo3fDGypd3k8xR2xyPvFlLnDDoEV9IoTEda2TZ0EgdK+cpkyo9uBwssXJIDh0N0EHaO8lgVEsYQaSZaZU7LTAn2OpRnkUZJFk+zfDHCOogy+1fcdHEQbp6iOIP07E/KUqHeHafQO02K50m1m4TyHkOWEQRygfIdd3IGEXU+YaUS5IubzTro80VWzy2JSBbPazbKO3mSieKxYG3i2tWQVLEcoVKNl+ezpenS3gGp2Ypfp6VLhhGGqKXwLvoazlfm9alfoY5UmX234tG3gDmF/nMvADMjpBb79GtPrkvFDeB+ggwR+tCVecODXRXRLTrhUZusYFcbCLKXTTzLCfsYeTTlHic4g9Xmf00v1+UDmnaEdM8yutHy+RuUe4BmPfUKYUYcNhR0LJrBRtYucjIuPJEYtw8ZTLU06GeTvxGkegxuKHImAYnB2baU1JVfA9HH5D4YyJ/Io5AHueE07J6bkXSWG4/ubiHJpB9Y7WTlHyEFA5y/AFZOGyUO5PBHe+ATambf4uHV7XEsHVFXHe8hesMuU5VbvflNrQNxhvdpTbmyvNLS2d+WllDwZ+ZGmxFLI1TyKzxyiVFnoLgJXAvunI2NHKeOSkIpyrEHY2GusWg1Z7+m7NskQ8BhDawbhgkI39D9TuOcjaSuiOpOeKfBGYTUC3AbEf51ttdHN0oyMZvBaURlCaH2WoSaAanUnmaWdyu0QdM8QxLH8PJQxhzqCodrb3jtxwoxlGa2V8s7BPZQQhf8s2czA75+mRtVGeNultmedbO3/4A7NlAnkTDdZ1ZsHKmMKbyI442FegzAjWo8kORl/WdMUk6Q5L7lorPrPbOXe/1mrBPrj4vlHYohW4X345a9bimCPXX1jduK35J2oHGGotNAd/gUk023m2Wdhv5Q5cL/deJdJl/pcz96RLx8lJxrljMEJXpVW/kqPNXC+liZRYj5oqlCZ5NR97F0JtFGqzxTSpRkgczGxmZQJvGlw4yxHGJO82zJ6rEARzfy3IHJe2eSOtKhi4KURONEyleYKNKEUsI9Vdd9VwovRCJXWgGBbMFqDagUboMlCRwv9L1IXXFEe1GUNpCod3Am5Vim1rutulDMr7PEc54+pDEn6nSR0n+MK3UhU1UUdk4VjnAUb2ROx/as7o45qqptYfNykVm1hLH0c/Xp10lY0gTKIdmTfHMSYI4mAyDrgfPLfeI2tN6rxeZvSK9RyZ3K/gzWmW7TbSjicRC/fdzRdLYFjTGcRk2pDRhE+1m+WmztDtfOFXGhwhmBmdeLuIX86XZYjGDV1CcY3WLXLhWzBTKM2jiVHlK5LOhd/42sFnSkECfJcuHCewASx8RxeOidDSOD628nau9Uf8W57PFeiKR77u+L4NfAu9/hOYlTx2OpNMgvogKiJhmQDJSXWiboTTUvRPrO32mRStvUUrb5FKrXOg2if0g9UTysMsORBqKNOjKEMUcY6VjTH1BGFY8IEpHKeoIRZywtFTkzDjalCXFw6mVqZ8vO769Hfv5r6JWAGXKUybRjVlPo7JJOeUZaHinq2dMeUxgzpHYIZY9LssnaQ5Jjq64br5obj5e8cUcd4Sm9vLcAYU/pND7BCRJ1G7Tneh2Vg+qeuf5HSB0JPk3j93sVBuRBCW2nSnsZitHueowWc2U8JlCeaZYzpaxVZKGZ0vk3FIxWyzN4PhMlcjK4kzgLoRuNrFsjpRKZjYkIxzQmEt/xpCHKOwoUTnIsycU5ZQkH7vD9+3fnhsJRhRFgRcGHhEG/xT5c5E1GWiToZSKpNMRvytibmi2cS2RuLX+xdFhlrcJ17eKi+1qcZdJHgNlHOAS6DMg50CbBf+CoYxWq4c58Qgl7L35Ar35mOL2KSrq1yAqB0WuF5B404zOjayZZTPQ9s9TkCfpJkufRmqn7gXfzJnyGEOewcsHRPG0pp0h6X314Ln5d775uO7rmUMMjyKZHHOYJXfzxNNatduhVz3k8eb+N5/b5LGbXXqrU200ix16ZZeEHaWxoQo2XcRyeWy2gK862V0h5wqVbKGUwbAcz8ya6hwSXbYz4M6FetqRUrY47qtTNdhCc8q3plxjXJX6OOY4RaECLuGe1v9KXiT8/62dzUvDMBjG/0YPFhEUL4IHRTo2p6h48TBRViyjdq6yf8qDaF2/qU2bNt1H17VLI28LUsGCgpBDCDmFPDwheZ9fCjZntGCrVZE+Q05pdV0kN4A3JgolPRoeUwQAKWjeNg0aqVjkdSN64RbaPgvOIQgTCSyW2HLM4iGLhxD6ysYzfGtoLeS3LfewvkHrfcfjSQw0C1PnXfuMpgOWjwBLWtraPzjbdFCJbYn7y1CAEHcJPJ0hIV88MDqakzv9vWVZnTC88IJuo3j8nyHbTfMxBuCU/dF1vFPkn4QeH9kHZPL9G+EmN6uNU7RH0c4abZUvAZtV+C1HHNW5VNsNJ0eudmnoUCqpmvKb9fi3M6Qp6basGZKqipYhTbGSzZV1IueJWIkNFg33v26VMnI/RT2QInsqchGjK9NsO07nl5Uln/kXt+412UtdAAAAAElFTkSuQmCC;" vertex="1" parent="1">
          <mxGeometry x="420" y="18.00000000000001" width="118.15" height="70" as="geometry" />
        </mxCell>
        <mxCell id="gEV-0_07iIvLEzTvhgMC-16" value="" style="endArrow=classic;html=1;rounded=0;" edge="1" parent="1">
          <mxGeometry width="50" height="50" relative="1" as="geometry">
            <mxPoint x="478.58000000000004" y="214.79000000000002" as="sourcePoint" />
            <mxPoint x="478.58000000000004" y="88.53" as="targetPoint" />
            <Array as="points">
              <mxPoint x="478.65999999999997" y="161.59000000000003" />
            </Array>
          </mxGeometry>
        </mxCell>
      </root>
    </mxGraphModel>
  </diagram>
</mxfile>
